<svg id="svg" version="1.1" xmlns="http://www.w3.org/2000/svg" xmlns:xlink="http://www.w3.org/1999/xlink" width="400" height="325.83586626139817" viewBox="0, 0, 400,325.83586626139817"><g id="svgg"><path id="path0" d="M359.087 40.925 C 358.908 40.993,357.514 41.199,355.990 41.383 C 354.466 41.566,352.486 41.849,351.589 42.011 C 350.693 42.173,348.934 42.409,347.682 42.534 C 346.430 42.660,345.278 42.841,345.122 42.937 C 344.502 43.320,340.091 43.614,338.726 43.362 C 336.865 43.019,335.126 43.291,335.126 43.924 C 335.126 44.225,334.937 44.333,334.620 44.211 C 334.330 44.100,334.199 44.155,334.314 44.340 C 334.423 44.517,334.357 44.662,334.168 44.662 C 333.584 44.662,333.722 50.041,334.319 50.536 C 334.739 50.885,334.784 50.853,334.614 50.331 C 334.473 49.899,334.503 49.841,334.716 50.136 C 334.883 50.368,335.052 52.275,335.093 54.374 C 335.134 56.473,335.314 58.337,335.492 58.517 C 335.708 58.733,335.737 58.634,335.579 58.219 C 335.413 57.783,335.457 57.666,335.723 57.830 C 335.978 57.988,336.104 59.300,336.104 61.796 C 336.104 64.204,336.227 65.526,336.450 65.526 C 336.639 65.526,336.714 65.657,336.614 65.818 C 336.515 65.978,336.635 66.186,336.880 66.281 C 337.126 66.375,337.424 67.104,337.544 67.901 C 337.663 68.698,337.970 69.626,338.226 69.964 C 338.974 70.952,338.804 71.221,337.164 71.652 C 336.312 71.875,335.102 72.198,334.474 72.370 C 333.847 72.542,332.306 72.686,331.051 72.692 C 329.620 72.698,328.405 72.893,327.791 73.216 C 327.253 73.499,325.713 73.804,324.368 73.893 C 323.024 73.982,321.217 74.344,320.353 74.698 C 319.480 75.057,318.254 75.298,317.591 75.243 C 316.214 75.127,316.316 75.454,315.405 68.297 C 315.108 65.966,314.720 63.199,314.543 62.148 C 314.254 60.438,313.846 57.600,312.974 51.251 C 312.561 48.245,312.420 48.146,308.901 48.408 C 307.277 48.529,305.143 48.829,304.156 49.074 C 303.170 49.319,301.263 49.666,299.919 49.844 C 298.574 50.022,295.713 50.531,293.562 50.975 C 291.410 51.418,289.100 51.873,288.428 51.985 C 285.872 52.412,285.861 52.169,289.477 75.632 C 294.203 106.303,295.144 113.432,294.549 114.089 C 293.981 114.716,293.985 114.757,294.652 115.315 C 295.234 115.801,295.476 116.795,296.183 121.597 C 297.242 128.784,297.205 128.618,297.861 129.273 C 298.485 129.898,301.593 129.780,307.523 128.907 C 310.997 128.395,311.328 128.449,311.328 129.516 C 311.328 130.118,311.448 130.048,312.122 129.056 C 313.125 127.581,313.911 127.274,318.337 126.636 C 321.597 126.165,323.390 125.561,323.391 124.931 C 323.391 124.801,323.180 123.521,322.922 122.086 C 322.664 120.652,322.137 117.351,321.750 114.751 C 321.364 112.152,320.774 108.264,320.441 106.112 C 318.896 96.155,317.742 97.158,331.703 96.324 C 333.496 96.217,335.928 95.908,337.108 95.639 C 338.288 95.369,339.901 95.195,340.694 95.252 L 342.135 95.355 342.356 100.407 C 342.612 106.280,342.600 106.197,343.168 106.414 C 343.483 106.535,343.602 107.346,343.602 109.366 C 343.602 111.417,343.767 112.515,344.229 113.532 C 344.647 114.453,344.901 115.894,344.990 117.848 C 345.097 120.187,345.279 121.038,345.885 122.044 L 346.646 123.305 349.181 123.158 C 350.575 123.077,351.925 122.838,352.180 122.626 C 352.436 122.414,354.241 122.024,356.192 121.759 C 358.143 121.494,360.619 121.133,361.695 120.956 C 362.771 120.780,364.678 120.485,365.933 120.302 C 374.631 119.032,374.326 119.401,372.792 111.980 C 372.533 110.725,372.175 108.525,371.997 107.090 C 371.690 104.613,371.446 102.970,370.670 98.126 C 370.483 96.960,370.113 94.332,369.848 92.285 C 369.583 90.239,369.274 88.274,369.161 87.918 C 369.048 87.563,368.765 85.716,368.532 83.815 C 368.299 81.914,367.954 79.552,367.765 78.566 C 367.439 76.857,367.192 75.164,366.412 69.275 C 366.222 67.840,365.860 65.640,365.609 64.385 C 365.358 63.130,365.059 61.002,364.945 59.658 C 364.831 58.313,364.545 56.406,364.309 55.420 C 364.073 54.434,363.785 52.481,363.669 51.081 C 363.553 49.681,363.321 48.177,363.154 47.738 C 362.988 47.300,362.753 45.761,362.633 44.319 C 362.368 41.152,361.266 40.097,359.087 40.925 M273.187 54.770 C 271.125 55.091,267.897 55.583,266.015 55.864 C 264.132 56.145,260.098 56.749,257.050 57.207 C 254.002 57.664,250.041 58.255,248.248 58.519 C 246.455 58.784,243.007 59.304,240.587 59.675 C 238.166 60.046,234.691 60.556,232.865 60.807 C 231.038 61.059,229.204 61.345,228.790 61.443 C 228.375 61.541,226.496 61.831,224.613 62.089 C 208.853 64.243,208.970 64.212,208.956 66.299 C 208.943 68.319,211.094 82.439,211.613 83.741 C 211.984 84.670,211.348 84.734,229.614 81.921 C 234.024 81.242,234.116 81.289,234.587 84.466 C 235.328 89.467,235.754 92.174,236.195 94.703 C 236.446 96.137,236.806 98.704,236.996 100.407 C 237.186 102.111,237.473 103.945,237.635 104.482 C 237.796 105.020,238.025 106.487,238.143 107.742 C 238.260 108.998,238.501 110.685,238.678 111.491 C 238.855 112.298,239.133 114.132,239.295 115.566 C 239.457 117.001,239.805 119.421,240.069 120.945 C 240.654 124.329,241.118 127.454,241.752 132.277 C 242.540 138.264,242.405 138.130,246.972 137.430 C 258.012 135.738,260.321 135.666,259.626 137.038 C 259.523 137.242,259.708 137.093,260.037 136.709 C 260.497 136.171,261.389 135.886,263.896 135.475 C 269.080 134.625,269.618 133.421,268.102 126.059 C 267.502 123.142,267.521 120.942,268.154 120.038 C 268.654 119.324,268.648 119.318,267.804 119.702 C 266.746 120.184,266.446 119.813,266.169 117.685 C 265.917 115.752,264.825 108.501,264.229 104.808 C 263.969 103.195,263.671 101.214,263.567 100.407 C 263.463 99.601,263.170 97.694,262.916 96.170 C 262.662 94.645,262.146 91.271,261.769 88.672 C 261.392 86.072,260.866 82.738,260.600 81.262 C 259.923 77.511,260.128 77.201,263.570 76.768 C 264.466 76.655,266.960 76.284,269.112 75.945 C 271.263 75.605,274.923 75.031,277.246 74.669 C 283.195 73.741,282.806 75.299,280.668 60.962 C 279.531 53.345,279.978 53.715,273.187 54.770 M168.052 70.559 C 164.466 71.132,159.698 71.864,157.457 72.185 C 150.786 73.142,151.157 72.815,149.682 79.055 C 149.512 79.772,146.417 91.361,142.804 104.808 C 139.192 118.256,135.930 130.408,135.556 131.812 C 134.825 134.563,134.043 135.607,132.701 135.628 L 131.866 135.641 132.789 136.141 C 133.412 136.479,133.647 136.808,133.513 137.158 C 132.969 138.574,130.662 147.172,129.902 150.611 C 129.645 151.777,129.344 153.047,129.235 153.434 C 128.881 154.679,130.100 155.524,131.942 155.311 C 137.646 154.651,150.169 152.702,152.993 152.034 C 155.825 151.365,155.843 151.335,157.427 144.626 C 159.065 137.690,159.224 137.427,161.614 137.674 C 162.967 137.813,163.325 137.767,163.046 137.487 C 162.164 136.606,163.256 136.264,170.008 135.307 C 172.518 134.952,176.553 134.345,178.973 133.958 C 181.394 133.572,184.409 133.186,185.673 133.099 L 187.972 132.943 188.851 134.272 C 189.335 135.003,189.731 135.664,189.731 135.741 C 189.731 136.104,194.413 144.005,194.957 144.560 C 195.643 145.260,195.190 145.295,205.379 143.757 C 207.800 143.392,211.174 142.891,212.877 142.643 C 222.523 141.244,222.280 141.451,219.409 137.082 C 218.702 136.007,217.668 134.393,217.112 133.496 C 215.145 130.325,214.233 128.872,210.662 123.227 C 208.677 120.090,206.145 116.055,205.036 114.262 C 203.926 112.469,202.687 110.489,202.282 109.861 C 200.554 107.187,198.521 103.967,196.874 101.297 C 195.904 99.725,194.564 97.597,193.896 96.570 C 193.228 95.543,192.445 94.281,192.155 93.766 C 191.866 93.250,190.714 91.417,189.597 89.691 C 188.479 87.965,186.798 85.306,185.860 83.782 C 181.115 76.071,177.314 70.223,176.807 69.852 C 176.063 69.308,175.695 69.338,168.052 70.559 M109.372 79.394 C 109.059 79.528,103.871 80.314,96.333 81.369 C 91.783 82.006,91.864 81.923,89.171 88.672 C 87.991 91.630,86.887 94.344,86.718 94.703 C 86.548 95.061,85.740 97.042,84.923 99.104 C 84.105 101.165,83.297 103.146,83.128 103.504 C 82.958 103.863,82.303 105.457,81.671 107.048 C 81.040 108.638,80.169 110.765,79.736 111.775 C 79.303 112.784,78.404 115.004,77.737 116.707 C 74.716 124.434,73.788 126.244,73.051 125.850 C 72.083 125.332,70.256 123.065,67.654 119.152 C 66.342 117.180,64.886 115.155,64.419 114.653 C 63.952 114.151,63.570 113.608,63.570 113.447 C 63.570 113.286,63.386 113.037,63.162 112.893 C 62.705 112.601,62.174 111.798,61.481 110.350 C 60.907 109.151,58.592 106.601,58.077 106.601 C 57.871 106.601,57.702 106.368,57.702 106.082 C 57.702 105.796,57.408 105.486,57.050 105.392 C 56.588 105.271,56.398 104.947,56.398 104.281 C 56.398 103.764,56.248 103.341,56.065 103.341 C 55.882 103.341,55.565 102.975,55.360 102.526 C 55.156 102.078,54.873 101.711,54.730 101.711 C 54.365 101.711,52.812 100.116,52.812 99.741 C 52.812 99.570,52.518 99.430,52.160 99.430 C 51.739 99.430,51.508 99.212,51.508 98.816 C 51.508 98.476,51.217 98.125,50.856 98.031 C 50.497 97.937,50.204 97.635,50.204 97.360 C 50.204 96.653,48.963 94.634,48.396 94.416 C 48.135 94.316,47.922 94.009,47.922 93.735 C 47.922 93.460,47.737 93.236,47.511 93.236 C 47.285 93.236,46.917 92.942,46.693 92.584 C 46.469 92.225,46.067 91.932,45.800 91.932 C 45.533 91.932,45.314 91.727,45.314 91.477 C 45.314 91.228,45.102 90.942,44.843 90.843 C 44.584 90.743,44.274 90.141,44.154 89.504 L 43.937 88.346 41.485 88.346 C 39.668 88.346,38.771 88.503,38.017 88.957 C 37.314 89.379,36.098 89.623,34.067 89.749 C 32.453 89.849,30.587 90.161,29.921 90.442 C 29.189 90.751,27.704 90.961,26.172 90.972 C 21.067 91.008,19.666 92.487,21.007 96.421 C 21.287 97.243,21.518 98.733,21.520 99.732 C 21.522 100.731,21.814 102.722,22.168 104.156 C 22.522 105.591,22.814 107.508,22.816 108.417 C 22.818 109.326,23.026 110.793,23.278 111.677 C 23.530 112.561,23.834 114.509,23.955 116.006 C 24.076 117.503,24.381 119.410,24.635 120.244 C 24.888 121.078,25.099 122.494,25.105 123.390 C 25.111 124.287,25.337 125.974,25.608 127.139 C 25.880 128.305,26.233 130.679,26.394 132.415 C 26.554 134.151,26.830 135.841,27.006 136.170 C 27.182 136.499,27.424 138.012,27.544 139.533 C 27.663 141.054,27.954 143.032,28.190 143.928 C 28.425 144.825,28.709 146.747,28.820 148.201 C 28.931 149.654,29.227 151.487,29.479 152.275 C 29.731 153.063,30.014 154.957,30.106 156.483 C 30.199 158.010,30.422 159.643,30.600 160.114 C 30.779 160.584,31.079 162.614,31.267 164.624 C 31.806 170.399,32.980 171.462,37.234 170.025 C 38.002 169.766,40.234 169.391,42.194 169.193 C 44.154 168.995,45.901 168.744,46.076 168.636 C 46.251 168.528,48.206 168.331,50.421 168.200 C 54.558 167.953,55.681 167.598,56.366 166.319 C 56.830 165.451,56.224 157.719,55.596 156.504 C 55.256 155.847,55.093 154.607,55.092 152.665 C 55.090 150.894,54.921 149.473,54.649 148.952 C 54.407 148.488,54.105 146.915,53.978 145.457 C 53.851 143.998,53.471 142.022,53.135 141.066 C 52.342 138.810,52.161 133.946,52.909 134.990 C 53.373 135.639,55.941 138.783,56.215 139.038 C 56.407 139.218,56.984 139.878,57.496 140.505 C 58.008 141.133,59.927 143.260,61.759 145.232 C 63.592 147.205,66.094 149.992,67.319 151.426 C 71.172 155.935,72.095 156.805,72.838 156.625 C 73.209 156.536,75.467 156.183,77.856 155.841 C 83.735 155.000,83.129 155.631,86.780 146.536 C 87.140 145.640,87.634 144.466,87.878 143.928 C 88.122 143.390,88.994 141.263,89.816 139.201 C 90.639 137.139,91.506 135.012,91.745 134.474 C 91.983 133.936,92.580 132.469,93.072 131.214 C 95.546 124.897,96.098 124.983,97.001 131.832 C 97.262 133.804,97.619 136.232,97.797 137.228 C 99.258 145.437,99.229 145.669,96.544 147.130 C 95.621 147.633,94.866 148.113,94.866 148.198 C 94.866 148.283,95.179 148.184,95.563 147.979 C 97.221 147.091,98.116 147.026,98.263 147.782 C 98.339 148.172,98.772 150.511,99.225 152.978 C 100.548 160.182,100.464 160.105,106.182 159.288 C 118.853 157.480,124.371 156.300,124.747 155.318 C 124.849 155.054,124.388 151.368,123.724 147.128 C 123.060 142.888,122.579 138.893,122.655 138.251 C 122.747 137.478,122.600 136.806,122.221 136.267 C 121.903 135.814,121.496 134.294,121.304 132.844 C 121.115 131.410,120.672 128.329,120.319 125.998 C 119.275 119.101,117.419 106.999,116.893 103.667 C 116.274 99.744,115.310 93.434,114.401 87.368 C 114.012 84.768,113.528 81.907,113.326 81.011 L 112.958 79.381 111.328 79.317 C 110.432 79.283,109.552 79.317,109.372 79.394 M173.002 106.233 C 175.881 111.265,177.298 114.053,177.175 114.442 C 176.956 115.132,176.717 115.190,170.497 116.072 C 167.897 116.441,165.477 116.815,165.118 116.903 C 163.679 117.255,163.250 116.415,163.767 114.257 C 164.024 113.184,164.554 110.839,164.944 109.046 C 165.335 107.253,165.853 104.980,166.095 103.993 C 166.338 103.007,166.637 101.540,166.760 100.733 C 167.342 96.933,168.021 97.531,173.002 106.233 M85.885 154.931 L 84.597 156.316 85.982 155.028 C 87.271 153.829,87.517 153.545,87.271 153.545 C 87.217 153.545,86.594 154.169,85.885 154.931 M78.708 162.429 L 77.751 163.488 78.810 162.531 C 79.393 162.004,79.870 161.527,79.870 161.471 C 79.870 161.219,79.601 161.441,78.708 162.429 M341.895 173.122 C 342.102 173.400,342.430 174.720,342.625 176.056 C 342.820 177.391,343.193 179.731,343.453 181.255 C 343.713 182.779,344.008 184.686,344.109 185.493 C 344.289 186.934,345.091 191.725,345.529 193.969 C 345.811 195.418,348.613 195.413,354.197 193.954 C 354.914 193.766,356.455 193.479,357.620 193.316 C 359.690 193.026,359.673 193.023,356.907 193.169 C 355.349 193.251,353.662 193.477,353.158 193.671 C 348.757 195.367,345.558 194.817,345.558 192.363 C 345.558 191.659,345.265 189.594,344.906 187.775 C 344.548 185.956,344.254 184.022,344.254 183.478 C 344.254 182.934,344.041 181.515,343.780 180.324 C 343.519 179.133,343.159 177.143,342.979 175.902 C 342.777 174.512,342.434 173.447,342.085 173.131 C 341.593 172.684,341.568 172.683,341.895 173.122 M362.559 192.053 C 360.283 192.432,359.120 193.099,361.206 192.829 C 366.674 192.123,366.155 191.601,367.195 198.859 C 367.259 199.307,367.331 198.762,367.356 197.648 C 367.404 195.435,366.670 192.738,365.843 192.095 C 365.261 191.641,365.052 191.639,362.559 192.053 M367.427 201.304 C 367.418 201.842,367.623 203.162,367.883 204.238 C 368.142 205.314,368.366 206.781,368.379 207.498 C 368.417 209.560,369.615 215.021,369.652 213.306 C 369.669 212.555,369.523 211.528,369.328 211.024 C 369.133 210.519,368.837 208.678,368.671 206.932 C 368.346 203.532,367.457 199.509,367.427 201.304 M369.725 215.906 C 369.701 216.586,369.895 218.200,370.154 219.492 C 370.414 220.785,370.685 222.282,370.758 222.820 C 370.851 223.519,370.900 223.380,370.930 222.331 C 370.952 221.524,370.819 220.277,370.634 219.560 C 370.449 218.843,370.178 217.449,370.032 216.463 C 369.802 214.906,369.762 214.833,369.725 215.906 M371.159 225.850 C 371.240 226.979,371.454 228.180,371.635 228.518 C 371.816 228.857,371.964 229.945,371.964 230.937 C 371.964 233.177,371.706 233.346,367.620 233.786 C 365.975 233.963,363.309 234.313,361.695 234.563 C 360.081 234.813,357.514 235.102,355.990 235.206 C 352.048 235.475,351.558 235.984,352.207 239.133 C 352.465 240.381,352.852 242.575,353.068 244.010 C 353.284 245.444,353.572 247.205,353.707 247.922 L 353.953 249.226 353.986 247.759 C 354.004 246.952,353.865 245.705,353.678 244.988 C 352.984 242.330,352.377 236.937,352.725 236.518 C 353.057 236.118,354.946 235.763,358.109 235.508 C 359.006 235.435,360.913 235.209,362.347 235.005 C 363.782 234.801,365.395 234.591,365.933 234.539 C 368.739 234.267,371.390 233.756,371.813 233.405 C 372.386 232.930,372.451 229.680,371.928 227.710 C 371.738 226.993,371.454 225.819,371.298 225.102 C 371.058 224.002,371.036 224.119,371.159 225.850 M354.079 250.302 C 354.054 250.895,354.248 252.362,354.510 253.562 C 354.772 254.763,355.045 256.112,355.118 256.561 C 355.203 257.092,355.265 256.928,355.294 256.093 C 355.318 255.387,355.124 253.920,354.863 252.833 C 354.602 251.745,354.328 250.489,354.255 250.041 C 354.149 249.389,354.114 249.441,354.079 250.302 M355.533 259.676 C 355.794 262.137,355.196 262.701,352.078 262.929 C 350.733 263.028,348.386 263.317,346.862 263.572 C 342.235 264.346,337.387 265.070,334.637 265.398 C 333.203 265.569,331.516 265.844,330.888 266.010 C 330.261 266.175,328.280 266.461,326.487 266.645 C 324.694 266.829,322.776 267.112,322.223 267.274 C 321.671 267.435,320.131 267.673,318.800 267.802 C 317.470 267.930,315.501 268.231,314.425 268.469 C 313.350 268.707,311.477 269.003,310.264 269.127 C 309.052 269.250,307.979 269.481,307.882 269.639 C 307.572 270.141,306.234 269.949,305.666 269.322 C 305.269 268.883,305.026 267.652,304.782 264.839 C 304.371 260.119,304.208 259.526,304.208 262.755 C 304.208 269.676,305.165 271.150,308.917 270.005 C 310.154 269.627,312.119 269.243,313.284 269.152 C 314.450 269.060,316.278 268.757,317.346 268.478 C 318.415 268.199,320.035 267.971,320.945 267.971 C 321.856 267.971,323.402 267.764,324.381 267.512 C 325.360 267.259,327.188 266.959,328.443 266.845 C 329.698 266.731,331.752 266.432,333.007 266.180 C 334.262 265.929,336.610 265.566,338.223 265.374 C 339.837 265.182,341.891 264.888,342.787 264.720 C 343.684 264.552,346.104 264.187,348.166 263.908 C 350.228 263.629,352.717 263.292,353.696 263.158 C 356.137 262.825,356.702 261.916,355.904 259.606 L 355.358 258.028 355.533 259.676 M96.928 260.391 C 96.063 261.422,95.198 262.412,95.007 262.592 C 94.815 262.771,94.009 263.725,93.215 264.711 C 92.421 265.697,91.364 266.944,90.866 267.482 C 89.633 268.813,89.471 269.686,89.960 272.364 C 90.404 274.790,90.870 277.832,91.735 283.945 C 92.026 286.007,92.399 288.432,92.563 289.335 C 92.727 290.238,93.100 292.879,93.392 295.203 C 94.254 302.071,94.452 302.330,98.271 301.600 C 99.357 301.393,101.345 301.067,102.689 300.878 C 104.034 300.688,106.161 300.331,107.416 300.085 C 108.672 299.839,110.799 299.551,112.143 299.445 C 113.488 299.340,115.309 299.036,116.189 298.771 C 117.069 298.506,118.536 298.286,119.449 298.284 C 120.362 298.281,121.989 298.073,123.064 297.822 C 124.140 297.571,126.487 297.192,128.279 296.980 C 130.071 296.769,131.758 296.482,132.028 296.343 C 132.298 296.205,133.619 295.990,134.963 295.866 C 136.308 295.742,138.215 295.443,139.201 295.203 C 140.187 294.962,142.168 294.601,143.602 294.400 C 145.037 294.200,147.090 293.749,148.166 293.399 C 149.242 293.049,149.682 292.826,149.144 292.903 C 147.987 293.069,141.708 294.201,138.173 294.881 C 136.800 295.146,134.159 295.587,132.305 295.863 C 127.270 296.611,120.245 297.688,115.240 298.478 C 113.447 298.761,110.587 299.191,108.883 299.433 C 102.371 300.358,98.886 300.920,97.402 301.287 C 95.431 301.773,94.698 301.214,94.406 299.002 C 93.833 294.669,93.179 290.088,92.883 288.346 C 92.700 287.270,92.347 284.923,92.099 283.130 C 91.556 279.209,91.092 276.260,90.425 272.480 C 89.873 269.356,89.936 269.124,91.965 266.830 C 95.821 262.470,99.080 258.517,98.818 258.517 C 98.644 258.517,97.794 259.360,96.928 260.391 " stroke="none" fill="#e8533c" fill-rule="evenodd"></path><path id="path1" d="M183.700 11.410 C 183.376 11.769,182.784 12.062,182.385 12.062 C 181.987 12.062,181.478 12.282,181.255 12.551 C 180.998 12.860,180.279 13.040,179.299 13.040 C 178.319 13.040,177.600 12.860,177.343 12.551 C 176.763 11.852,175.473 11.944,175.061 12.714 C 174.869 13.073,174.387 13.371,173.990 13.376 C 173.593 13.382,172.983 13.602,172.635 13.865 C 171.792 14.503,170.851 14.470,170.077 13.773 C 169.468 13.227,169.421 13.234,168.952 13.936 C 168.678 14.345,168.127 14.670,167.706 14.670 C 167.290 14.670,166.859 14.817,166.748 14.996 C 166.486 15.420,165.281 15.420,165.281 14.996 C 165.281 14.501,164.436 14.607,163.977 15.159 C 163.754 15.428,163.306 15.648,162.983 15.648 C 162.659 15.648,162.174 15.868,161.905 16.137 C 161.284 16.758,160.904 16.754,160.379 16.122 C 160.011 15.679,159.810 15.765,158.717 16.832 C 157.538 17.984,157.443 18.018,156.866 17.496 C 156.295 16.979,156.224 16.985,155.667 17.601 C 155.259 18.051,154.662 18.256,153.755 18.256 C 152.710 18.256,152.210 18.475,151.351 19.307 C 150.384 20.244,150.193 20.311,149.586 19.932 C 148.980 19.553,148.790 19.617,147.871 20.508 C 147.139 21.217,146.394 21.570,145.314 21.718 C 144.459 21.835,143.547 22.195,143.238 22.537 C 142.934 22.872,142.417 23.146,142.088 23.146 C 141.758 23.146,141.068 23.586,140.554 24.124 C 139.644 25.076,138.549 25.432,138.549 24.776 C 138.549 24.281,137.704 24.386,137.245 24.939 C 137.022 25.208,136.496 25.428,136.076 25.428 C 135.646 25.428,135.160 25.713,134.963 26.080 C 134.769 26.443,134.281 26.732,133.861 26.732 C 133.447 26.732,132.843 27.025,132.518 27.384 C 132.194 27.742,131.613 28.036,131.228 28.036 C 130.842 28.036,130.030 28.549,129.421 29.177 C 128.813 29.804,128.000 30.318,127.615 30.318 C 127.230 30.318,126.649 30.611,126.324 30.970 C 126.000 31.328,125.426 31.622,125.050 31.622 C 124.665 31.622,123.947 32.123,123.413 32.763 C 122.862 33.424,122.165 33.904,121.754 33.904 C 121.365 33.904,120.781 34.197,120.456 34.556 C 120.132 34.914,119.552 35.208,119.168 35.208 C 118.783 35.208,117.899 35.793,117.196 36.512 C 116.496 37.229,115.618 37.816,115.245 37.816 C 114.854 37.816,113.814 38.577,112.795 39.609 C 111.822 40.595,110.769 41.402,110.457 41.402 C 110.145 41.402,109.101 42.209,108.138 43.195 C 107.176 44.181,106.114 44.988,105.778 44.988 C 105.440 44.988,103.551 46.584,101.534 48.574 C 99.535 50.546,97.767 52.161,97.605 52.162 C 97.443 52.163,97.059 52.606,96.752 53.145 C 96.445 53.685,95.931 54.226,95.611 54.347 C 95.291 54.468,94.295 55.330,93.399 56.262 C 92.502 57.194,91.469 58.046,91.103 58.155 C 90.137 58.445,85.086 63.723,85.086 64.443 C 85.086 64.779,83.985 66.146,82.641 67.482 C 81.142 68.970,80.196 70.176,80.196 70.596 C 80.196 71.006,79.474 71.960,78.403 72.966 C 77.263 74.036,76.608 74.918,76.606 75.385 C 76.604 75.832,76.093 76.569,75.306 77.262 C 74.592 77.889,74.007 78.703,74.005 79.070 C 74.003 79.438,73.493 80.244,72.871 80.863 C 72.249 81.482,71.736 82.296,71.730 82.672 C 71.724 83.047,71.426 83.620,71.068 83.945 C 70.709 84.269,70.416 84.843,70.416 85.220 C 70.416 85.597,69.902 86.376,69.275 86.952 C 68.555 87.613,68.134 88.300,68.134 88.813 C 68.134 89.293,67.866 89.770,67.482 89.976 C 67.119 90.170,66.830 90.658,66.830 91.077 C 66.830 91.492,66.536 92.096,66.178 92.421 C 65.819 92.745,65.526 93.337,65.526 93.735 C 65.526 94.134,65.306 94.642,65.037 94.866 C 64.768 95.089,64.548 95.619,64.548 96.044 C 64.548 96.468,64.254 96.999,63.896 97.223 C 63.537 97.447,63.244 97.939,63.244 98.316 C 63.244 98.694,62.950 99.268,62.592 99.593 C 62.233 99.917,61.940 100.501,61.940 100.890 C 61.940 101.601,60.716 103.015,60.101 103.015 C 59.549 103.015,58.354 101.547,58.354 100.869 C 58.354 100.498,57.061 98.945,55.257 97.148 C 53.350 95.248,52.160 93.806,52.160 93.393 C 52.160 92.962,50.379 90.954,47.167 87.763 C 42.566 83.193,41.402 82.258,41.402 83.130 C 41.402 83.800,40.187 83.421,39.271 82.466 C 37.909 81.044,33.156 81.082,32.990 82.516 C 32.868 83.565,28.997 84.147,28.010 83.264 C 27.088 82.439,24.945 82.686,23.779 83.751 C 22.425 84.988,20.362 85.268,19.343 84.354 C 18.643 83.725,18.635 83.726,18.272 84.403 C 18.063 84.793,17.585 85.086,17.154 85.086 C 16.740 85.086,16.135 85.379,15.811 85.738 C 15.486 86.096,14.922 86.390,14.556 86.390 C 13.664 86.390,12.062 87.967,12.062 88.845 C 12.062 89.232,11.769 89.814,11.410 90.139 C 10.481 90.980,10.413 99.813,11.328 100.822 C 11.799 101.341,11.918 102.216,12.005 105.792 C 12.098 109.579,12.191 110.203,12.739 110.699 C 13.275 111.185,13.366 111.722,13.366 114.425 C 13.366 117.170,13.451 117.662,14.018 118.174 C 14.596 118.698,14.670 119.178,14.670 122.423 C 14.670 125.277,14.777 126.171,15.159 126.487 C 15.543 126.806,15.648 127.720,15.648 130.754 C 15.648 134.281,15.704 134.645,16.300 134.963 C 16.884 135.276,16.952 135.646,16.952 138.510 C 16.952 141.294,17.036 141.785,17.604 142.298 C 18.185 142.824,18.256 143.302,18.256 146.699 C 18.256 150.096,18.327 150.574,18.908 151.100 C 19.486 151.624,19.560 152.104,19.560 155.349 C 19.560 158.203,19.667 159.097,20.049 159.413 C 20.422 159.723,20.538 160.569,20.538 162.989 C 20.538 165.744,20.623 166.235,21.190 166.748 C 21.696 167.207,21.842 167.752,21.842 169.193 C 21.842 170.634,21.987 171.180,22.494 171.638 C 22.852 171.963,23.146 172.540,23.146 172.920 C 23.146 173.663,24.876 175.387,25.622 175.387 C 25.871 175.387,26.258 175.681,26.482 176.039 C 26.705 176.398,27.056 176.691,27.259 176.691 C 27.463 176.691,27.813 176.911,28.036 177.180 C 28.609 177.871,38.194 177.902,38.764 177.216 C 39.025 176.901,40.357 176.689,43.105 176.524 C 45.766 176.364,47.218 176.138,47.519 175.836 C 49.060 174.295,49.878 175.815,49.878 180.220 C 49.878 183.027,49.951 183.426,50.530 183.787 C 51.122 184.157,51.182 184.548,51.182 188.064 C 51.182 191.106,51.286 192.020,51.671 192.339 C 52.028 192.636,52.160 193.422,52.160 195.262 C 52.160 197.366,52.267 197.877,52.812 198.370 C 53.318 198.828,53.464 199.374,53.464 200.815 C 53.464 202.256,53.609 202.802,54.116 203.260 C 54.623 203.719,54.768 204.264,54.768 205.716 C 54.768 206.976,54.926 207.713,55.257 207.987 C 55.554 208.234,55.746 208.948,55.746 209.808 C 55.746 210.890,55.899 211.306,56.398 211.573 C 56.895 211.839,57.050 212.256,57.050 213.327 C 57.050 214.318,57.242 214.906,57.702 215.322 C 58.060 215.646,58.354 216.233,58.354 216.626 C 58.354 217.019,58.647 217.605,59.006 217.930 C 59.435 218.319,59.658 218.934,59.658 219.734 C 59.658 220.415,59.872 221.125,60.147 221.353 C 60.416 221.576,60.636 222.085,60.636 222.483 C 60.636 222.882,60.929 223.473,61.288 223.798 C 61.748 224.214,61.940 224.802,61.940 225.793 C 61.940 226.864,62.095 227.281,62.592 227.547 C 62.955 227.741,63.244 228.229,63.244 228.649 C 63.244 229.063,63.537 229.667,63.896 229.992 C 64.254 230.316,64.548 230.908,64.548 231.306 C 64.548 231.705,64.768 232.214,65.037 232.437 C 65.306 232.660,65.526 233.169,65.526 233.567 C 65.526 233.966,65.819 234.557,66.178 234.882 C 66.536 235.206,66.830 235.781,66.830 236.158 C 66.830 236.535,67.123 237.027,67.482 237.251 C 67.840 237.475,68.134 238.006,68.134 238.431 C 68.134 238.855,68.354 239.386,68.623 239.609 C 68.892 239.832,69.114 240.327,69.117 240.708 C 69.120 241.090,69.707 241.978,70.421 242.682 C 71.184 243.434,71.720 244.269,71.720 244.708 C 71.720 245.120,72.011 245.610,72.372 245.803 C 72.756 246.009,73.024 246.485,73.024 246.965 C 73.024 247.478,73.445 248.166,74.165 248.826 C 74.792 249.402,75.306 250.175,75.306 250.544 C 75.306 251.384,75.898 251.997,76.710 251.997 C 77.546 251.997,78.879 253.303,78.886 254.128 C 78.889 254.493,79.625 255.515,80.522 256.398 C 82.418 258.265,82.499 258.714,81.174 259.984 C 80.636 260.499,80.196 261.255,80.196 261.663 C 80.196 262.072,79.903 262.563,79.544 262.755 C 79.045 263.021,78.892 263.437,78.892 264.519 C 78.892 265.380,78.700 266.094,78.403 266.341 C 77.670 266.949,77.670 284.433,78.403 284.714 C 78.792 284.864,78.892 285.561,78.892 288.122 C 78.892 290.927,78.975 291.417,79.544 291.932 C 80.124 292.457,80.196 292.936,80.196 296.305 C 80.196 299.735,80.256 300.126,80.848 300.495 C 81.343 300.805,81.500 301.255,81.500 302.376 C 81.500 303.386,81.654 303.910,81.989 304.039 C 82.258 304.142,82.478 304.579,82.478 305.010 C 82.478 305.440,82.771 306.044,83.130 306.351 C 83.488 306.658,83.782 307.207,83.783 307.570 C 83.786 308.860,85.610 310.350,87.186 310.350 C 88.144 310.350,88.663 310.509,88.789 310.839 C 88.893 311.108,89.326 311.328,89.752 311.328 C 90.178 311.328,90.792 311.622,91.117 311.980 C 91.768 312.700,105.623 313.026,105.623 312.322 C 105.623 311.767,108.001 311.332,111.044 311.330 C 113.290 311.329,114.119 311.208,114.425 310.839 C 114.742 310.458,115.635 310.350,118.490 310.350 C 121.734 310.350,122.215 310.277,122.738 309.698 C 123.251 309.132,123.742 309.046,126.487 309.046 C 129.232 309.046,129.724 308.961,130.236 308.394 C 130.759 307.816,131.240 307.742,134.474 307.742 C 137.543 307.742,138.205 307.651,138.642 307.168 C 139.484 306.237,149.924 306.443,150.570 307.403 C 150.839 307.804,151.374 308.068,151.915 308.068 C 152.409 308.068,152.996 308.289,153.219 308.557 C 153.463 308.851,154.176 309.046,155.002 309.046 C 155.964 309.046,156.556 309.243,156.968 309.698 C 157.357 310.128,157.972 310.350,158.772 310.350 C 159.453 310.350,160.163 310.565,160.391 310.839 C 160.668 311.173,161.408 311.328,162.716 311.328 C 164.232 311.328,164.753 311.465,165.194 311.980 C 165.661 312.527,166.155 312.632,168.237 312.632 C 170.268 312.632,170.825 312.746,171.285 313.255 C 171.751 313.769,172.403 313.896,175.051 313.988 C 177.534 314.074,178.396 314.228,178.884 314.670 C 179.430 315.165,180.228 315.240,184.925 315.240 C 189.301 315.240,190.430 315.334,190.825 315.729 C 191.558 316.462,213.332 316.462,214.065 315.729 C 214.455 315.339,215.517 315.240,219.313 315.240 C 223.110 315.240,224.183 315.140,224.619 314.746 C 224.990 314.410,226.199 314.187,228.394 314.051 C 230.302 313.932,231.823 313.676,232.114 313.425 C 232.384 313.191,233.778 312.898,235.211 312.774 C 236.703 312.645,238.045 312.349,238.353 312.081 C 238.648 311.824,239.748 311.528,240.798 311.424 C 241.847 311.319,242.995 311.034,243.349 310.792 C 243.702 310.549,244.743 310.350,245.662 310.350 C 246.918 310.350,247.478 310.189,247.922 309.698 C 248.333 309.244,248.926 309.046,249.878 309.046 C 250.830 309.046,251.423 308.849,251.834 308.394 C 252.221 307.967,252.838 307.742,253.627 307.742 C 254.416 307.742,255.033 307.518,255.420 307.090 C 255.744 306.732,256.317 306.434,256.693 306.428 C 257.068 306.422,257.660 306.202,258.009 305.939 C 258.357 305.676,259.104 305.460,259.669 305.460 C 260.284 305.460,260.935 305.198,261.288 304.808 C 261.612 304.450,262.199 304.156,262.592 304.156 C 262.984 304.156,263.571 303.863,263.896 303.504 C 264.220 303.146,264.807 302.852,265.200 302.852 C 265.592 302.852,266.179 302.559,266.504 302.200 C 266.892 301.771,267.508 301.548,268.307 301.548 C 268.988 301.548,269.699 301.334,269.927 301.059 C 270.150 300.791,270.659 300.570,271.057 300.570 C 271.456 300.570,272.047 300.277,272.372 299.919 C 272.696 299.560,273.283 299.267,273.676 299.267 C 274.068 299.267,274.655 298.973,274.980 298.615 C 275.304 298.256,275.839 297.963,276.168 297.963 C 276.498 297.963,277.177 297.533,277.679 297.008 C 278.181 296.483,278.978 295.956,279.451 295.838 C 279.924 295.719,280.564 295.342,280.874 294.999 C 281.184 294.657,281.727 294.377,282.081 294.377 C 282.435 294.377,283.293 293.863,283.988 293.236 C 284.682 292.608,285.477 292.095,285.755 292.095 C 286.032 292.095,286.788 291.581,287.434 290.954 C 288.080 290.326,288.868 289.813,289.185 289.813 C 289.503 289.813,290.338 289.226,291.041 288.509 C 291.744 287.791,292.603 287.205,292.951 287.205 C 293.299 287.205,294.381 286.398,295.355 285.412 C 296.330 284.424,297.423 283.615,297.788 283.611 C 298.153 283.607,299.246 282.809,300.217 281.838 C 301.566 280.489,302.294 280.019,303.302 279.849 C 304.027 279.726,304.879 279.464,305.195 279.267 C 305.650 278.983,305.863 279.034,306.213 279.513 C 306.850 280.385,321.339 280.175,322.233 279.281 C 322.673 278.841,323.403 278.729,325.819 278.729 C 327.977 278.729,328.959 278.601,329.220 278.286 C 329.471 277.983,330.854 277.769,333.580 277.610 C 336.065 277.465,337.756 277.217,338.060 276.955 C 338.361 276.695,339.988 276.450,342.283 276.317 C 344.664 276.179,346.200 275.942,346.521 275.663 C 346.824 275.400,348.329 275.133,350.282 274.995 C 352.087 274.868,353.639 274.603,353.764 274.401 C 353.888 274.200,354.945 273.975,356.114 273.900 C 357.660 273.802,358.389 273.597,358.795 273.150 C 359.101 272.811,359.660 272.535,360.037 272.535 C 360.415 272.535,360.907 272.241,361.131 271.883 C 361.354 271.524,361.872 271.231,362.281 271.231 C 363.259 271.231,366.096 268.367,366.096 267.379 C 366.096 266.976,366.316 266.562,366.585 266.459 C 366.862 266.352,367.074 265.867,367.074 265.339 C 367.074 264.741,367.308 264.283,367.726 264.059 C 368.344 263.728,368.378 263.376,368.378 257.415 C 368.378 251.534,368.335 251.081,367.726 250.530 C 365.959 248.930,367.511 246.116,370.334 245.803 C 371.632 245.659,371.813 245.539,371.902 244.771 C 372.020 243.747,372.733 243.364,373.284 244.029 C 373.857 244.719,375.322 244.613,375.800 243.847 C 376.024 243.488,376.555 243.195,376.980 243.195 C 377.405 243.195,377.935 242.975,378.158 242.706 C 378.381 242.437,378.863 242.217,379.228 242.217 C 380.054 242.217,383.048 239.198,383.048 238.365 C 383.048 238.029,383.341 237.488,383.700 237.164 C 384.059 236.839,384.352 236.225,384.352 235.799 C 384.352 235.373,384.572 234.940,384.841 234.837 C 385.253 234.679,385.330 233.632,385.330 228.204 C 385.330 222.873,385.246 221.689,384.841 221.353 C 384.459 221.036,384.352 220.137,384.352 217.235 C 384.352 213.926,384.281 213.462,383.700 212.964 C 383.132 212.478,383.048 212.003,383.048 209.269 C 383.048 206.546,382.962 206.054,382.396 205.542 C 381.830 205.030,381.744 204.538,381.744 201.815 C 381.744 199.081,381.660 198.606,381.092 198.120 C 380.577 197.679,380.440 197.158,380.440 195.642 C 380.440 194.334,380.284 193.594,379.951 193.317 C 379.682 193.094,379.462 192.585,379.462 192.187 C 379.462 191.788,379.169 191.197,378.810 190.872 C 378.452 190.548,378.158 190.025,378.158 189.710 C 378.158 188.819,372.734 183.537,371.819 183.537 C 371.399 183.537,370.971 183.317,370.868 183.048 C 370.728 182.683,370.145 182.559,368.563 182.559 C 366.779 182.559,366.390 182.456,366.096 181.907 C 365.580 180.943,361.905 180.954,361.029 181.923 C 360.572 182.428,360.103 182.567,359.104 182.493 L 357.783 182.396 357.685 180.883 C 357.621 179.891,357.369 179.173,356.952 178.795 C 356.347 178.248,356.316 177.718,356.316 167.946 C 356.316 158.618,356.264 157.614,355.746 157.042 C 355.248 156.493,355.162 155.533,355.069 149.532 C 354.972 143.177,354.916 142.618,354.336 142.212 C 353.789 141.829,353.708 141.361,353.708 138.571 C 353.708 136.087,353.596 135.276,353.207 134.953 C 352.815 134.628,352.726 133.959,352.799 131.898 L 352.893 129.258 356.248 129.095 C 358.279 128.997,359.694 128.783,359.835 128.553 C 359.977 128.322,361.594 128.084,363.979 127.943 C 366.659 127.784,368.060 127.562,368.432 127.237 C 368.766 126.945,369.958 126.702,371.524 126.607 C 373.047 126.514,374.274 126.268,374.575 125.996 C 374.852 125.745,375.680 125.444,376.416 125.326 C 377.537 125.147,378.193 124.671,380.464 122.389 L 383.173 119.665 383.119 113.087 C 383.072 107.354,382.992 106.428,382.500 105.884 C 382.071 105.410,381.904 104.505,381.803 102.101 C 381.695 99.541,381.553 98.830,381.055 98.357 C 380.523 97.853,380.440 97.276,380.440 94.078 C 380.440 91.190,380.333 90.293,379.951 89.976 C 379.567 89.657,379.462 88.743,379.462 85.709 C 379.462 82.182,379.406 81.818,378.810 81.500 C 378.226 81.187,378.158 80.817,378.158 77.953 C 378.158 75.169,378.074 74.678,377.506 74.165 C 376.924 73.638,376.854 73.161,376.854 69.703 C 376.854 66.562,376.762 65.796,376.365 65.644 C 375.969 65.492,375.876 64.736,375.876 61.686 C 375.876 58.553,375.780 57.810,375.306 57.286 C 374.863 56.798,374.710 55.934,374.623 53.425 C 374.527 50.648,374.423 50.147,373.889 49.861 C 373.354 49.575,373.268 49.150,373.268 46.772 C 373.268 44.368,373.185 43.963,372.616 43.608 C 372.144 43.313,371.961 42.840,371.954 41.894 C 371.948 41.175,371.728 40.302,371.465 39.954 C 371.202 39.606,370.986 39.087,370.986 38.801 C 370.986 38.109,368.105 35.340,367.074 35.041 C 366.626 34.911,366.003 34.580,365.691 34.305 C 365.327 33.986,364.210 33.750,362.594 33.651 C 361.203 33.566,359.879 33.348,359.652 33.166 C 359.361 32.934,359.062 32.995,358.648 33.370 C 358.251 33.729,357.467 33.904,356.249 33.904 C 355.039 33.904,354.306 34.066,354.034 34.393 C 353.541 34.987,351.986 35.030,351.078 34.474 C 350.516 34.130,350.361 34.156,350.088 34.637 C 349.858 35.043,349.356 35.208,348.353 35.208 C 347.497 35.208,346.783 35.400,346.536 35.697 C 346.009 36.332,344.450 36.326,343.919 35.686 C 343.550 35.242,343.426 35.260,342.799 35.849 C 342.265 36.350,341.654 36.512,340.290 36.512 C 338.901 36.512,338.352 36.662,337.897 37.164 C 337.573 37.522,336.983 37.816,336.587 37.816 C 335.710 37.816,332.844 40.769,332.844 41.674 C 332.844 42.018,332.624 42.483,332.355 42.706 C 331.795 43.171,331.677 45.810,332.201 46.134 C 332.575 46.365,334.499 44.469,334.197 44.167 C 334.091 44.062,334.257 44.072,334.566 44.190 C 334.941 44.335,335.126 44.245,335.126 43.920 C 335.126 43.320,335.976 43.077,337.438 43.257 C 339.438 43.505,343.651 43.392,344.697 43.063 C 345.260 42.886,346.528 42.656,347.514 42.552 C 350.285 42.259,351.786 42.046,353.382 41.720 C 361.159 40.132,362.310 40.455,362.632 44.310 C 362.752 45.757,362.988 47.300,363.154 47.738 C 363.321 48.177,363.553 49.681,363.669 51.081 C 363.785 52.481,364.073 54.434,364.309 55.420 C 364.545 56.406,364.831 58.313,364.945 59.658 C 365.059 61.002,365.358 63.130,365.609 64.385 C 365.860 65.640,366.222 67.840,366.412 69.275 C 367.192 75.164,367.439 76.857,367.765 78.566 C 367.954 79.552,368.299 81.914,368.532 83.815 C 368.765 85.716,369.048 87.563,369.161 87.918 C 369.274 88.274,369.583 90.239,369.848 92.285 C 370.113 94.332,370.483 96.960,370.670 98.126 C 371.446 102.970,371.690 104.613,371.997 107.090 C 372.175 108.525,372.533 110.725,372.792 111.980 C 374.326 119.401,374.631 119.032,365.933 120.302 C 364.678 120.485,362.771 120.780,361.695 120.956 C 360.619 121.133,358.143 121.494,356.192 121.759 C 354.241 122.024,352.436 122.414,352.180 122.626 C 351.925 122.838,350.575 123.077,349.181 123.158 L 346.646 123.305 345.885 122.044 C 345.279 121.038,345.097 120.187,344.990 117.848 C 344.901 115.894,344.647 114.453,344.229 113.532 C 343.769 112.518,343.602 111.417,343.602 109.392 C 343.602 107.340,343.483 106.567,343.136 106.373 C 342.880 106.230,342.667 106.001,342.662 105.865 C 342.657 105.729,342.564 105.143,342.456 104.561 C 342.347 103.980,342.231 101.671,342.197 99.430 L 342.135 95.355 340.694 95.252 C 339.901 95.195,338.288 95.369,337.108 95.639 C 335.928 95.908,333.496 96.217,331.703 96.324 C 317.742 97.158,318.896 96.155,320.441 106.112 C 320.774 108.264,321.364 112.152,321.750 114.751 C 322.137 117.351,322.664 120.652,322.922 122.086 C 323.180 123.521,323.391 124.801,323.391 124.931 C 323.390 125.568,321.576 126.171,318.174 126.666 C 313.524 127.342,312.872 127.657,312.333 129.481 C 311.918 130.888,310.737 133.726,309.033 137.408 C 308.535 138.484,306.340 143.252,304.156 148.003 C 301.972 152.755,299.772 157.522,299.268 158.598 C 296.708 164.066,295.539 166.578,294.830 168.134 C 293.037 172.070,292.260 173.755,290.883 176.691 C 288.877 180.971,288.101 182.636,286.707 185.656 C 283.175 193.308,281.443 196.952,279.150 201.554 C 277.125 205.617,277.197 205.801,280.461 204.920 C 281.570 204.620,283.725 204.241,285.249 204.077 C 286.773 203.913,288.493 203.637,289.071 203.463 C 289.649 203.289,291.458 203.043,293.091 202.915 C 296.563 202.643,296.632 202.568,296.011 199.704 C 295.775 198.612,295.400 196.398,295.178 194.784 C 294.957 193.170,294.619 190.970,294.428 189.894 C 293.977 187.360,293.344 183.102,293.154 181.319 C 292.974 179.636,293.679 178.647,295.058 178.647 C 295.556 178.647,296.964 178.438,298.186 178.183 C 299.408 177.928,301.508 177.619,302.852 177.497 C 304.197 177.375,305.958 177.135,306.764 176.963 C 307.571 176.791,309.845 176.442,311.817 176.187 C 313.790 175.931,316.430 175.569,317.685 175.381 C 322.211 174.706,324.590 174.368,327.954 173.923 C 329.837 173.674,332.037 173.329,332.844 173.157 C 333.651 172.984,335.338 172.741,336.593 172.616 C 337.848 172.491,339.365 172.185,339.964 171.936 C 341.994 171.093,342.765 172.024,343.094 175.713 C 343.214 177.058,343.512 179.038,343.757 180.114 C 344.001 181.190,344.300 183.097,344.421 184.352 C 344.542 185.607,344.847 187.435,345.099 188.414 C 345.352 189.393,345.558 190.814,345.558 191.571 C 345.558 192.329,345.707 193.340,345.889 193.818 L 346.220 194.688 348.897 194.451 C 350.369 194.321,352.164 194.004,352.885 193.747 C 353.607 193.491,355.444 193.196,356.968 193.092 C 358.492 192.988,359.892 192.783,360.078 192.638 C 360.590 192.238,364.771 191.636,365.479 191.861 C 366.560 192.204,367.298 194.498,367.522 198.207 C 367.635 200.090,367.948 202.432,368.216 203.413 C 368.485 204.393,368.704 206.025,368.704 207.039 C 368.704 208.053,368.909 209.464,369.159 210.173 C 369.410 210.883,369.714 212.771,369.836 214.371 C 369.957 215.970,370.253 217.938,370.493 218.745 C 370.733 219.552,371.017 221.385,371.125 222.820 C 371.232 224.254,371.538 226.148,371.805 227.028 C 373.080 231.233,372.263 234.067,369.777 234.067 C 369.192 234.067,368.088 234.208,367.323 234.381 C 366.091 234.660,361.142 235.273,355.082 235.898 C 353.675 236.043,352.943 236.277,352.747 236.644 C 352.440 237.218,352.883 241.701,353.410 243.358 C 353.581 243.896,353.877 245.803,354.067 247.596 C 354.256 249.389,354.620 251.579,354.875 252.463 C 355.130 253.348,355.345 254.888,355.353 255.886 C 355.360 256.885,355.578 258.289,355.837 259.006 C 356.925 262.026,356.220 262.972,352.567 263.390 C 347.872 263.927,344.459 264.409,341.972 264.886 C 340.628 265.144,338.207 265.497,336.593 265.670 C 334.980 265.843,333.208 266.121,332.656 266.287 C 332.104 266.453,330.429 266.697,328.932 266.830 C 327.436 266.962,325.760 267.202,325.209 267.364 C 324.657 267.525,322.812 267.802,321.108 267.981 C 319.405 268.159,317.554 268.454,316.995 268.638 C 316.435 268.821,314.748 269.102,313.246 269.263 C 311.743 269.424,309.615 269.814,308.516 270.131 C 305.381 271.035,305.032 270.671,304.338 265.788 C 303.447 259.514,303.221 257.806,303.013 255.746 C 302.808 253.719,301.653 245.894,301.360 244.547 C 301.173 243.687,301.676 243.682,295.158 244.616 C 293.167 244.901,291.333 245.212,291.083 245.307 C 290.832 245.402,289.014 245.700,287.042 245.969 C 281.962 246.661,279.320 247.065,275.958 247.664 C 274.344 247.951,272.070 248.291,270.905 248.419 C 268.720 248.659,263.182 249.519,260.310 250.065 C 259.413 250.235,257.027 250.586,255.007 250.844 C 252.986 251.102,251.208 251.391,251.054 251.486 C 250.900 251.581,249.326 251.815,247.555 252.006 C 245.784 252.196,243.896 252.491,243.358 252.660 C 242.820 252.829,240.913 253.117,239.120 253.301 C 237.327 253.484,235.420 253.776,234.882 253.949 C 234.344 254.122,232.657 254.405,231.133 254.578 C 229.609 254.751,227.212 255.132,225.807 255.425 C 222.047 256.208,221.263 255.328,220.852 249.863 C 220.732 248.258,220.447 246.357,220.219 245.640 C 219.992 244.923,219.705 243.236,219.581 241.891 C 219.458 240.546,219.146 238.722,218.888 237.838 C 218.630 236.954,218.419 235.661,218.419 234.965 C 218.419 233.581,217.348 228.244,216.603 225.917 C 216.345 225.110,216.132 224.010,216.130 223.472 C 216.118 219.771,215.270 221.928,214.830 226.782 C 214.492 230.501,213.932 235.147,213.669 236.408 C 213.345 237.962,212.883 238.088,206.575 238.332 C 203.317 238.458,199.078 238.731,197.154 238.939 C 193.781 239.304,186.779 239.229,182.722 238.785 C 179.763 238.462,178.795 237.375,179.777 235.479 C 180.039 234.971,180.565 233.529,180.946 232.274 C 181.326 231.019,181.828 229.772,182.062 229.503 C 182.295 229.234,182.593 228.512,182.724 227.898 C 182.855 227.284,183.594 225.796,184.366 224.591 C 186.757 220.862,187.545 219.071,186.797 219.071 C 186.618 219.071,186.471 219.364,186.471 219.723 C 186.471 220.102,186.254 220.375,185.952 220.375 C 185.666 220.375,185.355 220.668,185.262 221.027 C 185.168 221.385,184.888 221.679,184.640 221.679 C 184.392 221.679,184.189 221.817,184.189 221.985 C 184.189 222.153,183.736 222.776,183.182 223.370 C 182.628 223.964,181.934 224.817,181.641 225.265 C 181.348 225.713,180.921 226.197,180.692 226.341 C 180.464 226.484,180.277 226.760,180.277 226.954 C 180.277 227.148,179.764 227.791,179.136 228.383 C 178.509 228.975,177.995 229.608,177.995 229.791 C 177.995 229.973,177.788 230.240,177.536 230.383 C 177.283 230.527,176.366 231.530,175.498 232.614 C 173.808 234.724,173.236 235.408,172.432 236.283 C 172.152 236.588,170.978 238.010,169.824 239.443 C 168.670 240.875,167.506 242.281,167.237 242.568 C 166.422 243.436,163.319 247.027,162.649 247.878 C 161.250 249.657,161.857 249.712,168.704 248.431 C 171.877 247.837,178.276 246.780,182.559 246.143 C 185.836 245.655,188.980 245.164,192.013 244.665 C 193.537 244.415,196.838 243.898,199.348 243.516 C 201.858 243.135,205.400 242.540,207.219 242.194 C 209.038 241.848,210.770 241.565,211.068 241.565 C 212.069 241.565,212.841 244.083,213.075 248.111 C 213.194 250.159,213.427 252.096,213.591 252.416 C 213.756 252.737,214.029 254.689,214.197 256.754 C 214.365 258.819,214.646 260.775,214.820 261.100 C 214.994 261.426,215.225 262.921,215.334 264.424 C 215.443 265.926,215.735 268.183,215.983 269.438 C 216.231 270.693,216.584 273.040,216.767 274.654 C 216.949 276.267,217.270 278.411,217.479 279.418 C 218.310 283.411,218.624 283.252,206.897 284.767 C 204.952 285.019,203.119 285.300,202.822 285.393 C 202.525 285.486,200.668 285.783,198.696 286.055 C 196.724 286.326,193.130 286.846,190.709 287.212 C 188.289 287.577,185.281 288.014,184.026 288.183 C 182.771 288.352,180.350 288.711,178.647 288.981 C 172.802 289.908,168.700 290.534,165.607 290.973 C 163.904 291.214,160.913 291.638,158.961 291.913 C 157.009 292.189,155.238 292.560,155.025 292.736 C 154.812 292.913,153.548 293.140,152.217 293.242 C 149.642 293.439,143.466 294.406,139.690 295.203 C 138.435 295.468,136.455 295.774,135.289 295.881 C 134.124 295.989,132.437 296.269,131.540 296.503 C 130.644 296.737,128.902 297.021,127.669 297.133 C 126.437 297.245,124.530 297.549,123.431 297.808 C 122.333 298.067,120.722 298.281,119.851 298.284 C 118.981 298.286,117.405 298.512,116.350 298.786 C 115.295 299.059,113.074 299.413,111.413 299.573 C 109.753 299.732,108.028 300.004,107.579 300.176 C 107.131 300.349,105.518 300.594,103.993 300.720 C 102.469 300.847,100.499 301.158,99.615 301.412 C 95.108 302.708,94.181 302.051,93.595 297.148 C 93.381 295.355,92.928 292.054,92.589 289.813 C 92.249 287.571,91.655 283.610,91.269 281.011 C 90.882 278.411,90.359 275.204,90.108 273.885 C 89.357 269.956,89.470 269.001,90.877 267.393 C 91.546 266.628,92.535 265.477,93.073 264.835 C 93.610 264.194,94.466 263.207,94.975 262.642 C 95.483 262.076,96.583 260.752,97.420 259.699 C 98.256 258.647,99.674 256.944,100.570 255.917 C 102.055 254.215,106.618 248.450,124.694 225.439 C 128.101 221.103,131.182 217.140,131.540 216.633 C 131.899 216.126,132.412 215.476,132.681 215.189 C 132.950 214.901,133.886 213.724,134.760 212.572 C 135.635 211.421,136.479 210.322,136.636 210.129 C 136.794 209.937,137.578 208.900,138.379 207.824 C 139.180 206.748,139.970 205.707,140.136 205.511 C 140.301 205.315,140.676 204.728,140.970 204.207 C 141.263 203.686,141.784 202.820,142.126 202.282 C 143.175 200.635,144.417 197.954,144.419 197.331 C 144.420 197.006,144.663 196.300,144.959 195.762 C 145.773 194.283,145.794 186.315,144.988 185.176 C 144.674 184.733,144.417 184.076,144.417 183.716 C 144.417 182.779,140.785 179.482,139.287 179.058 C 133.422 177.399,126.058 178.473,121.206 181.694 C 120.219 182.349,119.267 182.885,119.090 182.885 C 118.780 182.885,117.515 184.113,114.776 187.072 C 114.056 187.851,113.082 189.318,112.612 190.332 C 109.748 196.519,111.312 196.362,97.913 191.806 C 91.844 189.742,86.438 187.936,85.901 187.794 C 84.812 187.505,71.692 183.153,69.519 182.359 C 67.898 181.767,67.483 180.806,68.241 179.401 C 68.513 178.897,69.024 177.824,69.376 177.017 C 70.788 173.785,72.119 171.216,73.346 169.356 C 74.055 168.280,74.841 166.960,75.092 166.422 C 75.528 165.489,76.417 164.400,80.948 159.250 C 85.749 153.793,93.945 147.355,97.889 145.943 C 99.097 145.510,99.086 144.474,97.797 137.228 C 97.619 136.232,97.262 133.804,97.001 131.832 C 96.098 124.983,95.546 124.897,93.072 131.214 C 92.580 132.469,91.983 133.936,91.745 134.474 C 91.506 135.012,90.639 137.139,89.816 139.201 C 88.994 141.263,88.122 143.390,87.878 143.928 C 87.634 144.466,87.140 145.640,86.780 146.536 C 83.129 155.631,83.735 155.000,77.856 155.841 C 75.467 156.183,73.209 156.536,72.838 156.625 C 72.095 156.805,71.172 155.935,67.319 151.426 C 66.094 149.992,63.592 147.205,61.759 145.232 C 59.927 143.260,58.008 141.133,57.496 140.505 C 56.984 139.878,56.407 139.218,56.215 139.038 C 55.941 138.783,53.373 135.639,52.909 134.990 C 52.161 133.946,52.342 138.810,53.135 141.066 C 53.471 142.022,53.851 143.998,53.978 145.457 C 54.105 146.915,54.407 148.488,54.649 148.952 C 54.921 149.473,55.090 150.894,55.092 152.665 C 55.093 154.607,55.256 155.847,55.596 156.504 C 55.906 157.104,56.211 159.062,56.393 161.623 C 56.817 167.577,56.582 167.833,50.367 168.203 C 48.182 168.333,46.251 168.528,46.076 168.636 C 45.901 168.744,44.154 168.995,42.194 169.193 C 40.234 169.391,38.002 169.766,37.234 170.025 C 32.980 171.462,31.806 170.399,31.267 164.624 C 31.079 162.614,30.779 160.584,30.600 160.114 C 30.422 159.643,30.199 158.010,30.106 156.483 C 30.014 154.957,29.731 153.063,29.479 152.275 C 29.227 151.487,28.931 149.654,28.820 148.201 C 28.709 146.747,28.425 144.825,28.190 143.928 C 27.954 143.032,27.663 141.054,27.544 139.533 C 27.424 138.012,27.182 136.499,27.006 136.170 C 26.830 135.841,26.554 134.151,26.394 132.415 C 26.233 130.679,25.880 128.305,25.608 127.139 C 25.337 125.974,25.111 124.287,25.105 123.390 C 25.099 122.494,24.888 121.078,24.635 120.244 C 24.381 119.410,24.076 117.503,23.955 116.006 C 23.834 114.509,23.530 112.561,23.278 111.677 C 23.026 110.793,22.818 109.326,22.816 108.417 C 22.814 107.508,22.522 105.591,22.168 104.156 C 21.814 102.722,21.522 100.731,21.520 99.732 C 21.518 98.733,21.287 97.243,21.007 96.421 C 19.666 92.487,21.067 91.008,26.172 90.972 C 27.704 90.961,29.189 90.751,29.921 90.442 C 30.587 90.161,32.453 89.849,34.067 89.749 C 35.987 89.630,37.339 89.371,37.979 88.998 C 40.453 87.558,43.845 87.856,44.162 89.542 C 44.277 90.158,44.584 90.743,44.843 90.843 C 45.102 90.942,45.314 91.228,45.314 91.477 C 45.314 91.727,45.533 91.932,45.800 91.932 C 46.067 91.932,46.469 92.225,46.693 92.584 C 46.917 92.942,47.285 93.236,47.511 93.236 C 47.737 93.236,47.922 93.460,47.922 93.735 C 47.922 94.009,48.135 94.316,48.396 94.416 C 48.963 94.634,50.204 96.653,50.204 97.360 C 50.204 97.635,50.497 97.937,50.856 98.031 C 51.217 98.125,51.508 98.476,51.508 98.816 C 51.508 99.212,51.739 99.430,52.160 99.430 C 52.518 99.430,52.812 99.570,52.812 99.741 C 52.812 100.116,54.365 101.711,54.730 101.711 C 54.873 101.711,55.156 102.078,55.360 102.526 C 55.565 102.975,55.882 103.341,56.065 103.341 C 56.248 103.341,56.398 103.782,56.398 104.319 C 56.398 104.997,56.557 105.297,56.917 105.297 C 57.203 105.297,57.513 105.591,57.607 105.949 C 57.701 106.308,57.930 106.601,58.115 106.601 C 58.599 106.601,60.928 109.195,61.481 110.350 C 62.174 111.798,62.705 112.601,63.162 112.893 C 63.386 113.037,63.570 113.286,63.570 113.447 C 63.570 113.608,63.952 114.151,64.419 114.653 C 64.886 115.155,66.342 117.180,67.654 119.152 C 70.256 123.065,72.083 125.332,73.051 125.850 C 73.788 126.244,74.716 124.434,77.737 116.707 C 78.404 115.004,79.303 112.784,79.736 111.775 C 80.169 110.765,81.040 108.638,81.671 107.048 C 82.303 105.457,82.958 103.863,83.128 103.504 C 83.297 103.146,84.105 101.165,84.923 99.104 C 85.740 97.042,86.548 95.061,86.718 94.703 C 86.887 94.344,87.991 91.630,89.171 88.672 C 91.864 81.923,91.783 82.006,96.333 81.369 C 98.305 81.093,101.972 80.548,104.482 80.159 C 106.993 79.770,109.927 79.435,111.002 79.416 L 112.958 79.381 113.326 81.011 C 113.528 81.907,114.012 84.768,114.401 87.368 C 115.310 93.434,116.274 99.744,116.893 103.667 C 118.151 111.640,120.811 129.180,121.294 132.681 C 121.865 136.822,121.834 136.805,126.650 135.615 C 128.165 135.241,130.379 134.969,131.931 134.967 L 134.604 134.963 135.125 133.252 C 135.695 131.380,149.180 81.167,149.681 79.055 C 151.152 72.845,150.812 73.156,157.131 72.235 C 159.014 71.961,163.992 71.208,168.193 70.562 C 173.709 69.714,176.027 69.476,176.534 69.707 C 177.168 69.996,179.424 73.411,186.310 84.504 C 187.566 86.527,189.604 89.723,190.839 91.606 C 192.074 93.488,193.794 96.129,194.662 97.474 C 195.530 98.818,196.353 100.065,196.491 100.244 C 196.629 100.424,197.475 101.667,198.371 103.008 C 199.267 104.349,200.257 105.706,200.570 106.024 C 200.884 106.341,201.141 106.748,201.141 106.927 C 201.141 107.107,201.288 107.253,201.467 107.253 C 202.132 107.253,201.722 106.168,198.696 99.910 C 196.993 96.388,195.599 93.291,195.599 93.028 C 195.599 92.766,195.398 92.155,195.152 91.671 C 194.479 90.343,194.238 88.027,194.487 85.275 L 194.711 82.804 199.263 82.804 L 203.815 82.804 205.427 84.349 C 207.252 86.098,208.181 86.687,209.137 86.704 C 209.501 86.710,210.049 87.009,210.356 87.368 C 210.729 87.803,211.322 88.021,212.140 88.024 C 212.814 88.027,215.482 88.174,218.069 88.350 C 222.078 88.624,222.882 88.599,223.518 88.182 C 224.369 87.625,225.781 87.535,226.080 88.020 C 226.191 88.199,226.529 88.346,226.833 88.347 C 228.457 88.353,229.784 89.030,229.988 89.957 C 230.102 90.475,230.384 90.972,230.615 91.061 C 231.280 91.315,233.689 96.536,234.277 98.993 C 234.570 100.219,235.046 101.805,235.335 102.516 C 235.624 103.227,235.862 103.887,235.865 103.983 C 235.868 104.078,235.949 104.303,236.046 104.482 C 236.143 104.662,236.261 105.322,236.309 105.949 C 236.356 106.577,236.641 107.280,236.942 107.512 C 237.243 107.744,237.442 108.004,237.384 108.091 C 237.326 108.177,237.351 108.427,237.440 108.647 C 237.529 108.867,237.613 108.362,237.627 107.525 C 237.641 106.688,237.503 105.954,237.319 105.893 C 237.133 105.830,236.860 103.837,236.703 101.383 C 236.547 98.964,236.261 96.398,236.066 95.681 C 235.872 94.963,235.709 93.643,235.705 92.747 C 235.701 91.850,235.482 89.870,235.218 88.346 C 234.954 86.822,234.624 84.783,234.484 83.817 C 234.129 81.359,233.877 81.265,229.451 81.944 C 227.417 82.256,223.333 82.882,220.375 83.335 C 217.416 83.787,214.317 84.354,213.486 84.593 C 211.857 85.062,211.247 84.564,211.247 82.765 C 211.247 82.403,211.037 80.906,210.780 79.439 C 209.070 69.669,208.645 65.201,209.372 64.638 C 209.889 64.238,214.350 63.492,224.613 62.089 C 226.496 61.831,228.375 61.541,228.790 61.443 C 229.204 61.345,231.038 61.059,232.865 60.807 C 234.691 60.556,238.240 60.037,240.750 59.654 C 247.273 58.660,253.284 57.758,257.050 57.208 C 258.843 56.947,262.290 56.432,264.711 56.065 C 275.060 54.495,277.629 54.129,278.338 54.123 C 279.635 54.111,279.912 55.302,281.891 69.378 C 282.543 74.014,282.717 73.816,277.246 74.669 C 274.923 75.031,271.263 75.605,269.112 75.945 C 266.960 76.284,264.466 76.655,263.570 76.768 C 260.128 77.201,259.923 77.511,260.600 81.262 C 260.866 82.738,261.392 86.072,261.769 88.672 C 262.146 91.271,262.662 94.645,262.916 96.170 C 263.170 97.694,263.463 99.601,263.567 100.407 C 263.671 101.214,263.969 103.195,264.228 104.808 C 265.613 113.414,266.015 116.100,266.016 116.776 C 266.017 117.187,266.167 118.058,266.349 118.712 L 266.679 119.901 267.786 118.826 C 268.932 117.713,272.149 116.707,274.555 116.708 C 275.147 116.708,276.879 116.496,278.403 116.235 C 282.078 115.607,287.977 114.772,291.606 114.367 C 293.219 114.187,294.675 113.911,294.840 113.753 C 295.094 113.510,292.789 97.126,289.477 75.632 C 285.861 52.169,285.872 52.412,288.428 51.985 C 289.100 51.873,291.410 51.418,293.562 50.975 C 295.713 50.531,298.574 50.022,299.919 49.844 C 301.263 49.666,303.170 49.319,304.156 49.074 C 305.143 48.829,307.277 48.529,308.901 48.408 C 312.420 48.146,312.561 48.245,312.974 51.251 C 313.846 57.600,314.254 60.438,314.543 62.148 C 314.720 63.199,315.108 65.966,315.405 68.297 C 316.316 75.454,316.214 75.127,317.591 75.243 C 318.254 75.298,319.480 75.057,320.353 74.698 C 321.217 74.344,323.024 73.982,324.368 73.893 C 325.713 73.804,327.253 73.499,327.791 73.216 C 328.405 72.893,329.620 72.698,331.051 72.692 C 332.306 72.686,333.847 72.542,334.474 72.370 C 335.102 72.198,336.312 71.875,337.164 71.652 C 338.804 71.221,338.974 70.952,338.226 69.964 C 337.970 69.626,337.665 68.707,337.547 67.922 C 337.428 67.129,337.096 66.355,336.800 66.183 C 336.507 66.012,336.414 65.865,336.593 65.857 C 336.773 65.848,336.699 65.702,336.430 65.532 C 336.044 65.287,335.941 64.471,335.941 61.652 C 335.941 59.689,335.808 57.960,335.645 57.811 C 335.471 57.651,335.434 57.778,335.556 58.117 C 335.800 58.797,334.890 58.433,334.166 57.560 C 333.516 56.776,333.170 57.271,333.170 58.985 C 333.170 59.984,333.348 60.704,333.659 60.962 C 334.296 61.490,334.310 64.007,333.679 64.531 C 333.421 64.746,333.164 65.240,333.108 65.631 C 333.015 66.284,332.744 66.363,329.721 66.625 L 326.434 66.910 325.564 66.040 C 325.086 65.561,324.694 64.858,324.694 64.477 C 324.694 64.096,324.442 63.506,324.134 63.165 C 323.707 62.693,323.544 61.779,323.445 59.309 C 323.373 57.529,323.192 56.072,323.042 56.072 C 322.565 56.072,322.090 53.706,322.088 51.324 C 322.087 49.207,322.010 48.948,321.135 48.110 C 320.611 47.609,320.088 46.811,319.973 46.338 C 319.593 44.785,316.911 42.380,315.559 42.380 C 314.915 42.380,314.102 42.164,313.754 41.901 C 313.019 41.345,307.103 41.193,306.580 41.717 C 306.098 42.198,304.063 42.263,303.909 41.801 C 303.723 41.244,302.961 41.302,302.735 41.891 C 302.463 42.599,296.273 42.599,295.564 41.891 C 295.295 41.622,294.771 41.402,294.399 41.402 C 294.028 41.402,293.154 40.815,292.458 40.098 C 291.762 39.381,290.935 38.794,290.621 38.794 C 290.306 38.794,289.412 38.207,288.634 37.490 C 287.856 36.773,286.951 36.186,286.624 36.186 C 286.296 36.186,285.531 35.672,284.923 35.045 C 284.314 34.417,283.511 33.904,283.138 33.904 C 282.765 33.904,282.208 33.610,281.901 33.252 C 281.594 32.893,281.077 32.600,280.752 32.600 C 280.427 32.600,279.663 32.086,279.055 31.459 C 278.446 30.831,277.633 30.318,277.248 30.318 C 276.863 30.318,276.282 30.024,275.958 29.666 C 275.633 29.307,275.117 29.014,274.810 29.014 C 274.503 29.014,273.880 28.720,273.424 28.362 C 272.968 28.003,272.379 27.710,272.116 27.710 C 271.852 27.710,271.462 27.499,271.248 27.242 C 271.034 26.984,270.440 26.682,269.927 26.569 C 269.414 26.456,268.827 26.163,268.623 25.917 C 268.419 25.671,267.832 25.378,267.319 25.265 C 266.806 25.152,266.211 24.849,265.997 24.592 C 265.784 24.334,265.100 24.124,264.478 24.124 C 263.840 24.124,262.985 23.839,262.518 23.472 C 262.062 23.113,261.475 22.820,261.214 22.820 C 260.952 22.820,260.366 22.526,259.910 22.168 C 259.405 21.771,258.587 21.516,257.821 21.516 C 257.128 21.516,256.561 21.405,256.561 21.269 C 256.561 20.933,253.727 19.680,252.323 19.395 C 251.695 19.268,250.724 18.886,250.165 18.547 C 249.606 18.207,248.707 17.930,248.168 17.930 C 247.628 17.930,247.018 17.727,246.811 17.478 C 246.605 17.229,245.496 16.925,244.347 16.802 C 243.183 16.678,242.086 16.372,241.871 16.113 C 241.618 15.808,240.834 15.648,239.592 15.648 C 238.340 15.648,237.533 15.482,237.208 15.157 C 236.899 14.848,235.770 14.589,234.169 14.461 C 232.690 14.343,231.395 14.060,231.080 13.787 C 230.726 13.479,229.431 13.255,227.331 13.136 C 225.224 13.017,223.938 12.794,223.582 12.484 C 223.167 12.123,221.557 11.967,216.742 11.822 C 212.121 11.682,210.328 11.515,210.007 11.195 C 209.328 10.516,194.210 10.563,193.527 11.247 C 193.154 11.619,192.224 11.736,189.631 11.736 C 187.001 11.736,186.132 11.625,185.819 11.247 C 185.257 10.570,184.401 10.636,183.700 11.410 M332.084 50.095 C 331.691 50.488,331.857 51.746,332.355 52.160 C 332.628 52.386,332.844 53.097,332.844 53.767 C 332.844 54.428,333.035 55.230,333.269 55.550 C 333.968 56.506,334.626 55.367,334.640 53.174 C 334.647 52.168,334.749 51.191,334.868 51.003 C 334.986 50.815,334.932 50.449,334.748 50.188 C 334.482 49.813,334.455 49.843,334.614 50.331 C 334.779 50.836,334.731 50.878,334.350 50.562 C 333.990 50.263,333.846 50.271,333.710 50.598 C 333.579 50.910,333.441 50.872,333.173 50.448 C 332.793 49.847,332.444 49.734,332.084 50.095 M167.326 98.845 C 166.896 99.377,165.605 106.922,165.606 108.892 C 165.607 109.704,165.408 110.658,165.164 111.011 C 164.921 111.365,164.615 112.234,164.485 112.942 C 164.356 113.650,164.041 114.526,163.787 114.889 C 162.583 116.608,164.031 117.414,166.431 116.361 C 167.706 115.803,168.980 115.604,172.390 115.435 C 177.512 115.181,178.263 114.704,176.691 112.706 C 176.333 112.251,176.039 111.798,176.039 111.701 C 176.039 111.604,175.616 110.893,175.100 110.122 C 174.583 109.351,173.413 107.311,172.499 105.589 C 168.699 98.430,168.194 97.770,167.326 98.845 M170.378 107.759 C 171.131 108.233,172.564 110.589,172.890 111.889 C 173.379 113.835,168.614 115.290,167.009 113.685 C 166.310 112.986,166.279 108.883,166.972 108.883 C 167.109 108.883,167.452 108.436,167.735 107.889 C 168.282 106.831,168.858 106.802,170.378 107.759 M165.481 135.959 C 162.747 136.417,162.786 136.865,165.607 137.422 C 166.235 137.545,166.895 137.760,167.074 137.898 C 167.253 138.036,168.057 138.258,168.860 138.391 C 169.663 138.523,170.652 138.849,171.058 139.115 C 172.087 139.790,173.074 139.419,172.367 138.624 C 171.847 138.040,173.002 135.621,173.543 136.161 C 173.661 136.279,173.757 136.205,173.757 135.996 C 173.757 135.552,168.062 135.527,165.481 135.959 M253.953 136.422 C 252.608 136.649,250.806 137.074,249.948 137.366 C 249.090 137.658,248.091 137.897,247.728 137.897 C 246.473 137.897,247.451 138.506,249.313 138.885 C 252.616 139.556,253.588 140.110,253.809 141.449 C 253.916 142.095,254.064 142.817,254.139 143.052 C 254.326 143.644,254.931 143.208,254.931 142.482 C 254.931 142.156,255.138 141.717,255.392 141.506 C 256.064 140.948,258.843 136.776,258.843 136.325 C 258.843 135.843,257.178 135.876,253.953 136.422 M136.950 183.318 C 142.469 186.232,140.768 198.207,134.834 198.207 C 133.359 198.207,132.956 198.333,132.542 198.925 L 132.039 199.642 131.056 198.701 C 130.516 198.183,130.073 197.442,130.073 197.056 C 130.073 196.669,129.780 196.087,129.421 195.762 C 129.063 195.437,128.769 194.861,128.769 194.480 C 128.769 194.099,128.476 193.537,128.117 193.230 C 127.575 192.765,127.465 192.268,127.465 190.274 C 127.465 188.290,127.578 187.774,128.117 187.286 C 128.476 186.962,128.769 186.454,128.769 186.158 C 128.769 185.183,130.797 183.590,132.683 183.083 C 135.099 182.434,135.297 182.445,136.950 183.318 " stroke="none" fill="#1f4f68" fill-rule="evenodd"></path><path id="path2" d="M285.738 115.901 C 266.009 118.790,266.542 118.483,268.102 126.059 C 269.625 133.452,269.090 134.629,263.813 135.494 L 260.469 136.042 259.368 137.703 C 258.223 139.431,255.659 144.457,249.294 157.457 C 247.231 161.671,243.855 168.566,241.792 172.779 C 239.729 176.993,236.430 183.741,234.462 187.775 C 225.770 205.586,223.382 210.458,220.662 215.924 C 217.581 222.116,217.283 223.307,218.081 226.243 C 218.251 226.870,218.541 228.631,218.724 230.155 C 218.908 231.679,219.272 234.173,219.534 235.697 C 220.044 238.667,220.435 241.266,221.222 246.931 C 222.284 254.572,222.560 255.163,224.831 254.658 C 225.697 254.466,227.213 254.220,228.199 254.113 C 229.185 254.005,230.725 253.777,231.622 253.607 C 232.518 253.436,234.792 253.084,236.675 252.824 C 238.557 252.563,242.078 252.042,244.499 251.664 C 246.919 251.287,250.293 250.779,251.997 250.536 C 255.980 249.967,261.158 249.182,264.874 248.583 C 268.021 248.075,273.516 247.232,280.848 246.132 C 283.358 245.756,286.659 245.237,288.183 244.980 C 289.707 244.723,291.980 244.375,293.236 244.205 C 294.491 244.036,296.548 243.715,297.808 243.493 C 300.362 243.041,301.746 243.239,302.001 244.092 C 302.226 244.847,304.053 257.491,304.298 259.984 C 304.403 261.059,304.633 263.467,304.809 265.334 C 305.031 267.687,305.295 268.912,305.671 269.328 C 306.235 269.950,307.573 270.139,307.882 269.639 C 307.979 269.481,309.052 269.250,310.264 269.125 C 311.477 269.001,313.423 268.699,314.588 268.455 C 315.754 268.211,317.588 267.921,318.663 267.810 C 319.739 267.700,321.720 267.404,323.064 267.154 C 324.409 266.903,326.683 266.554,328.117 266.377 C 330.948 266.028,333.657 265.619,338.223 264.852 C 339.837 264.581,342.258 264.225,343.602 264.061 C 344.947 263.897,347.001 263.608,348.166 263.420 C 349.332 263.231,351.280 262.992,352.496 262.888 C 355.812 262.607,356.300 260.671,354.666 254.265 C 354.504 253.630,354.156 251.577,353.893 249.701 C 353.086 243.948,352.695 241.496,352.208 239.133 C 351.558 235.984,352.048 235.475,355.990 235.206 C 357.514 235.102,360.081 234.813,361.695 234.563 C 363.309 234.313,365.975 233.963,367.620 233.786 C 371.706 233.346,371.964 233.177,371.964 230.937 C 371.964 229.945,371.824 228.872,371.653 228.553 C 371.482 228.233,371.122 226.299,370.853 224.255 C 370.167 219.032,369.737 216.192,369.008 212.062 C 368.660 210.090,368.376 207.962,368.377 207.333 C 368.378 206.704,368.230 205.677,368.048 205.051 C 367.866 204.424,367.572 202.518,367.393 200.815 C 366.572 192.987,366.277 192.216,364.194 192.454 C 360.580 192.868,355.400 193.647,354.197 193.958 C 348.556 195.414,345.812 195.417,345.526 193.969 C 345.200 192.323,344.305 186.986,343.940 184.515 C 343.768 183.350,343.464 181.369,343.266 180.114 C 343.067 178.859,342.757 176.855,342.577 175.660 C 342.154 172.856,341.691 172.420,339.527 172.783 C 334.600 173.611,331.526 174.090,330.073 174.257 C 329.177 174.360,327.196 174.646,325.672 174.893 C 324.148 175.139,320.701 175.652,318.011 176.032 C 315.322 176.412,311.801 176.933,310.187 177.189 C 308.574 177.446,306.153 177.809,304.808 177.997 C 295.060 179.360,294.610 179.452,294.303 180.140 C 294.097 180.601,294.478 183.901,295.526 190.731 C 297.458 203.327,297.454 203.423,294.988 203.423 C 294.496 203.423,293.093 203.629,291.871 203.880 C 290.649 204.132,288.696 204.435,287.531 204.555 C 286.365 204.675,284.385 204.967,283.130 205.205 C 276.323 206.495,276.086 206.326,278.292 201.765 C 279.659 198.938,290.978 174.683,298.132 159.250 C 299.794 155.664,302.654 149.503,304.486 145.558 C 312.958 127.323,312.812 128.128,307.523 128.907 C 301.593 129.780,298.485 129.898,297.861 129.273 C 297.205 128.618,297.242 128.784,296.183 121.597 C 295.480 116.824,295.231 115.799,294.661 115.322 C 293.840 114.636,294.807 114.573,285.738 115.901 M126.487 136.443 C 121.864 137.372,122.075 136.536,123.749 147.264 C 125.125 156.076,125.196 155.610,122.347 156.460 C 118.132 157.716,102.282 160.051,101.455 159.537 C 100.449 158.912,98.469 151.676,98.447 148.543 C 98.420 144.830,87.889 151.952,80.446 160.717 C 79.000 162.421,77.651 163.961,77.449 164.140 C 76.598 164.897,71.968 172.447,71.052 174.572 C 70.665 175.469,69.924 177.119,69.404 178.240 C 67.814 181.672,64.590 180.129,92.095 189.105 C 97.653 190.919,102.714 192.594,103.341 192.829 C 109.415 195.097,109.443 195.092,111.305 191.160 C 113.581 186.355,116.272 183.608,122.483 179.747 C 123.726 178.975,128.163 177.695,130.975 177.298 C 142.154 175.718,148.568 183.029,146.205 194.657 C 145.076 200.211,142.977 203.544,131.546 217.930 C 127.129 223.488,121.953 230.016,120.043 232.437 C 106.343 249.800,97.781 260.289,91.969 266.830 C 89.938 269.116,89.873 269.355,90.425 272.480 C 91.092 276.260,91.556 279.209,92.099 283.130 C 92.347 284.923,92.700 287.270,92.883 288.346 C 93.179 290.088,93.833 294.669,94.406 299.002 C 94.698 301.214,95.431 301.773,97.402 301.287 C 98.886 300.920,102.371 300.358,108.883 299.433 C 110.587 299.191,113.447 298.761,115.240 298.478 C 118.836 297.910,121.570 297.488,125.998 296.818 C 131.649 295.962,137.437 295.014,140.668 294.414 C 142.461 294.082,145.395 293.564,147.188 293.263 C 148.981 292.962,151.989 292.435,153.871 292.091 C 155.754 291.748,160.815 290.947,165.118 290.311 C 169.421 289.675,174.849 288.867,177.180 288.515 C 186.254 287.145,192.839 286.163,201.304 284.916 C 203.814 284.547,207.115 284.034,208.639 283.777 C 210.163 283.519,212.410 283.211,213.633 283.090 C 216.878 282.772,217.371 282.274,216.870 279.824 C 216.655 278.773,216.325 276.537,216.137 274.854 C 215.949 273.171,215.732 271.693,215.656 271.570 C 215.580 271.447,215.362 270.036,215.173 268.436 C 214.983 266.835,214.618 264.279,214.361 262.755 C 213.706 258.865,213.239 255.671,212.712 251.474 C 212.463 249.483,212.112 247.209,211.934 246.421 C 211.756 245.633,211.521 244.564,211.411 244.046 L 211.212 243.104 208.568 243.324 C 207.114 243.446,204.811 243.749,203.451 243.998 C 202.091 244.247,198.851 244.765,196.251 245.149 C 189.419 246.158,183.498 247.049,179.951 247.603 C 174.779 248.410,172.437 248.758,169.030 249.230 C 167.237 249.478,164.873 249.859,163.775 250.075 C 159.663 250.888,159.793 250.204,164.930 244.017 C 189.545 214.372,194.464 206.562,197.275 192.665 C 198.258 187.805,198.341 178.477,197.441 174.083 C 196.595 169.951,195.569 166.188,195.067 165.374 C 194.822 164.977,194.621 164.492,194.621 164.297 C 194.621 163.742,193.367 161.104,191.913 158.598 C 186.404 149.109,175.973 141.288,164.955 138.388 C 159.181 136.868,159.278 136.788,157.427 144.626 C 155.661 152.104,156.129 151.701,147.677 153.046 C 129.190 155.988,128.500 155.971,129.412 152.615 C 129.590 151.961,130.180 149.593,130.722 147.351 C 131.265 145.110,132.141 141.809,132.668 140.016 C 133.939 135.694,132.980 135.139,126.487 136.443 " stroke="none" fill="#f2d35b" fill-rule="evenodd"></path><path id="path3" d="M194.487 85.275 C 194.238 88.027,194.479 90.343,195.152 91.671 C 195.398 92.155,195.599 92.766,195.599 93.028 C 195.599 93.291,196.993 96.388,198.696 99.910 C 201.722 106.168,202.132 107.253,201.467 107.253 C 201.288 107.253,201.141 107.107,201.141 106.927 C 201.141 106.748,200.884 106.344,200.570 106.029 C 200.257 105.714,199.230 104.299,198.289 102.884 C 196.432 100.092,195.923 99.799,197.619 102.498 C 199.536 105.549,201.538 108.710,202.282 109.861 C 202.687 110.489,203.926 112.469,205.036 114.262 C 206.145 116.055,208.677 120.090,210.662 123.227 C 214.233 128.872,215.145 130.325,217.112 133.496 C 217.668 134.393,218.702 136.007,219.409 137.082 C 222.280 141.451,222.523 141.244,212.877 142.643 C 211.174 142.891,207.800 143.392,205.379 143.757 C 195.190 145.295,195.643 145.260,194.957 144.560 C 194.413 144.005,189.731 136.104,189.731 135.741 C 189.731 135.664,189.335 135.003,188.851 134.272 L 187.972 132.943 185.673 133.100 C 183.629 133.239,180.867 133.639,171.638 135.130 L 169.030 135.551 171.394 135.583 C 172.959 135.604,173.757 135.744,173.757 135.996 C 173.757 136.205,173.661 136.279,173.543 136.161 C 173.002 135.621,171.847 138.040,172.367 138.624 C 173.074 139.419,172.087 139.790,171.058 139.115 C 170.652 138.849,169.663 138.523,168.860 138.391 C 168.057 138.258,167.253 138.036,167.074 137.898 C 166.895 137.760,166.088 137.501,165.281 137.323 C 164.474 137.145,163.557 136.892,163.244 136.761 C 162.587 136.488,162.471 137.006,163.081 137.487 C 163.305 137.664,164.586 138.073,165.928 138.396 C 168.620 139.044,171.270 140.048,174.245 141.547 C 176.024 142.444,177.250 143.187,181.087 145.689 C 184.353 147.820,192.665 157.163,192.665 158.704 C 192.665 158.915,192.791 159.087,192.945 159.087 C 193.321 159.087,194.947 162.257,194.947 162.989 C 194.947 163.309,195.158 163.746,195.415 163.960 C 195.672 164.173,195.985 164.813,196.110 165.380 C 196.235 165.948,196.520 166.708,196.744 167.069 C 196.968 167.431,197.236 168.609,197.340 169.688 C 197.444 170.766,197.769 172.129,198.061 172.716 C 198.826 174.249,198.620 191.150,197.811 193.154 C 197.522 193.871,197.199 195.177,197.094 196.055 C 196.988 196.934,196.773 197.814,196.614 198.011 C 196.456 198.209,196.216 198.883,196.082 199.511 C 195.948 200.139,195.564 201.163,195.230 201.788 C 194.895 202.413,194.621 203.165,194.621 203.460 C 194.621 203.754,194.415 204.166,194.164 204.374 C 193.913 204.583,193.607 205.150,193.486 205.635 C 193.364 206.120,193.131 206.677,192.968 206.874 C 192.805 207.070,192.210 208.098,191.646 209.157 C 188.119 215.786,175.380 232.417,162.457 247.264 C 160.158 249.906,160.678 250.619,164.349 249.856 C 166.668 249.374,171.378 248.592,176.039 247.915 C 182.183 247.023,184.071 246.734,186.797 246.266 C 188.321 246.005,190.738 245.646,192.168 245.470 C 193.598 245.293,195.014 245.070,195.316 244.974 C 195.617 244.879,197.454 244.585,199.399 244.322 C 203.478 243.771,206.558 243.292,208.618 242.889 C 211.448 242.335,211.847 242.990,212.577 249.389 C 212.751 250.913,213.108 253.480,213.370 255.094 C 213.858 258.094,214.285 261.030,214.863 265.363 C 215.042 266.707,215.400 269.055,215.657 270.579 C 215.915 272.103,216.218 274.303,216.332 275.469 C 216.445 276.634,216.736 278.465,216.978 279.537 C 217.615 282.360,217.293 282.734,213.808 283.214 C 212.310 283.421,207.637 284.106,203.423 284.737 C 191.670 286.497,168.134 290.032,164.303 290.614 C 162.421 290.899,159.853 291.274,158.598 291.447 C 157.343 291.619,155.289 291.981,154.034 292.250 C 148.488 293.441,148.597 293.394,151.702 293.242 C 153.289 293.164,154.772 292.946,154.999 292.757 C 155.226 292.569,157.009 292.189,158.961 291.913 C 160.913 291.638,163.904 291.214,165.607 290.973 C 168.700 290.534,172.802 289.908,178.647 288.981 C 180.350 288.711,182.771 288.352,184.026 288.183 C 185.281 288.014,188.289 287.577,190.709 287.212 C 193.130 286.846,196.724 286.326,198.696 286.055 C 200.668 285.783,202.525 285.486,202.822 285.393 C 203.119 285.300,204.952 285.019,206.897 284.767 C 218.624 283.252,218.310 283.411,217.479 279.418 C 217.270 278.411,216.949 276.267,216.767 274.654 C 216.584 273.040,216.231 270.693,215.983 269.438 C 215.735 268.183,215.443 265.926,215.334 264.424 C 215.225 262.921,214.994 261.426,214.820 261.100 C 214.646 260.775,214.365 258.819,214.197 256.754 C 214.029 254.689,213.756 252.737,213.591 252.416 C 213.427 252.096,213.194 250.159,213.075 248.111 C 212.841 244.083,212.069 241.565,211.068 241.565 C 210.770 241.565,209.038 241.848,207.219 242.194 C 205.400 242.540,201.858 243.135,199.348 243.516 C 196.838 243.898,193.537 244.415,192.013 244.665 C 188.980 245.164,185.836 245.655,182.559 246.143 C 178.276 246.780,171.877 247.837,168.704 248.431 C 161.857 249.712,161.250 249.657,162.649 247.878 C 163.319 247.027,166.422 243.436,167.237 242.568 C 167.506 242.281,168.670 240.875,169.824 239.443 C 170.978 238.010,172.152 236.588,172.432 236.283 C 173.236 235.408,173.808 234.724,175.498 232.614 C 176.366 231.530,177.283 230.527,177.536 230.383 C 177.788 230.240,177.995 229.973,177.995 229.791 C 177.995 229.608,178.509 228.975,179.136 228.383 C 179.764 227.791,180.277 227.148,180.277 226.954 C 180.277 226.760,180.464 226.484,180.692 226.341 C 180.921 226.197,181.348 225.713,181.641 225.265 C 181.934 224.817,182.628 223.964,183.182 223.370 C 183.736 222.776,184.189 222.153,184.189 221.985 C 184.189 221.817,184.409 221.679,184.678 221.679 C 184.947 221.679,185.167 221.445,185.167 221.159 C 185.167 220.874,185.460 220.563,185.819 220.469 C 186.180 220.375,186.471 220.025,186.471 219.685 C 186.471 219.347,186.618 219.071,186.797 219.071 C 187.545 219.071,186.757 220.862,184.366 224.591 C 183.594 225.796,182.855 227.284,182.724 227.898 C 182.593 228.512,182.295 229.234,182.062 229.503 C 181.828 229.772,181.326 231.019,180.946 232.274 C 180.565 233.529,180.039 234.971,179.777 235.479 C 178.795 237.375,179.763 238.462,182.722 238.785 C 186.779 239.229,193.781 239.304,197.154 238.939 C 199.078 238.731,203.317 238.458,206.575 238.332 C 212.883 238.088,213.345 237.962,213.669 236.408 C 213.932 235.147,214.492 230.501,214.830 226.782 C 215.270 221.928,216.118 219.771,216.130 223.472 C 216.132 224.010,216.345 225.110,216.603 225.917 C 217.348 228.244,218.419 233.581,218.419 234.965 C 218.419 235.661,218.630 236.954,218.888 237.838 C 219.146 238.722,219.458 240.546,219.581 241.891 C 219.705 243.236,219.992 244.923,220.219 245.640 C 220.447 246.357,220.732 248.258,220.852 249.863 C 221.263 255.328,222.047 256.208,225.807 255.425 C 227.212 255.132,229.609 254.751,231.133 254.578 C 232.657 254.405,234.344 254.122,234.882 253.949 C 235.420 253.776,237.327 253.484,239.120 253.301 C 240.913 253.117,242.820 252.829,243.358 252.660 C 243.896 252.491,245.784 252.196,247.555 252.006 C 249.326 251.815,250.900 251.581,251.054 251.486 C 251.208 251.391,252.986 251.102,255.007 250.844 C 257.027 250.586,259.413 250.235,260.310 250.065 C 263.182 249.519,268.720 248.659,270.905 248.419 C 272.070 248.291,274.344 247.951,275.958 247.664 C 279.320 247.065,281.962 246.661,287.042 245.969 C 289.014 245.700,290.832 245.402,291.083 245.307 C 291.333 245.212,293.167 244.901,295.158 244.616 C 301.676 243.682,301.173 243.687,301.360 244.547 C 301.682 246.026,302.826 253.823,303.194 257.050 C 303.892 263.156,304.139 264.232,303.969 260.415 C 303.841 257.561,302.889 249.957,302.027 244.910 C 301.752 243.303,300.998 243.076,297.870 243.659 C 295.326 244.133,292.225 244.614,285.249 245.618 C 283.545 245.863,281.198 246.223,280.033 246.418 C 277.289 246.877,271.927 247.703,267.808 248.302 C 266.015 248.562,263.227 248.976,261.614 249.221 C 260.000 249.466,257.139 249.898,255.257 250.182 C 253.374 250.465,250.513 250.907,248.900 251.165 C 247.286 251.423,243.985 251.929,241.565 252.290 C 230.266 253.974,227.871 254.347,225.597 254.781 C 222.332 255.403,221.827 254.578,221.170 247.557 C 221.055 246.323,220.767 244.507,220.532 243.521 C 220.296 242.535,220.000 240.639,219.874 239.309 C 219.749 237.978,219.514 236.438,219.354 235.886 C 219.194 235.334,218.906 233.488,218.714 231.785 C 218.523 230.081,218.158 227.887,217.904 226.908 C 216.908 223.078,217.071 222.426,221.070 214.258 C 224.878 206.481,228.721 198.604,234.548 186.634 C 247.245 160.550,257.107 140.793,258.472 138.709 C 259.451 137.213,259.666 136.653,259.390 136.313 C 259.086 135.939,259.009 135.939,258.898 136.313 C 258.710 136.949,255.941 141.051,255.392 141.506 C 255.138 141.717,254.931 142.156,254.931 142.482 C 254.931 143.208,254.326 143.644,254.139 143.052 C 254.064 142.817,253.916 142.095,253.809 141.449 C 253.588 140.110,252.616 139.556,249.313 138.885 C 247.498 138.516,246.466 137.899,247.658 137.895 C 248.455 137.893,250.789 137.233,250.615 137.059 C 250.539 136.983,248.961 137.147,247.109 137.424 C 242.385 138.130,242.542 138.281,241.752 132.277 C 241.118 127.454,240.654 124.329,240.069 120.945 C 239.805 119.421,239.457 117.001,239.295 115.566 C 239.133 114.132,238.855 112.298,238.678 111.491 C 238.501 110.685,238.260 108.998,238.143 107.742 C 238.025 106.487,237.792 105.016,237.626 104.472 C 237.459 103.929,237.184 102.388,237.014 101.049 C 236.720 98.735,236.712 98.791,236.855 102.200 C 236.937 104.173,237.150 105.835,237.329 105.895 C 237.507 105.955,237.641 106.688,237.627 107.525 C 237.613 108.362,237.529 108.867,237.440 108.647 C 237.351 108.427,237.326 108.177,237.384 108.091 C 237.442 108.004,237.243 107.744,236.942 107.512 C 236.641 107.280,236.356 106.577,236.309 105.949 C 236.261 105.322,236.143 104.662,236.046 104.482 C 235.949 104.303,235.868 104.078,235.865 103.983 C 235.862 103.887,235.624 103.227,235.335 102.516 C 235.046 101.805,234.570 100.219,234.277 98.993 C 233.689 96.536,231.280 91.315,230.615 91.061 C 230.384 90.972,230.102 90.475,229.988 89.957 C 229.784 89.030,228.457 88.353,226.833 88.347 C 226.529 88.346,226.191 88.199,226.080 88.020 C 225.781 87.535,224.369 87.625,223.518 88.182 C 222.882 88.599,222.078 88.624,218.069 88.350 C 215.482 88.174,212.814 88.027,212.140 88.024 C 211.322 88.021,210.729 87.803,210.356 87.368 C 210.049 87.009,209.501 86.710,209.137 86.704 C 208.181 86.687,207.252 86.098,205.427 84.349 L 203.815 82.804 199.263 82.804 L 194.711 82.804 194.487 85.275 M211.786 84.610 C 211.866 84.819,212.290 84.920,212.730 84.836 C 213.769 84.638,213.738 84.538,212.585 84.369 C 211.957 84.277,211.689 84.358,211.786 84.610 M236.028 95.708 C 236.031 96.051,236.182 96.553,236.364 96.822 C 236.605 97.179,236.636 97.047,236.476 96.333 C 236.208 95.134,236.021 94.874,236.028 95.708 M165.009 108.720 C 164.085 112.876,163.768 114.718,164.003 114.573 C 164.137 114.490,164.351 113.803,164.479 113.045 C 164.607 112.288,164.921 111.349,165.177 110.958 C 165.475 110.504,165.607 109.618,165.544 108.506 L 165.444 106.764 165.009 108.720 M167.735 107.889 C 167.452 108.436,167.109 108.883,166.972 108.883 C 166.279 108.883,166.310 112.986,167.009 113.685 C 168.614 115.290,173.379 113.835,172.890 111.889 C 172.004 108.361,168.783 105.861,167.735 107.889 M290.791 114.417 C 287.717 114.797,281.298 115.739,278.403 116.234 C 276.879 116.495,275.147 116.708,274.555 116.708 C 271.587 116.706,266.993 118.517,266.993 119.689 C 266.993 120.210,267.673 119.970,268.394 119.196 C 268.835 118.721,269.803 118.275,270.905 118.040 C 273.016 117.587,289.456 115.122,292.185 114.848 C 293.221 114.744,294.147 114.533,294.242 114.379 C 294.433 114.071,293.508 114.081,290.791 114.417 M168.378 115.723 C 164.661 116.685,165.442 116.825,170.334 116.075 L 174.246 115.475 171.801 115.473 C 170.456 115.471,168.916 115.584,168.378 115.723 M312.047 129.110 C 311.828 129.461,311.302 130.664,310.879 131.785 C 310.456 132.906,304.867 145.118,298.458 158.924 C 282.497 193.309,282.370 193.583,278.420 201.904 C 276.482 205.986,276.767 206.238,282.152 205.205 C 283.586 204.929,286.300 204.492,288.183 204.234 C 294.962 203.301,296.173 203.070,296.619 202.624 C 297.006 202.237,296.826 200.590,295.391 191.378 C 293.330 178.142,292.945 179.466,299.104 178.625 C 300.538 178.429,303.619 177.982,305.949 177.631 C 308.280 177.280,311.214 176.862,312.469 176.702 C 313.725 176.542,316.145 176.190,317.848 175.920 C 319.552 175.650,323.073 175.118,325.672 174.738 C 328.272 174.358,331.720 173.840,333.333 173.587 C 341.614 172.288,341.277 172.313,341.978 172.947 C 342.333 173.269,342.624 173.754,342.624 174.025 C 342.624 174.296,342.715 174.427,342.826 174.316 C 343.911 173.231,341.575 171.267,339.985 171.927 C 339.375 172.181,337.848 172.491,336.593 172.616 C 335.338 172.741,333.651 172.984,332.844 173.157 C 332.037 173.329,329.837 173.674,327.954 173.923 C 324.590 174.368,322.211 174.706,317.685 175.381 C 316.430 175.569,313.790 175.931,311.817 176.187 C 309.845 176.442,307.571 176.791,306.764 176.963 C 305.958 177.135,304.197 177.375,302.852 177.497 C 301.508 177.619,299.408 177.928,298.186 178.183 C 296.964 178.438,295.556 178.647,295.058 178.647 C 293.679 178.647,292.974 179.636,293.154 181.319 C 293.344 183.102,293.977 187.360,294.428 189.894 C 294.619 190.970,294.957 193.170,295.178 194.784 C 295.400 196.398,295.775 198.612,296.011 199.704 C 296.632 202.568,296.563 202.643,293.091 202.915 C 291.458 203.043,289.649 203.289,289.071 203.463 C 288.493 203.637,286.773 203.913,285.249 204.077 C 283.725 204.241,281.570 204.620,280.461 204.920 C 277.197 205.801,277.125 205.617,279.150 201.554 C 281.443 196.952,283.175 193.308,286.707 185.656 C 288.101 182.636,288.877 180.971,290.883 176.691 C 292.291 173.688,293.332 171.432,294.869 168.052 C 295.542 166.572,296.692 164.099,299.268 158.598 C 299.772 157.522,301.972 152.755,304.156 148.003 C 306.340 143.252,308.467 138.631,308.883 137.734 C 311.836 131.358,313.535 126.728,312.047 129.110 M126.487 135.636 C 125.143 135.977,123.621 136.259,123.106 136.262 C 122.314 136.266,122.232 136.342,122.572 136.753 C 122.794 137.020,123.104 137.159,123.261 137.062 C 123.882 136.678,130.199 135.615,131.859 135.615 C 132.828 135.615,133.712 135.469,133.822 135.289 C 134.168 134.730,129.115 134.969,126.487 135.636 M97.800 145.955 C 96.987 146.258,92.865 148.727,90.954 150.055 C 88.550 151.725,83.424 156.436,80.948 159.250 C 76.417 164.400,75.528 165.489,75.092 166.422 C 74.841 166.960,74.055 168.280,73.346 169.356 C 72.119 171.216,70.788 173.785,69.376 177.017 C 69.024 177.824,68.513 178.897,68.241 179.401 C 67.483 180.806,67.898 181.767,69.519 182.359 C 71.692 183.153,84.812 187.505,85.901 187.794 C 86.438 187.936,91.844 189.742,97.913 191.806 C 110.481 196.080,109.964 196.030,111.324 193.093 C 111.807 192.051,112.491 190.583,112.844 189.832 C 113.198 189.081,114.072 187.834,114.787 187.061 C 117.513 184.115,118.780 182.885,119.090 182.885 C 119.267 182.885,120.219 182.349,121.206 181.694 C 126.058 178.473,133.422 177.399,139.287 179.058 C 140.785 179.482,144.417 182.779,144.417 183.716 C 144.417 184.076,144.674 184.733,144.988 185.176 C 145.794 186.315,145.773 194.283,144.959 195.762 C 144.663 196.300,144.420 197.006,144.419 197.331 C 144.417 197.954,143.175 200.635,142.126 202.282 C 141.784 202.820,141.263 203.686,140.970 204.207 C 140.676 204.728,140.301 205.315,140.136 205.511 C 139.970 205.707,139.180 206.748,138.379 207.824 C 137.578 208.900,136.794 209.937,136.636 210.129 C 136.479 210.322,135.635 211.421,134.760 212.572 C 133.886 213.724,132.950 214.901,132.681 215.189 C 132.412 215.476,131.899 216.126,131.540 216.633 C 130.897 217.542,126.326 223.377,110.355 243.678 C 105.874 249.372,101.362 254.990,100.327 256.162 C 99.293 257.335,98.516 258.364,98.603 258.451 C 98.864 258.712,101.288 255.841,108.757 246.419 C 112.681 241.468,119.413 232.982,123.716 227.562 C 143.280 202.918,144.623 200.941,145.884 194.947 C 148.726 181.438,140.343 174.422,126.372 178.616 C 119.030 180.821,113.271 186.240,110.480 193.570 C 109.904 195.083,109.192 194.985,100.918 192.254 C 96.603 190.830,92.559 189.473,91.932 189.239 C 91.304 189.004,85.981 187.242,80.103 185.322 C 68.254 181.451,67.760 181.213,68.550 179.761 C 68.834 179.238,69.350 178.150,69.696 177.343 C 71.167 173.911,72.182 171.867,73.177 170.336 C 73.760 169.438,74.897 167.677,75.705 166.422 C 78.134 162.649,82.581 157.813,88.346 152.676 C 90.023 151.180,92.675 149.370,96.088 147.390 C 97.964 146.301,99.018 145.542,98.370 145.747 C 98.325 145.761,98.068 145.855,97.800 145.955 M224.707 147.063 C 226.569 147.999,227.221 148.623,227.221 149.470 C 227.221 149.863,227.514 150.450,227.873 150.774 C 228.231 151.099,228.525 151.686,228.525 152.078 C 228.525 152.471,228.818 153.058,229.177 153.382 C 229.535 153.707,229.829 154.321,229.829 154.747 C 229.829 155.173,230.049 155.606,230.318 155.709 C 230.680 155.848,230.807 156.422,230.807 157.912 C 230.807 159.284,231.015 160.336,231.459 161.206 C 232.288 162.832,232.285 165.029,231.452 166.865 C 231.097 167.647,230.807 168.609,230.807 169.003 C 230.807 169.398,230.591 170.005,230.328 170.353 C 230.065 170.701,229.845 171.298,229.839 171.680 C 229.834 172.061,229.618 172.548,229.361 172.762 C 229.103 172.975,228.798 173.580,228.683 174.106 C 228.567 174.631,228.341 175.061,228.179 175.061 C 228.018 175.061,227.787 175.465,227.666 175.958 C 227.546 176.451,227.176 177.204,226.845 177.632 C 226.514 178.059,226.243 178.656,226.243 178.958 C 226.243 179.260,225.876 179.826,225.428 180.216 C 224.980 180.606,224.613 181.124,224.613 181.368 C 224.613 182.143,219.406 187.448,218.634 187.459 C 218.247 187.465,217.424 187.979,216.805 188.600 C 216.186 189.222,215.377 189.731,215.009 189.731 C 214.640 189.731,214.155 190.024,213.931 190.383 C 213.599 190.915,213.170 191.035,211.610 191.035 C 210.307 191.035,209.567 191.191,209.291 191.524 C 208.144 192.906,204.893 188.815,203.587 184.349 C 203.273 183.275,202.898 182.103,202.754 181.744 C 202.610 181.385,202.401 180.505,202.291 179.788 C 202.086 178.461,201.082 174.715,200.456 172.942 C 200.266 172.404,199.916 171.231,199.679 170.334 C 199.442 169.438,198.794 167.384,198.240 165.770 C 197.686 164.156,196.806 161.589,196.284 160.065 C 195.762 158.541,194.832 155.871,194.217 154.131 C 192.623 149.617,192.757 149.083,195.551 148.828 C 196.743 148.719,198.892 148.482,200.326 148.301 C 205.208 147.686,214.333 147.044,218.318 147.035 C 220.606 147.029,222.378 146.887,222.494 146.699 C 222.786 146.227,223.170 146.290,224.707 147.063 M132.683 183.083 C 130.797 183.590,128.769 185.183,128.769 186.158 C 128.769 186.454,128.476 186.962,128.117 187.286 C 127.578 187.774,127.465 188.290,127.465 190.274 C 127.465 192.268,127.575 192.765,128.117 193.230 C 128.476 193.537,128.769 194.099,128.769 194.480 C 128.769 194.861,129.063 195.437,129.421 195.762 C 129.780 196.087,130.073 196.669,130.073 197.056 C 130.073 197.442,130.516 198.183,131.056 198.701 L 132.039 199.642 132.542 198.925 C 132.956 198.333,133.359 198.207,134.834 198.207 C 139.127 198.207,142.171 189.449,139.297 185.369 C 137.600 182.960,135.650 182.286,132.683 183.083 " stroke="none" fill="#318989" fill-rule="evenodd"></path><path id="path4" d="M129.992 135.845 C 130.395 135.923,131.055 135.923,131.459 135.845 C 131.862 135.768,131.532 135.704,130.725 135.704 C 129.919 135.704,129.588 135.768,129.992 135.845 M167.726 139.138 C 178.009 142.842,186.935 150.023,191.913 158.598 C 193.367 161.104,194.621 163.742,194.621 164.297 C 194.621 164.492,194.822 164.977,195.067 165.374 C 195.569 166.188,196.595 169.951,197.441 174.083 C 198.341 178.477,198.258 187.805,197.275 192.665 C 194.717 205.313,189.855 213.610,172.845 234.353 C 171.357 236.168,170.204 237.653,170.282 237.653 C 170.454 237.653,174.996 232.195,179.506 226.569 C 185.336 219.296,189.202 213.752,191.646 209.157 C 192.210 208.098,192.805 207.070,192.968 206.874 C 193.131 206.677,193.364 206.120,193.486 205.635 C 193.607 205.150,193.913 204.583,194.164 204.374 C 194.415 204.166,194.621 203.754,194.621 203.460 C 194.621 203.165,194.895 202.413,195.230 201.788 C 195.564 201.163,195.948 200.139,196.082 199.511 C 196.216 198.883,196.456 198.209,196.614 198.011 C 196.773 197.814,196.988 196.934,197.094 196.055 C 197.199 195.177,197.522 193.871,197.811 193.154 C 198.620 191.150,198.826 174.249,198.061 172.716 C 197.769 172.129,197.444 170.766,197.340 169.688 C 197.236 168.609,196.968 167.431,196.744 167.069 C 196.520 166.708,196.235 165.948,196.110 165.380 C 195.985 164.813,195.672 164.173,195.415 163.960 C 195.158 163.746,194.947 163.309,194.947 162.989 C 194.947 162.257,193.321 159.087,192.945 159.087 C 192.791 159.087,192.665 158.915,192.665 158.704 C 192.665 157.163,184.353 147.820,181.087 145.689 C 177.250 143.187,176.024 142.444,174.245 141.547 C 171.595 140.212,168.477 138.975,167.172 138.743 C 166.433 138.611,166.606 138.735,167.726 139.138 M257.855 139.609 C 256.982 141.028,243.862 167.499,234.548 186.634 C 228.654 198.741,224.859 206.519,221.029 214.341 L 217.359 221.837 217.534 224.284 C 217.631 225.630,217.873 227.099,218.071 227.547 C 218.422 228.338,218.427 228.333,218.250 227.384 C 218.149 226.846,217.985 225.379,217.885 224.124 L 217.703 221.842 220.630 215.974 C 223.375 210.472,225.629 205.877,234.462 187.775 C 236.430 183.741,239.729 176.993,241.792 172.779 C 243.855 168.566,247.231 161.671,249.294 157.457 C 254.777 146.260,258.214 139.420,258.591 138.957 C 258.773 138.733,258.829 138.549,258.715 138.549 C 258.601 138.549,258.214 139.026,257.855 139.609 M222.494 146.699 C 222.378 146.887,220.606 147.029,218.318 147.035 C 214.333 147.044,205.208 147.686,200.326 148.301 C 198.892 148.482,196.743 148.719,195.551 148.828 C 192.757 149.083,192.623 149.617,194.217 154.131 C 194.832 155.871,195.762 158.541,196.284 160.065 C 196.806 161.589,197.686 164.156,198.240 165.770 C 198.794 167.384,199.442 169.438,199.679 170.334 C 199.916 171.231,200.266 172.404,200.456 172.942 C 201.082 174.715,202.086 178.461,202.291 179.788 C 202.401 180.505,202.610 181.385,202.754 181.744 C 202.898 182.103,203.273 183.275,203.587 184.349 C 204.893 188.815,208.144 192.906,209.291 191.524 C 209.567 191.191,210.307 191.035,211.610 191.035 C 213.170 191.035,213.599 190.915,213.931 190.383 C 214.155 190.024,214.640 189.731,215.009 189.731 C 215.377 189.731,216.186 189.222,216.805 188.600 C 217.424 187.979,218.247 187.465,218.634 187.459 C 219.406 187.448,224.613 182.143,224.613 181.368 C 224.613 181.124,224.980 180.606,225.428 180.216 C 225.876 179.826,226.243 179.260,226.243 178.958 C 226.243 178.656,226.514 178.059,226.845 177.632 C 227.176 177.204,227.546 176.451,227.666 175.958 C 227.787 175.465,228.018 175.061,228.179 175.061 C 228.341 175.061,228.567 174.631,228.683 174.106 C 228.798 173.580,229.103 172.975,229.361 172.762 C 229.618 172.548,229.834 172.061,229.839 171.680 C 229.845 171.298,230.065 170.701,230.328 170.353 C 230.591 170.005,230.807 169.398,230.807 169.003 C 230.807 168.609,231.097 167.647,231.452 166.865 C 232.285 165.029,232.288 162.832,231.459 161.206 C 231.015 160.336,230.807 159.284,230.807 157.912 C 230.807 156.422,230.680 155.848,230.318 155.709 C 230.049 155.606,229.829 155.173,229.829 154.747 C 229.829 154.321,229.535 153.707,229.177 153.382 C 228.818 153.058,228.525 152.471,228.525 152.078 C 228.525 151.686,228.231 151.099,227.873 150.774 C 227.514 150.450,227.221 149.863,227.221 149.470 C 227.221 148.086,223.122 145.683,222.494 146.699 M132.600 177.253 C 133.183 177.325,134.136 177.325,134.719 177.253 C 135.302 177.181,134.825 177.121,133.659 177.121 C 132.494 177.121,132.017 177.181,132.600 177.253 M129.829 177.568 C 130.143 177.650,130.656 177.650,130.970 177.568 C 131.284 177.486,131.027 177.419,130.399 177.419 C 129.772 177.419,129.515 177.486,129.829 177.568 M136.349 177.568 C 136.663 177.650,137.176 177.650,137.490 177.568 C 137.804 177.486,137.547 177.419,136.919 177.419 C 136.292 177.419,136.035 177.486,136.349 177.568 M126.324 178.321 C 124.159 179.120,124.833 179.129,127.302 178.334 C 128.378 177.988,128.965 177.708,128.606 177.712 C 128.248 177.716,127.221 177.990,126.324 178.321 M141.878 179.604 C 142.543 180.168,143.533 181.170,144.078 181.831 C 144.623 182.493,145.069 182.921,145.069 182.782 C 145.069 182.388,142.075 179.287,141.334 178.914 C 140.968 178.730,141.213 179.041,141.878 179.604 M123.045 179.480 C 122.423 179.979,122.423 179.982,123.064 179.687 C 123.423 179.522,123.936 179.306,124.205 179.206 C 124.628 179.049,124.625 179.021,124.186 178.999 C 123.907 178.985,123.393 179.201,123.045 179.480 M294.041 179.968 C 293.844 180.336,293.729 180.859,293.785 181.130 C 293.842 181.401,294.049 181.100,294.246 180.461 C 294.650 179.155,294.574 178.973,294.041 179.968 M120.538 180.936 C 119.686 181.471,118.989 181.980,118.989 182.068 C 118.989 182.155,119.723 181.776,120.619 181.224 C 121.516 180.672,122.249 180.160,122.249 180.086 C 122.249 179.872,122.170 179.911,120.538 180.936 M116.770 183.748 L 115.240 185.263 116.870 183.856 C 117.767 183.081,118.562 182.400,118.636 182.341 C 118.711 182.281,118.666 182.233,118.536 182.233 C 118.406 182.233,117.611 182.915,116.770 183.748 M114.041 186.716 C 113.398 187.388,112.705 188.305,112.501 188.753 C 112.184 189.450,112.190 189.477,112.544 188.937 C 112.772 188.591,113.527 187.674,114.222 186.900 C 115.775 185.171,115.645 185.038,114.041 186.716 M146.293 188.962 C 146.449 193.302,146.620 193.845,146.639 190.057 C 146.647 188.354,146.546 186.688,146.415 186.354 C 146.284 186.021,146.229 187.195,146.293 188.962 M111.061 191.539 C 110.295 193.145,110.403 193.418,111.203 191.901 C 111.567 191.211,111.807 190.590,111.736 190.519 C 111.666 190.449,111.362 190.908,111.061 191.539 M145.421 196.843 C 145.407 197.079,144.891 198.362,144.275 199.695 C 143.660 201.028,143.229 202.119,143.319 202.119 C 143.636 202.119,145.759 197.179,145.604 196.800 C 145.494 196.530,145.439 196.543,145.421 196.843 M140.831 205.542 C 140.276 206.349,139.895 207.009,139.985 207.009 C 140.075 207.009,140.602 206.349,141.157 205.542 C 141.712 204.735,142.093 204.075,142.004 204.075 C 141.914 204.075,141.386 204.735,140.831 205.542 M285.982 204.626 C 286.296 204.708,286.809 204.708,287.123 204.626 C 287.437 204.544,287.180 204.477,286.553 204.477 C 285.925 204.477,285.668 204.544,285.982 204.626 M139.156 207.905 C 138.218 209.038,137.821 209.617,137.982 209.617 C 138.072 209.617,138.538 209.104,139.016 208.476 C 139.904 207.311,140.012 206.872,139.156 207.905 M218.821 232.763 C 218.821 233.390,218.888 233.647,218.970 233.333 C 219.052 233.020,219.052 232.506,218.970 232.192 C 218.888 231.879,218.821 232.135,218.821 232.763 M219.136 234.556 C 219.136 234.914,219.253 235.575,219.397 236.023 C 219.604 236.668,219.658 236.702,219.658 236.186 C 219.658 235.827,219.540 235.167,219.397 234.719 C 219.190 234.073,219.136 234.040,219.136 234.556 M219.799 238.305 C 219.799 238.932,219.866 239.189,219.948 238.875 C 220.030 238.562,220.030 238.048,219.948 237.734 C 219.866 237.421,219.799 237.677,219.799 238.305 M208.965 242.869 C 208.296 243.083,208.423 243.136,209.671 243.162 C 210.556 243.181,211.261 243.365,211.357 243.602 C 211.486 243.923,211.527 243.921,211.547 243.594 C 211.567 243.273,210.133 242.417,209.840 242.575 C 209.807 242.593,209.413 242.725,208.965 242.869 M205.216 243.357 C 205.037 243.418,204.325 243.562,203.634 243.678 C 202.943 243.794,202.430 243.940,202.493 244.003 C 202.556 244.066,203.855 243.924,205.379 243.688 C 207.090 243.423,207.651 243.257,206.846 243.253 C 206.129 243.249,205.395 243.296,205.216 243.357 M200.081 244.403 C 200.485 244.481,201.145 244.481,201.548 244.403 C 201.952 244.325,201.622 244.262,200.815 244.262 C 200.008 244.262,199.678 244.325,200.081 244.403 M211.644 244.825 C 211.641 245.273,211.755 246.007,211.899 246.455 C 212.250 247.550,212.250 246.367,211.899 244.988 C 211.675 244.109,211.649 244.093,211.644 244.825 M195.273 244.988 C 192.902 245.538,194.170 245.542,197.066 244.993 C 198.491 244.723,198.920 244.563,198.207 244.567 C 197.579 244.570,196.259 244.759,195.273 244.988 M191.280 245.707 C 191.683 245.785,192.343 245.785,192.747 245.707 C 193.150 245.629,192.820 245.566,192.013 245.566 C 191.206 245.566,190.876 245.629,191.280 245.707 M187.775 246.145 C 187.225 246.332,187.491 246.360,188.590 246.233 C 189.487 246.130,190.281 245.991,190.356 245.924 C 190.613 245.695,188.590 245.868,187.775 246.145 M182.478 247.011 C 182.881 247.089,183.541 247.089,183.945 247.011 C 184.348 246.933,184.018 246.870,183.211 246.870 C 182.404 246.870,182.074 246.933,182.478 247.011 M179.299 247.433 C 178.203 247.784,179.387 247.784,180.766 247.433 C 181.645 247.209,181.661 247.183,180.929 247.178 C 180.481 247.174,179.747 247.289,179.299 247.433 M176.773 247.983 C 177.086 248.065,177.600 248.065,177.914 247.983 C 178.227 247.901,177.971 247.834,177.343 247.834 C 176.716 247.834,176.459 247.901,176.773 247.983 M173.839 248.309 C 174.152 248.391,174.666 248.391,174.980 248.309 C 175.293 248.227,175.037 248.160,174.409 248.160 C 173.782 248.160,173.525 248.227,173.839 248.309 M170.986 248.737 C 170.108 248.960,170.091 248.986,170.823 248.992 C 171.271 248.995,172.005 248.880,172.453 248.737 C 173.549 248.386,172.365 248.386,170.986 248.737 M222.341 254.157 C 222.326 254.695,223.220 255.345,223.705 255.150 C 223.975 255.042,223.927 254.973,223.570 254.956 C 223.265 254.942,222.866 254.674,222.683 254.360 C 222.500 254.046,222.346 253.955,222.341 254.157 M303.906 258.517 C 303.906 259.144,303.973 259.401,304.055 259.087 C 304.137 258.773,304.137 258.260,304.055 257.946 C 303.973 257.632,303.906 257.889,303.906 258.517 " stroke="none" fill="#3ba59c" fill-rule="evenodd"></path></g></svg>