<svg id="svg" version="1.1" xmlns="http://www.w3.org/2000/svg" xmlns:xlink="http://www.w3.org/1999/xlink" width="400" height="200" viewBox="0, 0, 400,200"><g id="svgg"><path id="path0" d="M94.100 73.596 C 89.700 74.601,86.404 76.393,83.520 79.351 C 81.438 81.486,79.425 84.670,78.779 86.853 C 78.042 89.341,77.784 90.642,77.707 92.256 C 77.624 93.990,77.629 94.020,77.792 92.764 C 78.447 87.689,81.916 82.763,86.606 80.246 C 94.292 76.122,104.512 78.989,108.776 86.466 C 109.637 87.975,110.000 88.691,110.000 88.878 C 110.000 89.874,112.085 91.202,113.642 91.197 C 116.873 91.187,118.428 88.035,116.801 84.795 C 112.536 76.303,102.951 71.575,94.100 73.596 M72.306 83.740 C 68.326 84.376,66.720 95.166,69.622 101.782 C 74.434 112.754,86.721 117.499,97.467 112.534 C 99.579 111.558,102.970 109.202,102.264 109.200 C 102.135 109.200,101.903 109.326,101.749 109.479 C 100.658 110.571,96.972 111.932,94.266 112.243 C 85.744 113.224,78.148 107.977,75.991 99.620 C 75.497 97.703,75.505 92.749,76.005 91.400 C 77.323 87.844,77.370 87.592,76.943 86.400 C 76.215 84.369,74.507 83.389,72.306 83.740 M144.800 84.933 C 134.578 86.339,129.325 96.944,134.239 106.254 C 139.214 115.682,156.045 115.394,160.741 105.800 C 166.258 94.529,157.583 83.174,144.800 84.933 M178.900 84.982 C 176.858 85.384,174.968 86.396,173.564 87.837 C 172.365 89.068,172.425 89.112,172.358 86.950 L 172.300 85.100 168.500 85.100 L 164.700 85.100 164.700 104.000 L 164.700 122.900 168.500 122.900 L 172.300 122.900 172.353 116.050 C 172.382 112.283,172.449 109.200,172.502 109.200 C 172.555 109.200,173.027 109.632,173.549 110.159 C 179.294 115.955,190.169 113.189,193.045 105.200 C 197.044 94.091,189.244 82.942,178.900 84.982 M208.300 84.924 C 193.711 87.131,191.676 107.900,205.600 112.481 C 210.709 114.161,217.892 112.821,221.539 109.506 C 222.896 108.273,222.929 108.378,220.424 105.931 L 218.613 104.162 217.757 104.857 C 213.325 108.451,206.958 107.584,204.871 103.103 C 204.004 101.240,203.082 101.411,214.350 101.352 L 224.300 101.300 224.367 99.900 C 224.841 90.036,217.813 83.484,208.300 84.924 M241.600 84.926 C 239.295 85.370,237.409 86.418,235.784 88.159 L 234.413 89.626 234.357 87.363 L 234.300 85.100 230.450 85.046 L 226.600 84.991 226.600 99.000 L 226.600 113.009 230.450 112.954 L 234.300 112.900 234.400 104.900 L 234.500 96.900 235.078 95.722 C 237.600 90.579,244.862 90.786,246.167 96.039 C 246.325 96.675,246.400 99.557,246.400 104.989 L 246.400 113.000 250.279 113.000 C 253.631 113.000,254.174 112.957,254.279 112.684 C 254.556 111.962,254.407 94.739,254.111 93.200 C 253.544 90.259,252.803 88.791,251.095 87.230 C 250.018 86.246,249.658 86.028,247.900 85.289 C 247.102 84.954,242.755 84.703,241.600 84.926 M258.200 99.000 L 258.200 112.600 267.700 112.600 L 277.200 112.600 277.200 111.300 L 277.200 110.000 269.196 110.000 L 261.193 110.000 261.246 105.250 L 261.300 100.500 268.200 100.400 L 275.100 100.300 275.159 98.953 L 275.218 97.605 268.259 97.553 L 261.300 97.500 261.300 92.900 L 261.300 88.300 269.000 88.200 L 276.700 88.100 276.759 86.750 L 276.818 85.400 267.509 85.400 L 258.200 85.400 258.200 99.000 M279.800 101.800 L 279.800 118.200 227.600 118.200 L 175.400 118.200 175.400 119.200 L 175.400 120.200 228.900 120.200 L 282.400 120.200 282.400 106.612 C 282.400 98.958,282.477 92.976,282.577 92.914 C 282.781 92.788,282.947 93.193,283.760 95.800 C 284.085 96.845,284.731 98.915,285.194 100.400 C 285.657 101.885,286.155 103.460,286.301 103.900 C 286.448 104.340,286.943 105.915,287.401 107.400 C 287.860 108.885,288.358 110.460,288.507 110.900 C 288.657 111.340,289.194 113.050,289.701 114.700 C 290.208 116.350,290.702 117.925,290.798 118.200 C 290.895 118.475,291.392 120.050,291.902 121.700 C 293.170 125.798,293.262 126.076,293.415 126.264 C 293.546 126.425,294.298 124.255,295.588 120.000 C 295.938 118.845,296.568 116.820,296.987 115.500 C 297.407 114.180,298.038 112.155,298.390 111.000 C 298.741 109.845,299.153 108.540,299.305 108.100 C 299.456 107.660,299.952 106.085,300.405 104.600 C 300.859 103.115,301.350 101.540,301.498 101.100 C 301.645 100.660,302.052 99.355,302.402 98.200 C 302.752 97.045,303.112 95.920,303.201 95.700 C 303.291 95.480,303.528 94.692,303.729 93.950 C 303.931 93.208,304.164 92.600,304.248 92.600 C 304.331 92.600,304.400 98.810,304.400 106.400 L 304.400 120.200 317.043 120.200 L 329.687 120.200 330.535 119.250 L 331.383 118.300 319.391 118.248 L 307.400 118.197 307.400 101.798 L 307.400 85.400 305.508 85.400 L 303.616 85.400 303.386 86.250 C 303.259 86.718,303.082 87.325,302.992 87.600 C 302.903 87.875,302.637 88.775,302.401 89.600 C 302.165 90.425,301.898 91.280,301.808 91.500 C 301.717 91.720,301.310 93.025,300.903 94.400 C 299.804 98.113,299.630 98.700,299.286 99.850 C 299.113 100.428,298.894 101.170,298.799 101.500 C 298.704 101.830,297.983 104.215,297.197 106.800 C 296.411 109.385,295.681 111.815,295.574 112.200 C 295.467 112.585,295.301 113.125,295.204 113.400 C 295.108 113.675,294.836 114.575,294.600 115.400 C 293.586 118.938,293.858 119.236,291.766 112.300 C 291.434 111.200,291.088 110.075,290.996 109.800 C 290.905 109.525,290.633 108.625,290.392 107.800 C 290.151 106.975,289.746 105.625,289.491 104.800 C 289.236 103.975,288.743 102.355,288.397 101.200 C 288.050 100.045,287.691 98.875,287.598 98.600 C 287.506 98.325,287.236 97.425,287.000 96.600 C 286.764 95.775,286.495 94.875,286.404 94.600 C 286.239 94.104,285.528 91.752,284.499 88.300 C 283.545 85.098,283.839 85.400,281.676 85.400 L 279.800 85.400 279.800 101.800 M310.600 98.986 L 310.600 112.600 312.000 112.600 L 313.400 112.600 313.400 108.540 C 313.400 105.649,313.469 104.411,313.640 104.240 C 313.812 104.068,315.112 104.000,318.223 104.000 L 322.565 104.000 324.851 107.450 C 326.108 109.347,327.377 111.283,327.671 111.750 L 328.205 112.600 330.003 112.600 C 332.029 112.600,332.003 112.620,331.237 111.629 C 330.927 111.228,330.088 110.045,329.372 109.000 C 328.656 107.955,327.576 106.380,326.973 105.500 C 326.370 104.620,325.811 103.790,325.730 103.656 C 325.632 103.492,326.016 103.201,326.906 102.767 C 333.190 99.703,333.252 89.513,327.005 86.576 C 324.937 85.604,324.456 85.549,317.350 85.458 L 310.600 85.372 310.600 98.986 M324.200 88.737 C 330.201 90.717,330.465 98.343,324.611 100.636 C 323.580 101.040,323.141 101.072,318.500 101.085 L 313.500 101.100 313.447 94.814 C 313.406 89.924,313.450 88.488,313.647 88.350 C 314.134 88.008,322.973 88.332,324.200 88.737 M109.200 90.149 C 109.200 90.244,109.432 90.632,109.716 91.011 C 112.522 94.757,113.483 101.530,111.828 105.900 C 111.379 107.087,109.706 110.194,109.191 110.800 C 106.396 114.085,104.167 115.547,100.000 116.824 C 99.390 117.011,98.037 117.100,95.800 117.100 L 92.500 117.100 90.369 116.350 C 87.949 115.498,87.815 115.483,86.544 115.916 C 83.064 117.102,83.043 121.868,86.511 123.317 C 89.314 124.489,96.111 124.988,98.900 124.227 C 106.045 122.279,111.221 117.610,113.565 111.000 C 114.415 108.600,114.500 107.977,114.500 104.100 C 114.500 99.726,114.216 98.316,112.672 95.030 C 111.812 93.199,109.200 89.527,109.200 90.149 M213.568 91.055 C 215.266 91.903,216.249 93.195,216.713 95.190 C 217.062 96.694,217.476 96.600,210.522 96.600 C 203.409 96.600,203.946 96.713,204.382 95.304 C 205.641 91.235,209.942 89.246,213.568 91.055 M149.500 91.652 C 155.658 93.387,156.169 103.546,150.235 106.264 C 146.900 107.792,142.336 105.939,141.043 102.531 C 138.566 96.006,143.307 89.908,149.500 91.652 M182.362 91.813 C 185.303 93.282,186.857 96.759,186.214 100.430 C 184.606 109.616,172.389 108.250,172.402 98.886 C 172.410 93.118,177.599 89.433,182.362 91.813 M132.200 119.200 L 132.200 120.200 146.700 120.200 L 161.200 120.200 161.200 119.200 L 161.200 118.200 146.700 118.200 L 132.200 118.200 132.200 119.200 " stroke="none" fill="#f9f9fa" fill-rule="evenodd"></path><path id="path1" d="M0.000 100.000 L 0.000 200.000 200.000 200.000 L 400.000 200.000 400.000 100.000 L 400.000 0.000 200.000 0.000 L 0.000 0.000 0.000 100.000 M101.837 73.227 C 102.022 73.322,102.393 73.400,102.661 73.400 C 104.255 73.400,108.239 75.185,110.600 76.956 C 118.382 82.796,120.218 91.401,113.694 91.462 C 111.903 91.479,109.600 89.889,109.600 88.635 C 109.600 88.541,109.376 88.066,109.103 87.581 C 108.829 87.097,108.541 86.565,108.463 86.400 C 108.384 86.235,108.248 86.010,108.160 85.900 C 108.071 85.790,107.601 85.205,107.115 84.600 C 101.681 77.839,91.609 76.622,84.603 81.878 C 82.937 83.128,81.603 84.530,80.570 86.117 C 79.845 87.230,78.815 89.470,78.666 90.254 C 78.599 90.609,78.477 90.990,78.395 91.100 C 78.084 91.519,77.745 96.724,77.998 97.197 C 78.171 97.519,78.177 97.703,78.019 97.861 C 77.860 98.020,77.800 97.969,77.800 97.680 C 77.800 97.460,77.706 97.186,77.590 97.070 C 77.325 96.805,77.453 90.923,77.755 89.473 C 79.153 82.760,84.520 76.473,90.700 74.308 C 91.250 74.115,91.880 73.880,92.100 73.786 C 93.937 72.996,100.641 72.611,101.837 73.227 M75.098 83.825 C 77.176 84.938,77.936 87.430,76.890 89.700 C 75.737 92.204,75.533 97.169,76.454 100.333 C 79.144 109.573,89.835 114.678,98.530 110.876 C 98.877 110.724,99.211 110.600,99.273 110.600 C 100.122 110.600,105.600 106.094,105.600 105.396 C 105.600 105.288,105.690 105.200,105.800 105.200 C 106.663 105.200,103.337 109.174,101.338 110.531 C 100.877 110.844,100.378 111.216,100.229 111.357 C 99.782 111.780,95.954 113.582,95.200 113.724 C 94.815 113.797,94.410 113.926,94.300 114.011 C 93.519 114.615,87.489 114.888,84.914 114.435 C 80.031 113.577,75.257 110.649,72.082 106.565 C 71.597 105.941,71.200 105.341,71.200 105.232 C 71.200 105.123,71.125 105.003,71.034 104.967 C 70.731 104.845,69.000 101.264,69.000 100.760 C 69.000 100.606,68.917 100.395,68.815 100.290 C 68.636 100.105,68.354 98.930,68.002 96.900 C 67.373 93.267,68.292 87.342,69.833 85.092 C 70.923 83.502,73.389 82.908,75.098 83.825 M247.400 84.834 C 248.168 85.065,249.744 85.784,250.171 86.100 C 251.498 87.081,252.649 88.389,253.219 89.566 C 253.575 90.300,253.963 91.080,254.083 91.300 C 254.229 91.570,254.319 95.203,254.360 102.450 L 254.419 113.200 250.314 113.200 L 246.209 113.200 246.144 104.950 C 246.069 95.267,246.061 95.216,244.492 93.683 C 243.834 93.041,243.182 92.598,242.767 92.512 C 239.277 91.790,236.885 92.806,235.477 95.609 C 234.732 97.092,234.619 98.491,234.609 106.350 L 234.600 113.200 230.521 113.200 C 226.987 113.200,226.427 113.158,226.321 112.884 C 226.040 112.150,226.189 85.258,226.476 85.020 C 226.667 84.861,227.937 84.808,230.626 84.846 L 234.500 84.900 234.554 86.600 C 234.628 88.940,234.634 88.944,235.882 87.636 C 238.426 84.969,243.630 83.703,247.400 84.834 M151.461 84.912 C 152.252 85.083,153.080 85.304,153.300 85.401 C 153.520 85.498,154.150 85.775,154.700 86.016 C 157.041 87.041,160.400 89.966,160.400 90.979 C 160.400 91.100,160.473 91.200,160.563 91.200 C 160.887 91.200,161.821 93.701,162.375 96.053 C 162.839 98.021,162.546 102.185,161.809 104.100 C 160.375 107.828,157.219 111.229,154.388 112.099 C 154.120 112.181,153.810 112.315,153.700 112.396 C 153.206 112.759,148.736 113.600,147.300 113.600 C 142.279 113.600,136.043 110.386,134.300 106.900 C 134.080 106.460,133.833 106.070,133.750 106.033 C 133.667 105.997,133.600 105.875,133.600 105.764 C 133.600 105.652,133.473 105.277,133.319 104.930 C 131.773 101.470,131.877 96.017,133.558 92.400 C 136.309 86.481,143.951 83.285,151.461 84.912 M184.471 84.909 C 187.019 85.550,189.536 87.088,190.909 88.842 C 191.234 89.257,191.635 89.766,191.801 89.972 C 192.054 90.289,192.649 91.505,193.429 93.300 C 194.249 95.190,194.662 102.291,193.976 102.715 C 193.879 102.775,193.800 103.095,193.800 103.426 C 193.800 104.307,192.571 107.203,191.702 108.371 C 187.279 114.311,178.309 115.309,173.407 110.407 L 172.600 109.600 172.600 116.404 L 172.600 123.208 168.450 123.154 L 164.300 123.100 164.249 104.054 L 164.198 85.008 164.649 84.897 C 164.897 84.836,166.765 84.812,168.800 84.843 L 172.500 84.900 172.558 86.631 L 172.615 88.362 173.475 87.514 C 176.032 84.994,180.551 83.923,184.471 84.909 M214.559 84.917 C 219.299 86.038,222.373 88.932,223.884 93.700 C 224.275 94.934,224.713 99.837,224.522 100.853 L 224.382 101.600 214.505 101.600 L 204.628 101.600 204.789 102.162 C 206.202 107.090,214.232 108.453,217.910 104.389 C 218.478 103.761,218.708 103.893,220.907 106.103 C 223.346 108.553,223.261 108.301,222.035 109.448 C 217.195 113.975,208.840 114.836,202.542 111.457 C 201.521 110.909,198.600 108.221,198.600 107.829 C 198.600 107.719,198.485 107.510,198.344 107.364 C 197.392 106.382,196.426 103.528,196.222 101.100 C 195.495 92.446,199.182 86.980,207.200 84.824 C 208.391 84.504,213.062 84.563,214.559 84.917 M276.958 86.850 L 276.900 88.500 269.150 88.552 L 261.400 88.605 261.400 92.900 L 261.400 97.195 268.350 97.247 L 275.300 97.300 275.300 99.000 L 275.300 100.700 268.350 100.753 L 261.400 100.805 261.400 105.300 L 261.400 109.795 269.450 109.848 L 277.500 109.900 277.559 111.344 C 277.633 113.179,278.623 113.022,267.400 112.955 L 258.100 112.900 258.049 99.050 L 257.997 85.200 267.507 85.200 L 277.016 85.200 276.958 86.850 M283.938 85.650 C 284.051 85.898,284.288 86.595,284.464 87.200 C 284.640 87.805,285.002 89.020,285.269 89.900 C 285.536 90.780,285.951 92.175,286.192 93.000 C 286.433 93.825,286.706 94.725,286.798 95.000 C 286.891 95.275,287.252 96.445,287.601 97.600 C 287.950 98.755,288.362 100.086,288.517 100.557 C 288.673 101.028,288.800 101.547,288.800 101.710 C 288.800 101.872,288.885 102.162,288.989 102.353 C 289.094 102.544,289.370 103.375,289.604 104.200 C 289.838 105.025,290.102 105.925,290.191 106.200 C 290.280 106.475,290.510 107.240,290.701 107.900 C 290.893 108.560,291.122 109.246,291.211 109.425 C 291.300 109.604,291.436 110.099,291.512 110.525 C 291.589 110.951,291.719 111.390,291.800 111.500 C 291.881 111.610,292.011 112.049,292.088 112.475 C 292.164 112.901,292.302 113.396,292.394 113.575 C 292.485 113.754,292.716 114.440,292.906 115.100 C 293.492 117.132,294.000 117.863,294.000 116.672 C 294.000 116.504,294.324 115.317,294.720 114.034 C 295.115 112.750,295.565 111.272,295.720 110.750 C 295.874 110.228,296.135 109.350,296.300 108.800 C 296.614 107.753,297.103 106.120,297.407 105.100 C 297.505 104.770,297.702 104.095,297.844 103.600 C 297.986 103.105,298.158 102.610,298.225 102.500 C 298.292 102.390,298.410 101.951,298.487 101.525 C 298.564 101.099,298.700 100.604,298.789 100.425 C 298.878 100.246,299.093 99.605,299.267 99.000 C 299.441 98.395,299.802 97.180,300.069 96.300 C 300.336 95.420,300.751 94.025,300.991 93.200 C 301.232 92.375,301.501 91.520,301.589 91.300 C 301.678 91.080,301.903 90.360,302.090 89.700 C 302.277 89.040,302.661 87.758,302.944 86.850 L 303.459 85.200 305.529 85.200 L 307.600 85.200 307.600 101.600 L 307.600 118.000 319.600 118.000 C 327.994 118.000,331.600 118.064,331.600 118.214 C 331.600 118.332,331.226 118.872,330.769 119.414 L 329.937 120.400 317.070 120.400 L 304.203 120.400 304.151 107.050 C 304.108 95.841,304.059 93.844,303.845 94.600 C 303.705 95.095,303.503 95.656,303.395 95.847 C 303.288 96.038,303.200 96.305,303.200 96.440 C 303.200 96.655,302.708 98.258,300.908 103.900 C 300.662 104.670,300.301 105.840,300.106 106.500 C 299.910 107.160,299.683 107.838,299.601 108.007 C 299.518 108.175,299.384 108.625,299.302 109.007 C 299.221 109.388,299.086 109.790,299.003 109.900 C 298.920 110.010,298.789 110.449,298.712 110.875 C 298.636 111.301,298.501 111.796,298.415 111.975 C 298.328 112.154,298.120 112.750,297.954 113.300 C 297.151 115.954,296.347 118.540,296.212 118.900 C 296.066 119.290,295.832 120.050,295.102 122.500 C 294.905 123.160,294.672 123.880,294.583 124.100 C 294.495 124.320,294.262 125.063,294.066 125.752 C 293.484 127.801,293.326 127.525,291.467 121.200 C 291.289 120.595,291.075 119.920,290.991 119.700 C 290.854 119.342,290.081 116.862,289.246 114.100 C 289.080 113.550,288.878 112.962,288.797 112.793 C 288.717 112.625,288.583 112.178,288.500 111.800 C 288.417 111.422,288.283 110.975,288.203 110.807 C 288.045 110.476,287.785 109.658,286.802 106.400 C 286.453 105.245,286.093 104.120,286.002 103.900 C 285.911 103.680,285.701 103.050,285.537 102.500 C 284.295 98.344,283.953 97.258,283.791 96.959 C 283.690 96.771,283.549 96.252,283.477 95.804 C 283.406 95.357,283.269 94.943,283.174 94.884 C 283.078 94.825,282.978 94.579,282.952 94.338 C 282.926 94.097,282.858 99.840,282.802 107.100 L 282.700 120.300 228.950 120.350 L 175.200 120.401 175.200 119.200 L 175.200 118.000 227.400 118.000 L 279.600 118.000 279.600 101.600 L 279.600 85.200 281.666 85.200 C 283.615 85.200,283.744 85.226,283.938 85.650 M325.000 85.563 C 325.495 85.697,326.080 85.889,326.300 85.990 C 326.520 86.091,327.017 86.315,327.405 86.488 C 333.546 89.231,333.346 100.063,327.100 102.995 C 326.550 103.253,326.070 103.487,326.034 103.515 C 325.970 103.563,326.543 104.414,329.566 108.763 C 330.355 109.897,331.000 110.910,331.000 111.013 C 331.000 111.116,331.073 111.200,331.163 111.200 C 331.253 111.200,331.523 111.550,331.764 111.978 C 332.309 112.948,332.214 113.000,329.885 113.000 L 328.203 113.000 325.809 109.350 C 324.491 107.343,323.333 105.604,323.234 105.487 C 323.135 105.370,322.949 105.078,322.820 104.837 C 322.590 104.408,322.506 104.400,318.193 104.400 L 313.800 104.400 313.800 108.579 C 313.800 113.324,313.932 113.000,312.000 113.000 C 311.358 113.000,310.690 112.945,310.516 112.879 C 310.183 112.751,310.008 85.659,310.338 85.328 C 310.586 85.081,324.016 85.295,325.000 85.563 M106.910 87.590 C 110.182 90.060,112.890 93.896,113.977 97.600 C 114.219 98.425,114.526 99.460,114.658 99.900 C 114.806 100.390,114.900 102.018,114.900 104.100 C 114.900 106.182,114.806 107.810,114.658 108.300 C 114.526 108.740,114.227 109.749,113.994 110.542 C 111.621 118.638,103.940 124.518,95.200 124.929 C 92.514 125.056,88.260 124.519,87.710 123.985 C 87.605 123.883,87.398 123.800,87.249 123.800 C 85.548 123.800,83.589 121.499,83.608 119.526 C 83.638 116.528,87.878 114.214,90.092 115.987 C 91.312 116.964,97.412 117.210,100.400 116.403 C 109.975 113.816,115.288 102.233,110.859 93.600 C 110.718 93.325,110.602 92.988,110.601 92.850 C 110.601 92.713,110.520 92.600,110.423 92.600 C 110.326 92.600,110.189 92.442,110.118 92.250 C 109.785 91.341,109.210 90.601,107.476 88.850 C 106.444 87.808,105.600 86.921,105.600 86.878 C 105.600 86.675,105.948 86.864,106.910 87.590 M313.800 94.697 L 313.800 100.835 318.950 100.754 C 325.399 100.653,326.518 100.226,327.913 97.334 C 328.432 96.258,328.636 92.969,328.200 92.700 C 328.090 92.632,328.000 92.439,328.000 92.270 C 328.000 91.804,326.992 90.503,326.220 89.972 C 324.569 88.838,324.068 88.749,318.750 88.651 L 313.800 88.560 313.800 94.697 M208.720 90.933 C 207.204 91.364,205.721 92.825,204.888 94.708 C 204.077 96.542,203.607 96.400,210.500 96.400 C 213.855 96.400,216.600 96.372,216.600 96.337 C 216.600 92.618,212.554 89.843,208.720 90.933 M177.700 91.574 C 169.977 93.622,171.453 106.332,179.409 106.291 C 183.296 106.271,185.493 103.997,186.140 99.323 C 186.773 94.747,182.058 90.418,177.700 91.574 M145.700 91.800 C 145.632 91.910,145.438 92.000,145.268 92.000 C 141.913 92.000,139.539 98.639,141.420 102.761 C 143.597 107.533,151.028 107.683,153.229 103.000 C 153.410 102.615,153.672 102.053,153.812 101.751 C 155.281 98.581,152.828 92.676,149.791 92.068 C 149.461 92.002,149.143 91.870,149.084 91.774 C 148.934 91.531,145.851 91.555,145.700 91.800 M161.300 119.200 L 161.300 120.300 146.700 120.300 L 132.100 120.300 132.037 119.427 C 132.003 118.947,132.023 118.429,132.082 118.276 C 132.172 118.041,134.457 118.005,146.744 118.049 L 161.300 118.100 161.300 119.200 " stroke="none" fill="#042c6c" fill-rule="evenodd"></path><path id="path2" d="M97.754 73.145 C 98.113 73.189,98.653 73.189,98.954 73.143 C 99.254 73.097,98.960 73.061,98.300 73.062 C 97.640 73.063,97.394 73.100,97.754 73.145 M109.800 76.655 C 109.800 76.694,110.093 76.939,110.450 77.201 C 110.852 77.495,110.992 77.543,110.816 77.327 C 110.550 76.999,109.800 76.503,109.800 76.655 M106.192 83.250 C 106.682 83.773,107.110 84.200,107.142 84.200 C 107.292 84.200,107.133 84.020,106.250 83.192 L 105.300 82.300 106.192 83.250 M72.500 83.600 C 71.990 83.819,72.516 83.819,73.200 83.600 C 73.602 83.471,73.622 83.439,73.300 83.434 C 73.080 83.431,72.720 83.505,72.500 83.600 M146.746 84.744 C 147.101 84.789,147.731 84.789,148.146 84.746 C 148.560 84.703,148.270 84.667,147.500 84.666 C 146.730 84.665,146.390 84.700,146.746 84.744 M180.752 84.741 C 181.001 84.789,181.361 84.787,181.552 84.737 C 181.744 84.687,181.540 84.648,181.100 84.650 C 180.660 84.653,180.504 84.694,180.752 84.741 M210.154 84.745 C 210.513 84.789,211.053 84.789,211.354 84.743 C 211.654 84.697,211.360 84.661,210.700 84.662 C 210.040 84.663,209.794 84.700,210.154 84.745 M243.256 84.747 C 243.782 84.789,244.592 84.788,245.056 84.746 C 245.520 84.704,245.090 84.670,244.100 84.671 C 243.110 84.672,242.730 84.706,243.256 84.747 M142.900 85.200 C 142.648 85.308,142.611 85.372,142.800 85.372 C 142.965 85.372,143.280 85.295,143.500 85.200 C 143.752 85.092,143.789 85.028,143.600 85.028 C 143.435 85.028,143.120 85.105,142.900 85.200 M164.400 104.000 C 164.400 114.450,164.468 123.000,164.550 123.000 C 164.633 123.000,164.700 114.450,164.700 104.000 C 164.700 93.550,164.633 85.000,164.550 85.000 C 164.468 85.000,164.400 93.550,164.400 104.000 M214.500 85.200 C 214.720 85.295,215.035 85.372,215.200 85.372 C 215.389 85.372,215.352 85.308,215.100 85.200 C 214.880 85.105,214.565 85.028,214.400 85.028 C 214.211 85.028,214.248 85.092,214.500 85.200 M226.495 98.900 C 226.495 106.490,226.520 109.566,226.550 105.735 C 226.580 101.905,226.580 95.695,226.550 91.935 C 226.519 88.176,226.495 91.310,226.495 98.900 M307.495 101.800 C 307.495 110.875,307.520 114.588,307.550 110.050 C 307.580 105.513,307.580 98.088,307.550 93.550 C 307.520 89.013,307.495 92.725,307.495 101.800 M310.498 99.000 L 310.500 112.700 312.000 112.700 L 313.500 112.700 313.600 108.500 L 313.700 104.300 318.231 104.300 C 320.723 104.300,322.720 104.233,322.669 104.150 C 322.505 103.884,313.910 103.970,313.640 104.240 C 313.469 104.411,313.400 105.649,313.400 108.540 L 313.400 112.600 312.001 112.600 L 310.603 112.600 310.549 98.950 L 310.496 85.300 310.498 99.000 M324.700 85.800 C 324.920 85.895,325.235 85.972,325.400 85.972 C 325.589 85.972,325.552 85.908,325.300 85.800 C 325.080 85.705,324.765 85.628,324.600 85.628 C 324.411 85.628,324.448 85.692,324.700 85.800 M251.300 87.400 C 251.730 87.840,252.126 88.200,252.181 88.200 C 252.236 88.200,251.930 87.840,251.500 87.400 C 251.070 86.960,250.674 86.600,250.619 86.600 C 250.564 86.600,250.870 86.960,251.300 87.400 M236.000 87.700 C 235.514 88.195,235.162 88.600,235.217 88.600 C 235.272 88.600,235.714 88.195,236.200 87.700 C 236.686 87.205,237.038 86.800,236.983 86.800 C 236.928 86.800,236.486 87.205,236.000 87.700 M189.900 88.200 C 190.442 88.750,190.930 89.200,190.985 89.200 C 191.040 89.200,190.642 88.750,190.100 88.200 C 189.558 87.650,189.070 87.200,189.015 87.200 C 188.960 87.200,189.358 87.650,189.900 88.200 M328.800 87.663 C 328.800 87.697,329.093 87.990,329.450 88.313 L 330.100 88.900 329.513 88.250 C 328.965 87.644,328.800 87.508,328.800 87.663 M136.065 89.050 C 135.405 89.738,134.758 90.525,134.627 90.800 L 134.388 91.300 134.741 90.800 C 134.934 90.525,135.626 89.738,136.278 89.050 C 136.930 88.363,137.418 87.800,137.363 87.800 C 137.308 87.800,136.724 88.363,136.065 89.050 M158.400 88.900 C 158.997 89.505,159.531 90.000,159.586 90.000 C 159.641 90.000,159.197 89.505,158.600 88.900 C 158.003 88.295,157.469 87.800,157.414 87.800 C 157.359 87.800,157.803 88.295,158.400 88.900 M269.108 88.150 C 264.932 88.180,261.449 88.271,261.367 88.352 C 261.286 88.434,264.725 88.475,269.010 88.445 C 273.911 88.411,276.800 88.318,276.800 88.195 C 276.800 88.088,276.778 88.021,276.750 88.048 C 276.723 88.074,273.283 88.120,269.108 88.150 M313.647 88.367 C 313.450 88.492,313.406 89.917,313.447 94.814 L 313.500 101.100 317.850 101.106 L 322.200 101.112 317.897 101.052 L 313.594 100.992 313.647 94.746 L 313.700 88.500 317.300 88.393 L 320.900 88.286 317.400 88.246 C 315.475 88.224,313.786 88.278,313.647 88.367 M107.600 88.539 C 107.600 88.660,107.899 89.021,108.264 89.342 C 108.629 89.662,108.992 90.090,109.069 90.291 C 109.146 90.492,109.268 90.599,109.340 90.527 C 109.412 90.455,109.702 90.600,109.985 90.848 L 110.500 91.300 110.021 90.756 C 109.757 90.457,109.465 90.260,109.371 90.318 C 109.277 90.376,109.200 90.302,109.200 90.152 C 109.200 90.003,108.840 89.530,108.400 89.100 C 107.960 88.670,107.600 88.418,107.600 88.539 M77.914 89.314 C 77.841 89.607,77.819 89.886,77.866 89.933 C 77.913 89.980,78.012 89.779,78.086 89.486 C 78.159 89.193,78.181 88.914,78.134 88.867 C 78.087 88.820,77.988 89.021,77.914 89.314 M160.000 90.800 C 160.235 91.130,160.472 91.400,160.527 91.400 C 160.582 91.400,160.435 91.130,160.200 90.800 C 159.965 90.470,159.728 90.200,159.673 90.200 C 159.618 90.200,159.765 90.470,160.000 90.800 M210.253 90.544 C 210.557 90.589,211.007 90.588,211.253 90.541 C 211.499 90.493,211.250 90.456,210.700 90.457 C 210.150 90.459,209.949 90.498,210.253 90.544 M212.400 90.667 C 212.400 90.719,212.690 90.862,213.045 90.986 C 213.400 91.110,213.603 91.129,213.495 91.028 C 213.268 90.815,212.400 90.529,212.400 90.667 M146.300 91.400 C 145.765 91.536,145.754 91.553,146.200 91.553 C 146.475 91.553,146.970 91.484,147.300 91.400 C 147.835 91.264,147.846 91.247,147.400 91.247 C 147.125 91.247,146.630 91.316,146.300 91.400 M177.300 91.400 C 177.048 91.508,177.011 91.572,177.200 91.572 C 177.365 91.572,177.680 91.495,177.900 91.400 C 178.152 91.292,178.189 91.228,178.000 91.228 C 177.835 91.228,177.520 91.305,177.300 91.400 M180.800 91.400 C 181.484 91.619,182.010 91.619,181.500 91.400 C 181.280 91.305,180.920 91.231,180.700 91.234 C 180.378 91.239,180.398 91.271,180.800 91.400 M68.076 93.900 C 68.077 95.220,68.109 95.734,68.148 95.042 C 68.187 94.350,68.187 93.270,68.148 92.642 C 68.108 92.014,68.076 92.580,68.076 93.900 M240.354 92.145 C 240.713 92.189,241.253 92.189,241.554 92.143 C 241.854 92.097,241.560 92.061,240.900 92.062 C 240.240 92.063,239.994 92.100,240.354 92.145 M184.000 93.100 C 184.373 93.485,184.723 93.800,184.778 93.800 C 184.833 93.800,184.573 93.485,184.200 93.100 C 183.827 92.715,183.477 92.400,183.422 92.400 C 183.367 92.400,183.627 92.715,184.000 93.100 M77.440 93.100 C 77.434 93.430,77.502 94.105,77.590 94.600 C 77.708 95.264,77.753 95.343,77.760 94.900 C 77.766 94.570,77.698 93.895,77.610 93.400 C 77.492 92.736,77.447 92.657,77.440 93.100 M244.600 93.500 C 244.973 93.885,245.323 94.200,245.378 94.200 C 245.433 94.200,245.173 93.885,244.800 93.500 C 244.427 93.115,244.077 92.800,244.022 92.800 C 243.967 92.800,244.227 93.115,244.600 93.500 M282.533 92.933 C 282.460 93.007,282.400 99.172,282.400 106.633 L 282.400 120.199 228.950 120.250 L 175.500 120.301 229.000 120.301 L 282.500 120.300 282.600 106.550 C 282.655 98.987,282.693 92.800,282.683 92.800 C 282.674 92.800,282.607 92.860,282.533 92.933 M331.666 94.500 C 331.667 95.270,331.703 95.560,331.746 95.146 C 331.789 94.731,331.789 94.101,331.744 93.746 C 331.700 93.390,331.665 93.730,331.666 94.500 M328.636 94.425 C 328.616 94.934,328.555 95.654,328.501 96.025 L 328.401 96.700 328.611 96.033 C 328.726 95.665,328.787 94.945,328.746 94.433 L 328.672 93.500 328.636 94.425 M132.454 97.400 C 132.454 97.895,132.493 98.098,132.541 97.850 C 132.589 97.603,132.589 97.198,132.541 96.950 C 132.493 96.703,132.454 96.905,132.454 97.400 M246.291 104.800 C 246.291 109.365,246.318 111.233,246.350 108.950 C 246.382 106.668,246.382 102.933,246.350 100.650 C 246.318 98.368,246.291 100.235,246.291 104.800 M331.314 97.114 C 331.241 97.407,331.219 97.686,331.266 97.733 C 331.313 97.780,331.412 97.579,331.486 97.286 C 331.559 96.993,331.581 96.714,331.534 96.667 C 331.487 96.620,331.388 96.821,331.314 97.114 M196.260 97.800 C 196.260 98.405,196.297 98.653,196.343 98.350 C 196.389 98.048,196.389 97.553,196.343 97.250 C 196.297 96.948,196.260 97.195,196.260 97.800 M172.450 97.700 C 172.453 98.140,172.494 98.296,172.541 98.048 C 172.589 97.799,172.587 97.439,172.537 97.248 C 172.487 97.056,172.448 97.260,172.450 97.700 M261.372 97.453 C 261.457 97.537,264.625 97.582,268.413 97.553 L 275.300 97.500 268.260 97.400 C 264.388 97.345,261.288 97.369,261.372 97.453 M112.446 98.400 C 112.446 98.785,112.488 98.942,112.538 98.750 C 112.588 98.558,112.588 98.243,112.538 98.050 C 112.488 97.858,112.446 98.015,112.446 98.400 M186.262 98.900 C 186.263 99.560,186.300 99.806,186.345 99.446 C 186.389 99.087,186.389 98.547,186.343 98.246 C 186.297 97.946,186.261 98.240,186.262 98.900 M194.067 99.200 C 194.067 100.025,194.103 100.363,194.146 99.950 C 194.189 99.538,194.189 98.863,194.146 98.450 C 194.103 98.038,194.067 98.375,194.067 99.200 M68.428 98.400 C 68.428 98.565,68.505 98.880,68.600 99.100 C 68.708 99.352,68.772 99.389,68.772 99.200 C 68.772 99.035,68.695 98.720,68.600 98.500 C 68.492 98.248,68.428 98.211,68.428 98.400 M172.403 99.917 C 172.405 100.348,172.485 100.825,172.582 100.977 C 172.689 101.146,172.716 100.874,172.652 100.277 C 172.521 99.059,172.399 98.882,172.403 99.917 M196.260 100.400 C 196.260 101.005,196.297 101.252,196.343 100.950 C 196.389 100.648,196.389 100.153,196.343 99.850 C 196.297 99.548,196.260 99.795,196.260 100.400 M132.454 100.600 C 132.454 101.095,132.493 101.298,132.541 101.050 C 132.589 100.803,132.589 100.398,132.541 100.150 C 132.493 99.903,132.454 100.105,132.454 100.600 M154.111 100.911 C 154.036 101.312,154.014 101.681,154.063 101.730 C 154.112 101.779,154.214 101.490,154.289 101.089 C 154.364 100.688,154.386 100.319,154.337 100.270 C 154.288 100.221,154.186 100.510,154.111 100.911 M268.307 100.350 C 264.571 100.380,261.448 100.472,261.367 100.553 C 261.286 100.634,264.365 100.675,268.210 100.645 C 272.579 100.611,275.200 100.517,275.200 100.395 C 275.200 100.288,275.178 100.221,275.150 100.247 C 275.123 100.273,272.043 100.319,268.307 100.350 M329.000 101.300 C 328.514 101.795,328.162 102.200,328.217 102.200 C 328.272 102.200,328.714 101.795,329.200 101.300 C 329.686 100.805,330.038 100.400,329.983 100.400 C 329.928 100.400,329.486 100.805,329.000 101.300 M214.300 101.400 L 204.300 101.506 214.238 101.553 C 220.699 101.583,224.220 101.530,224.300 101.400 C 224.368 101.290,224.396 101.221,224.362 101.247 C 224.328 101.273,219.800 101.342,214.300 101.400 M114.678 104.000 C 114.678 105.485,114.710 106.093,114.748 105.350 C 114.787 104.608,114.787 103.392,114.748 102.650 C 114.710 101.908,114.678 102.515,114.678 104.000 M112.429 102.500 C 112.410 102.830,112.348 103.325,112.292 103.600 L 112.189 104.100 112.404 103.607 C 112.522 103.336,112.584 102.841,112.541 102.507 L 112.464 101.900 112.429 102.500 M161.914 102.514 C 161.841 102.807,161.819 103.086,161.866 103.133 C 161.913 103.180,162.012 102.979,162.086 102.686 C 162.159 102.393,162.181 102.114,162.134 102.067 C 162.087 102.020,161.988 102.221,161.914 102.514 M173.582 103.566 C 173.690 103.768,173.935 104.060,174.127 104.216 C 174.343 104.392,174.295 104.252,174.001 103.850 C 173.475 103.132,173.278 102.999,173.582 103.566 M205.001 103.411 C 205.000 103.472,205.225 103.827,205.500 104.200 C 205.775 104.573,205.997 104.793,205.993 104.689 C 205.985 104.488,205.003 103.222,205.001 103.411 M183.989 104.750 L 183.300 105.500 184.050 104.811 C 184.748 104.169,184.892 104.000,184.739 104.000 C 184.706 104.000,184.368 104.338,183.989 104.750 M80.400 107.500 C 80.997 108.105,81.531 108.600,81.586 108.600 C 81.641 108.600,81.197 108.105,80.600 107.500 C 80.003 106.895,79.469 106.400,79.414 106.400 C 79.359 106.400,79.803 106.895,80.400 107.500 M146.954 106.745 C 147.313 106.789,147.853 106.789,148.154 106.743 C 148.454 106.697,148.160 106.661,147.500 106.662 C 146.840 106.663,146.594 106.700,146.954 106.745 M209.200 106.797 C 209.365 106.905,209.718 106.995,209.983 106.997 C 210.625 107.001,210.463 106.887,209.600 106.729 C 209.108 106.639,208.989 106.659,209.200 106.797 M211.152 107.141 C 211.401 107.189,211.761 107.187,211.952 107.137 C 212.144 107.087,211.940 107.048,211.500 107.050 C 211.060 107.053,210.904 107.094,211.152 107.141 M103.566 107.981 C 103.422 108.211,103.213 108.403,103.102 108.407 C 102.991 108.411,102.630 108.639,102.300 108.914 C 101.866 109.275,101.811 109.379,102.100 109.290 C 102.494 109.169,102.495 109.172,102.112 109.484 C 101.898 109.658,101.812 109.800,101.919 109.800 C 102.206 109.800,104.098 107.831,103.952 107.685 C 103.884 107.617,103.710 107.750,103.566 107.981 M222.493 108.167 C 222.590 108.337,222.401 108.701,221.976 109.167 L 221.308 109.900 222.097 109.153 C 222.754 108.532,222.841 108.364,222.614 108.153 C 222.393 107.948,222.370 107.950,222.493 108.167 M158.400 109.100 C 157.914 109.595,157.562 110.000,157.617 110.000 C 157.672 110.000,158.114 109.595,158.600 109.100 C 159.086 108.605,159.438 108.200,159.383 108.200 C 159.328 108.200,158.886 108.605,158.400 109.100 M136.200 109.100 C 136.573 109.485,136.923 109.800,136.978 109.800 C 137.033 109.800,136.773 109.485,136.400 109.100 C 136.027 108.715,135.677 108.400,135.622 108.400 C 135.567 108.400,135.827 108.715,136.200 109.100 M200.000 109.300 C 200.373 109.685,200.723 110.000,200.778 110.000 C 200.833 110.000,200.573 109.685,200.200 109.300 C 199.827 108.915,199.477 108.600,199.422 108.600 C 199.367 108.600,199.627 108.915,200.000 109.300 M190.091 109.850 L 189.300 110.700 190.150 109.909 C 190.618 109.475,191.000 109.092,191.000 109.059 C 191.000 108.908,190.826 109.060,190.091 109.850 M109.438 110.192 C 109.197 110.517,109.000 110.850,109.000 110.931 C 109.000 111.012,109.225 110.773,109.500 110.400 C 109.775 110.027,110.000 109.695,110.000 109.661 C 110.000 109.498,109.837 109.651,109.438 110.192 M277.238 111.248 L 277.200 112.596 267.650 112.650 L 258.100 112.704 267.656 112.752 C 275.569 112.792,277.231 112.753,277.317 112.528 C 277.375 112.378,277.389 111.725,277.349 111.078 L 277.276 109.900 277.238 111.248 M327.974 112.450 C 328.205 112.744,328.542 112.793,330.074 112.759 L 331.900 112.718 330.110 112.651 C 329.121 112.613,328.182 112.475,328.010 112.342 C 327.738 112.129,327.733 112.142,327.974 112.450 M145.300 113.203 C 146.320 113.368,148.734 113.459,148.583 113.327 C 148.537 113.287,147.555 113.206,146.400 113.147 C 144.984 113.076,144.626 113.094,145.300 113.203 M149.352 113.141 C 149.601 113.189,149.961 113.187,150.152 113.137 C 150.344 113.087,150.140 113.048,149.700 113.050 C 149.260 113.053,149.104 113.094,149.352 113.141 M178.952 113.141 C 179.201 113.189,179.561 113.187,179.752 113.137 C 179.944 113.087,179.740 113.048,179.300 113.050 C 178.860 113.053,178.704 113.094,178.952 113.141 M183.050 113.138 C 183.243 113.188,183.558 113.188,183.750 113.138 C 183.942 113.088,183.785 113.046,183.400 113.046 C 183.015 113.046,182.858 113.088,183.050 113.138 M207.952 113.141 C 208.201 113.189,208.561 113.187,208.752 113.137 C 208.944 113.087,208.740 113.048,208.300 113.050 C 207.860 113.053,207.704 113.094,207.952 113.141 M213.152 113.141 C 213.401 113.189,213.761 113.187,213.952 113.137 C 214.144 113.087,213.940 113.048,213.500 113.050 C 213.060 113.053,212.904 113.094,213.152 113.141 M180.754 113.345 C 181.113 113.389,181.653 113.389,181.954 113.343 C 182.254 113.297,181.960 113.261,181.300 113.262 C 180.640 113.263,180.394 113.300,180.754 113.345 M209.950 113.346 C 210.418 113.389,211.183 113.389,211.650 113.346 C 212.118 113.304,211.735 113.270,210.800 113.270 C 209.865 113.270,209.482 113.304,209.950 113.346 M86.850 114.538 C 87.043 114.588,87.358 114.588,87.550 114.538 C 87.743 114.488,87.585 114.446,87.200 114.446 C 86.815 114.446,86.658 114.488,86.850 114.538 M89.850 114.538 C 90.043 114.588,90.358 114.588,90.550 114.538 C 90.743 114.488,90.585 114.446,90.200 114.446 C 89.815 114.446,89.658 114.488,89.850 114.538 M139.565 120.350 C 143.560 120.380,150.040 120.380,153.965 120.350 C 157.889 120.320,154.620 120.295,146.700 120.295 C 138.780 120.295,135.569 120.320,139.565 120.350 M310.650 120.350 C 314.142 120.381,319.858 120.381,323.350 120.350 C 326.842 120.319,323.985 120.294,317.000 120.294 C 310.015 120.294,307.157 120.319,310.650 120.350 M88.900 124.200 C 89.120 124.295,89.435 124.372,89.600 124.372 C 89.789 124.372,89.752 124.308,89.500 124.200 C 89.280 124.105,88.965 124.028,88.800 124.028 C 88.611 124.028,88.648 124.092,88.900 124.200 M92.950 124.748 C 93.638 124.787,94.763 124.787,95.450 124.748 C 96.138 124.709,95.575 124.677,94.200 124.677 C 92.825 124.677,92.263 124.709,92.950 124.748 " stroke="none" fill="#8494b4" fill-rule="evenodd"></path><path id="path3" d="M172.470 86.800 C 172.470 87.735,172.504 88.118,172.546 87.650 C 172.589 87.183,172.589 86.418,172.546 85.950 C 172.504 85.483,172.470 85.865,172.470 86.800 M258.092 85.450 C 258.039 85.588,258.020 91.775,258.050 99.200 L 258.103 112.700 258.151 99.052 L 258.200 85.404 267.550 85.350 L 276.900 85.296 267.544 85.248 C 260.207 85.210,258.167 85.254,258.092 85.450 M279.733 85.333 C 279.660 85.407,279.600 92.786,279.600 101.733 L 279.600 117.999 227.650 118.050 L 175.700 118.101 227.700 118.101 L 279.700 118.100 279.751 101.757 L 279.802 85.414 281.751 85.349 L 283.700 85.284 281.783 85.242 C 280.729 85.219,279.807 85.260,279.733 85.333 M304.557 85.348 C 305.138 85.388,306.038 85.388,306.557 85.347 C 307.076 85.306,306.600 85.273,305.500 85.273 C 304.400 85.274,303.976 85.307,304.557 85.348 M313.650 85.350 C 315.382 85.383,318.218 85.383,319.950 85.350 C 321.683 85.316,320.265 85.289,316.800 85.289 C 313.335 85.289,311.918 85.316,313.650 85.350 M107.115 88.174 C 107.327 88.380,107.535 88.517,107.579 88.479 C 107.705 88.368,107.171 87.800,106.941 87.800 C 106.825 87.800,106.903 87.968,107.115 88.174 M67.866 93.900 C 67.867 94.670,67.903 94.960,67.946 94.546 C 67.989 94.131,67.989 93.501,67.944 93.146 C 67.900 92.790,67.865 93.130,67.866 93.900 M77.646 96.000 C 77.646 96.385,77.688 96.543,77.738 96.350 C 77.788 96.158,77.788 95.843,77.738 95.650 C 77.688 95.458,77.646 95.615,77.646 96.000 M275.267 99.000 C 275.267 99.825,275.303 100.163,275.346 99.750 C 275.389 99.338,275.389 98.663,275.346 98.250 C 275.303 97.838,275.267 98.175,275.267 99.000 M162.464 99.000 C 162.464 99.715,162.500 100.008,162.545 99.650 C 162.589 99.293,162.589 98.708,162.545 98.350 C 162.500 97.993,162.464 98.285,162.464 99.000 M132.260 99.000 C 132.260 99.605,132.297 99.853,132.343 99.550 C 132.389 99.248,132.389 98.752,132.343 98.450 C 132.297 98.148,132.260 98.395,132.260 99.000 M112.469 100.500 C 112.469 101.380,112.504 101.715,112.547 101.245 C 112.589 100.774,112.588 100.054,112.545 99.645 C 112.502 99.235,112.468 99.620,112.469 100.500 M114.869 104.100 C 114.869 104.980,114.904 105.315,114.947 104.845 C 114.989 104.374,114.988 103.654,114.945 103.245 C 114.902 102.835,114.868 103.220,114.869 104.100 M218.281 104.231 C 218.189 104.380,218.226 104.407,218.389 104.307 C 218.550 104.208,219.043 104.536,219.770 105.226 L 220.900 106.300 219.807 105.150 C 218.660 103.944,218.513 103.855,218.281 104.231 M313.730 104.350 C 313.679 104.433,314.866 104.477,316.369 104.448 C 321.409 104.352,321.930 104.280,317.862 104.240 C 315.641 104.218,313.782 104.267,313.730 104.350 M221.792 107.250 C 222.620 108.133,222.800 108.292,222.800 108.142 C 222.800 108.110,222.373 107.682,221.850 107.192 L 220.900 106.300 221.792 107.250 M172.490 116.100 C 172.490 119.840,172.517 121.342,172.550 119.437 C 172.583 117.533,172.583 114.473,172.550 112.637 C 172.517 110.802,172.490 112.360,172.490 116.100 M261.372 109.852 C 261.456 109.936,265.029 109.981,269.312 109.952 L 277.100 109.900 269.160 109.800 C 264.793 109.745,261.288 109.769,261.372 109.852 M91.952 112.341 C 92.201 112.389,92.561 112.387,92.752 112.337 C 92.944 112.287,92.740 112.248,92.300 112.250 C 91.860 112.253,91.704 112.294,91.952 112.341 M226.451 112.800 C 226.520 113.053,227.138 113.101,230.417 113.107 L 234.300 113.114 230.509 113.052 C 227.802 113.008,226.668 112.921,226.544 112.745 C 226.418 112.568,226.392 112.583,226.451 112.800 M248.361 113.149 C 249.494 113.185,251.294 113.185,252.361 113.149 C 253.427 113.113,252.500 113.084,250.300 113.084 C 248.100 113.084,247.227 113.114,248.361 113.149 M139.350 118.150 C 143.338 118.180,149.863 118.180,153.850 118.150 C 157.838 118.120,154.575 118.095,146.600 118.095 C 138.625 118.095,135.363 118.120,139.350 118.150 M313.564 118.150 C 316.900 118.181,322.300 118.181,325.564 118.150 C 328.829 118.119,326.100 118.094,319.500 118.094 C 312.900 118.094,310.229 118.119,313.564 118.150 M166.450 123.149 C 167.523 123.185,169.278 123.185,170.350 123.149 C 171.423 123.113,170.545 123.084,168.400 123.084 C 166.255 123.084,165.378 123.113,166.450 123.149 M93.554 124.945 C 93.913 124.989,94.453 124.989,94.754 124.943 C 95.054 124.897,94.760 124.861,94.100 124.862 C 93.440 124.863,93.194 124.900,93.554 124.945 " stroke="none" fill="#7484ac" fill-rule="evenodd"></path><path id="path4" d="M97.750 72.941 C 97.998 72.989,98.403 72.989,98.650 72.941 C 98.898 72.893,98.695 72.854,98.200 72.854 C 97.705 72.854,97.502 72.893,97.750 72.941 M94.610 73.189 C 94.423 73.308,94.635 73.332,95.210 73.259 C 95.700 73.196,96.138 73.112,96.183 73.072 C 96.371 72.909,94.878 73.020,94.610 73.189 M100.417 73.072 C 100.463 73.111,100.860 73.199,101.300 73.266 C 101.845 73.350,102.004 73.328,101.800 73.197 C 101.527 73.023,100.223 72.905,100.417 73.072 M105.000 74.067 C 105.000 74.119,105.290 74.262,105.645 74.386 C 106.000 74.510,106.203 74.529,106.095 74.428 C 105.868 74.215,105.000 73.929,105.000 74.067 M93.550 78.546 C 94.017 78.589,94.783 78.589,95.250 78.546 C 95.718 78.504,95.335 78.470,94.400 78.470 C 93.465 78.470,93.083 78.504,93.550 78.546 M104.200 81.663 C 104.200 81.697,104.493 81.990,104.850 82.313 L 105.500 82.900 104.913 82.250 C 104.365 81.644,104.200 81.508,104.200 81.663 M105.600 82.863 C 105.600 82.897,105.892 83.190,106.250 83.513 L 106.900 84.100 106.313 83.450 C 105.765 82.844,105.600 82.708,105.600 82.863 M81.601 84.499 C 81.343 84.774,81.170 85.032,81.216 85.073 C 81.262 85.114,81.509 84.889,81.765 84.574 C 82.338 83.868,82.237 83.822,81.601 84.499 M243.653 84.544 C 243.957 84.589,244.407 84.588,244.653 84.541 C 244.899 84.493,244.650 84.456,244.100 84.457 C 243.550 84.459,243.349 84.498,243.653 84.544 M178.500 84.800 C 177.990 85.019,178.516 85.019,179.200 84.800 C 179.602 84.671,179.622 84.639,179.300 84.634 C 179.080 84.631,178.720 84.705,178.500 84.800 M183.200 84.800 C 183.475 84.888,183.880 84.960,184.100 84.960 C 184.417 84.960,184.396 84.927,184.000 84.800 C 183.725 84.712,183.320 84.640,183.100 84.640 C 182.783 84.640,182.804 84.673,183.200 84.800 M207.400 84.800 C 207.004 84.927,206.983 84.960,207.300 84.960 C 207.520 84.960,207.925 84.888,208.200 84.800 C 208.596 84.673,208.617 84.640,208.300 84.640 C 208.080 84.640,207.675 84.712,207.400 84.800 M213.200 84.800 C 213.475 84.888,213.880 84.960,214.100 84.960 C 214.417 84.960,214.396 84.927,214.000 84.800 C 213.725 84.712,213.320 84.640,213.100 84.640 C 212.783 84.640,212.804 84.673,213.200 84.800 M240.900 84.800 C 240.648 84.908,240.611 84.972,240.800 84.972 C 240.965 84.972,241.280 84.895,241.500 84.800 C 241.752 84.692,241.789 84.628,241.600 84.628 C 241.435 84.628,241.120 84.705,240.900 84.800 M246.700 84.800 C 246.920 84.895,247.235 84.972,247.400 84.972 C 247.589 84.972,247.552 84.908,247.300 84.800 C 247.080 84.705,246.765 84.628,246.600 84.628 C 246.411 84.628,246.448 84.692,246.700 84.800 M165.900 84.938 C 169.352 85.081,172.555 85.087,172.470 84.950 C 172.418 84.868,170.604 84.818,168.438 84.840 C 166.272 84.862,165.130 84.906,165.900 84.938 M230.450 84.948 L 234.400 85.008 234.400 87.098 C 234.400 88.889,234.444 89.171,234.705 89.070 C 234.915 88.990,234.949 88.879,234.813 88.716 C 234.705 88.586,234.590 87.674,234.558 86.690 L 234.500 84.900 230.500 84.893 L 226.500 84.887 230.450 84.948 M164.247 103.938 C 164.221 114.409,164.268 123.018,164.350 123.069 C 164.486 123.153,164.485 109.517,164.347 91.700 C 164.318 87.960,164.273 93.467,164.247 103.938 M226.295 99.000 C 226.295 106.645,226.320 109.772,226.350 105.950 C 226.380 102.127,226.380 95.872,226.350 92.050 C 226.320 88.227,226.295 91.355,226.295 99.000 M276.840 86.748 L 276.800 88.395 269.050 88.448 L 261.300 88.500 261.294 92.750 L 261.288 97.000 261.348 92.800 L 261.408 88.600 269.110 88.600 C 275.374 88.600,276.832 88.550,276.916 88.331 C 276.972 88.183,276.987 87.396,276.949 86.581 L 276.879 85.100 276.840 86.748 M310.292 85.450 C 310.239 85.588,310.220 91.820,310.248 99.300 L 310.300 112.900 310.400 99.050 C 310.455 91.432,310.475 85.200,310.444 85.200 C 310.413 85.200,310.344 85.313,310.292 85.450 M323.017 85.271 C 323.063 85.310,323.415 85.400,323.800 85.471 C 324.292 85.561,324.411 85.541,324.200 85.403 C 323.929 85.225,322.818 85.102,323.017 85.271 M187.900 86.340 C 188.010 86.444,188.505 86.823,189.000 87.182 L 189.900 87.836 189.200 87.204 C 188.587 86.651,187.378 85.847,187.900 86.340 M236.861 86.715 L 236.300 87.229 236.950 86.777 C 237.308 86.528,237.600 86.297,237.600 86.262 C 237.600 86.105,237.379 86.240,236.861 86.715 M105.633 86.966 C 105.670 87.058,106.330 87.706,107.100 88.407 C 107.988 89.215,108.188 89.351,107.645 88.778 C 107.176 88.282,106.843 87.823,106.907 87.760 C 106.971 87.696,106.756 87.454,106.431 87.222 C 105.809 86.779,105.521 86.687,105.633 86.966 M77.250 87.700 C 77.253 88.140,77.294 88.296,77.341 88.048 C 77.389 87.799,77.387 87.439,77.337 87.248 C 77.287 87.056,77.248 87.260,77.250 87.700 M136.194 88.750 L 134.900 90.100 136.250 88.806 C 136.993 88.094,137.600 87.486,137.600 87.456 C 137.600 87.309,137.396 87.496,136.194 88.750 M329.484 88.200 C 330.532 89.421,330.742 89.613,330.252 88.900 C 330.025 88.570,329.585 88.075,329.275 87.800 C 328.901 87.468,328.971 87.602,329.484 88.200 M313.691 88.652 C 313.637 88.791,313.618 91.603,313.647 94.902 L 313.700 100.900 318.200 100.906 L 322.700 100.911 318.250 100.852 L 313.800 100.792 313.800 94.700 L 313.800 88.608 318.050 88.550 L 322.300 88.492 318.044 88.446 C 314.769 88.411,313.765 88.458,313.691 88.652 M68.125 89.908 C 68.056 90.086,68.008 90.383,68.017 90.566 C 68.027 90.750,68.114 90.635,68.211 90.310 C 68.399 89.679,68.332 89.366,68.125 89.908 M116.487 90.250 L 115.900 90.900 116.550 90.313 C 116.908 89.990,117.200 89.697,117.200 89.663 C 117.200 89.508,117.035 89.644,116.487 90.250 M77.525 90.508 C 77.456 90.686,77.409 91.028,77.420 91.266 C 77.433 91.540,77.501 91.443,77.605 91.001 C 77.780 90.258,77.732 89.967,77.525 90.508 M327.007 90.511 C 327.015 90.712,327.997 91.978,327.999 91.789 C 328.000 91.728,327.775 91.373,327.500 91.000 C 327.225 90.627,327.003 90.407,327.007 90.511 M209.955 90.747 C 210.426 90.789,211.146 90.788,211.555 90.745 C 211.965 90.702,211.580 90.668,210.700 90.669 C 209.820 90.669,209.485 90.704,209.955 90.747 M76.223 91.234 C 76.210 91.417,76.148 91.732,76.085 91.934 C 75.976 92.281,75.982 92.281,76.198 91.944 C 76.324 91.748,76.386 91.433,76.337 91.244 C 76.255 90.934,76.244 90.933,76.223 91.234 M178.950 91.341 C 179.197 91.389,179.603 91.389,179.850 91.341 C 180.097 91.293,179.895 91.254,179.400 91.254 C 178.905 91.254,178.703 91.293,178.950 91.341 M110.999 91.950 C 111.261 92.308,111.506 92.600,111.545 92.600 C 111.697 92.600,111.201 91.850,110.873 91.584 C 110.657 91.408,110.705 91.548,110.999 91.950 M77.926 92.818 C 77.857 93.166,77.812 93.866,77.827 94.375 C 77.849 95.104,77.887 94.983,78.011 93.800 C 78.176 92.216,78.137 91.763,77.926 92.818 M174.735 93.231 L 173.700 94.262 174.800 93.295 C 175.405 92.763,175.938 92.299,175.983 92.264 C 176.029 92.229,176.000 92.200,175.918 92.200 C 175.837 92.200,175.304 92.664,174.735 93.231 M183.400 92.663 C 183.400 92.697,183.692 92.990,184.050 93.313 L 184.700 93.900 184.113 93.250 C 183.565 92.644,183.400 92.508,183.400 92.663 M331.700 94.613 C 331.700 95.699,331.761 96.432,331.836 96.243 C 332.021 95.776,332.029 93.156,331.847 92.870 C 331.766 92.743,331.700 93.528,331.700 94.613 M282.553 106.759 C 282.524 114.251,282.566 120.314,282.647 120.233 C 282.811 120.069,282.871 93.405,282.708 93.242 C 282.652 93.185,282.582 99.268,282.553 106.759 M303.931 93.641 C 303.868 93.884,303.857 94.124,303.908 94.175 C 303.959 94.225,304.022 94.139,304.048 93.983 C 304.074 93.828,304.143 99.730,304.200 107.100 L 304.304 120.500 304.352 106.850 C 304.395 94.485,304.321 92.150,303.931 93.641 M223.922 94.500 C 224.087 95.235,224.201 95.395,224.197 94.883 C 224.195 94.673,224.103 94.365,223.991 94.200 C 223.843 93.981,223.824 94.062,223.922 94.500 M328.450 94.700 C 328.453 95.140,328.494 95.296,328.541 95.048 C 328.589 94.799,328.587 94.439,328.537 94.248 C 328.487 94.056,328.448 94.260,328.450 94.700 M75.669 95.700 C 75.669 96.580,75.704 96.915,75.747 96.445 C 75.789 95.974,75.788 95.254,75.745 94.845 C 75.702 94.435,75.668 94.820,75.669 95.700 M132.514 95.314 C 132.441 95.607,132.419 95.886,132.466 95.933 C 132.513 95.980,132.612 95.779,132.686 95.486 C 132.759 95.193,132.781 94.914,132.734 94.867 C 132.687 94.820,132.588 95.021,132.514 95.314 M77.427 95.938 C 77.412 96.509,77.490 97.032,77.600 97.100 C 77.710 97.168,77.800 97.416,77.800 97.652 C 77.800 97.961,77.860 98.020,78.019 97.861 C 78.177 97.703,78.165 97.512,77.978 97.171 C 77.835 96.912,77.659 96.295,77.586 95.800 L 77.453 94.900 77.427 95.938 M193.934 96.100 C 194.086 97.089,194.201 97.257,194.197 96.483 C 194.195 96.163,194.108 95.765,194.003 95.600 C 193.872 95.396,193.850 95.555,193.934 96.100 M245.803 95.917 C 245.805 96.127,245.897 96.435,246.009 96.600 C 246.157 96.819,246.176 96.738,246.078 96.300 C 245.913 95.565,245.799 95.405,245.803 95.917 M113.434 96.410 C 113.551 96.746,113.683 96.983,113.729 96.938 C 113.828 96.839,113.450 95.800,113.315 95.800 C 113.263 95.800,113.317 96.075,113.434 96.410 M111.922 96.700 C 112.087 97.435,112.201 97.595,112.197 97.083 C 112.195 96.873,112.103 96.565,111.991 96.400 C 111.843 96.181,111.824 96.262,111.922 96.700 M207.350 96.550 C 209.028 96.583,211.773 96.583,213.450 96.550 C 215.128 96.516,213.755 96.489,210.400 96.489 C 207.045 96.489,205.673 96.516,207.350 96.550 M162.446 97.200 C 162.446 97.585,162.488 97.743,162.538 97.550 C 162.588 97.358,162.588 97.043,162.538 96.850 C 162.488 96.658,162.446 96.815,162.446 97.200 M68.003 97.317 C 68.005 97.528,68.097 97.835,68.209 98.000 C 68.357 98.219,68.376 98.138,68.278 97.700 C 68.113 96.965,67.999 96.805,68.003 97.317 M140.650 97.900 C 140.653 98.340,140.694 98.496,140.741 98.248 C 140.789 97.999,140.787 97.639,140.737 97.448 C 140.687 97.256,140.648 97.460,140.650 97.900 M154.035 97.600 C 154.028 97.875,154.098 98.460,154.189 98.900 C 154.295 99.413,154.358 99.521,154.365 99.200 C 154.372 98.925,154.302 98.340,154.211 97.900 C 154.105 97.387,154.042 97.279,154.035 97.600 M263.800 97.342 C 270.134 97.483,275.354 97.487,275.269 97.350 C 275.218 97.267,272.054 97.220,268.238 97.243 C 264.422 97.267,262.425 97.312,263.800 97.342 M234.568 97.617 C 234.457 97.909,234.326 113.200,234.435 113.200 C 234.557 113.200,234.769 97.815,234.650 97.617 C 234.623 97.571,234.586 97.571,234.568 97.617 M194.266 99.100 C 194.267 99.870,194.303 100.160,194.346 99.746 C 194.389 99.331,194.389 98.701,194.344 98.346 C 194.300 97.990,194.265 98.330,194.266 99.100 M327.350 98.307 C 326.850 98.975,326.915 99.162,327.423 98.516 C 327.655 98.221,327.813 97.947,327.773 97.909 C 327.733 97.871,327.543 98.050,327.350 98.307 M224.469 99.500 C 224.469 100.380,224.504 100.715,224.547 100.245 C 224.589 99.774,224.588 99.054,224.545 98.645 C 224.502 98.235,224.468 98.620,224.469 99.500 M114.522 100.100 C 114.687 100.835,114.801 100.995,114.797 100.483 C 114.795 100.273,114.703 99.965,114.591 99.800 C 114.443 99.581,114.424 99.662,114.522 100.100 M140.614 100.217 C 140.622 100.593,140.706 101.080,140.801 101.300 C 140.913 101.557,140.934 101.343,140.859 100.700 C 140.722 99.511,140.594 99.260,140.614 100.217 M185.925 100.308 C 185.856 100.486,185.809 100.828,185.820 101.066 C 185.833 101.340,185.901 101.243,186.005 100.801 C 186.180 100.058,186.132 99.767,185.925 100.308 M162.427 100.600 C 162.409 100.875,162.348 101.325,162.292 101.600 L 162.189 102.100 162.404 101.608 C 162.522 101.337,162.583 100.887,162.539 100.608 L 162.460 100.100 162.427 100.600 M268.300 100.596 L 261.300 100.700 261.294 105.150 L 261.288 109.600 261.348 105.200 L 261.408 100.800 268.292 100.800 C 272.666 100.800,275.221 100.727,275.300 100.600 C 275.368 100.490,275.396 100.421,275.362 100.446 C 275.328 100.471,272.150 100.539,268.300 100.596 M193.990 101.945 C 193.935 102.409,193.967 102.713,194.060 102.620 C 194.153 102.527,194.198 102.147,194.160 101.775 C 194.092 101.117,194.088 101.121,193.990 101.945 M132.403 102.117 C 132.405 102.328,132.497 102.635,132.609 102.800 C 132.757 103.019,132.776 102.938,132.678 102.500 C 132.513 101.765,132.399 101.605,132.403 102.117 M196.403 102.917 C 196.405 103.128,196.497 103.435,196.609 103.600 C 196.757 103.819,196.776 103.738,196.678 103.300 C 196.513 102.565,196.399 102.405,196.403 102.917 M174.500 104.373 C 174.940 104.845,175.480 105.327,175.700 105.443 C 175.920 105.559,176.055 105.613,176.000 105.563 C 174.052 103.795,173.710 103.524,174.500 104.373 M151.989 104.750 L 151.300 105.500 152.050 104.811 C 152.748 104.169,152.892 104.000,152.739 104.000 C 152.706 104.000,152.368 104.338,151.989 104.750 M142.800 104.900 C 143.173 105.285,143.523 105.600,143.578 105.600 C 143.633 105.600,143.373 105.285,143.000 104.900 C 142.627 104.515,142.277 104.200,142.222 104.200 C 142.167 104.200,142.427 104.515,142.800 104.900 M196.909 104.650 C 196.984 104.897,197.127 105.188,197.228 105.295 C 197.329 105.403,197.310 105.200,197.186 104.845 C 196.933 104.119,196.699 103.954,196.909 104.650 M313.685 108.700 C 313.685 111.010,313.714 111.928,313.749 110.739 C 313.785 109.551,313.785 107.661,313.749 106.539 C 313.713 105.418,313.684 106.390,313.685 108.700 M105.406 105.650 C 105.247 105.897,105.139 106.211,105.166 106.347 C 105.197 106.501,105.082 106.550,104.858 106.478 C 104.558 106.381,104.549 106.397,104.800 106.578 C 105.062 106.767,104.963 106.879,104.577 106.833 C 104.509 106.824,104.239 107.061,103.977 107.359 L 103.500 107.900 104.050 107.415 C 104.617 106.915,104.791 107.019,104.350 107.595 C 104.213 107.774,104.391 107.601,104.747 107.210 C 105.103 106.820,105.395 106.397,105.397 106.271 C 105.399 106.146,105.535 105.991,105.700 105.928 C 106.004 105.811,106.128 105.200,105.848 105.200 C 105.765 105.200,105.566 105.403,105.406 105.650 M111.422 106.022 C 111.299 106.376,111.233 106.700,111.276 106.743 C 111.319 106.785,111.455 106.531,111.578 106.178 C 111.701 105.824,111.767 105.500,111.724 105.457 C 111.681 105.415,111.545 105.669,111.422 106.022 M214.028 106.429 C 213.659 106.536,213.394 106.660,213.439 106.706 C 213.540 106.807,215.000 106.418,215.000 106.291 C 215.000 106.173,214.841 106.195,214.028 106.429 M146.550 106.546 C 147.018 106.589,147.782 106.589,148.250 106.546 C 148.718 106.504,148.335 106.470,147.400 106.470 C 146.465 106.470,146.083 106.504,146.550 106.546 M179.050 106.538 C 179.243 106.588,179.558 106.588,179.750 106.538 C 179.942 106.488,179.785 106.446,179.400 106.446 C 179.015 106.446,178.858 106.488,179.050 106.538 M80.400 107.300 C 80.773 107.685,81.123 108.000,81.178 108.000 C 81.233 108.000,80.973 107.685,80.600 107.300 C 80.227 106.915,79.877 106.600,79.822 106.600 C 79.767 106.600,80.027 106.915,80.400 107.300 M211.250 106.938 C 211.443 106.988,211.757 106.988,211.950 106.938 C 212.143 106.888,211.985 106.846,211.600 106.846 C 211.215 106.846,211.058 106.888,211.250 106.938 M114.623 107.634 C 114.610 107.817,114.548 108.132,114.485 108.334 C 114.376 108.681,114.382 108.681,114.598 108.344 C 114.724 108.148,114.786 107.833,114.737 107.644 C 114.655 107.334,114.644 107.333,114.623 107.634 M329.139 108.415 C 329.337 108.754,329.628 109.136,329.784 109.265 C 329.940 109.394,329.816 109.118,329.507 108.650 C 328.860 107.668,328.605 107.506,329.139 108.415 M135.992 109.050 C 136.482 109.572,136.910 110.000,136.942 110.000 C 137.092 110.000,136.933 109.820,136.050 108.992 L 135.100 108.100 135.992 109.050 M74.200 108.863 C 74.200 108.897,74.492 109.190,74.850 109.513 L 75.500 110.100 74.913 109.450 C 74.365 108.844,74.200 108.708,74.200 108.863 M190.193 109.950 L 189.100 111.100 190.250 110.007 C 191.318 108.991,191.492 108.800,191.343 108.800 C 191.312 108.800,190.794 109.317,190.193 109.950 M101.993 109.858 C 101.007 110.774,101.250 110.660,102.457 109.640 C 102.873 109.288,103.143 109.003,103.057 109.008 C 102.971 109.012,102.492 109.394,101.993 109.858 M200.200 109.700 C 200.573 110.085,200.923 110.400,200.978 110.400 C 201.033 110.400,200.773 110.085,200.400 109.700 C 200.027 109.315,199.677 109.000,199.622 109.000 C 199.567 109.000,199.827 109.315,200.200 109.700 M221.000 110.127 C 219.911 110.983,219.776 111.120,220.300 110.841 C 220.736 110.609,222.162 109.415,222.000 109.418 C 221.945 109.420,221.495 109.739,221.000 110.127 M277.140 109.940 C 277.273 110.035,277.414 110.734,277.456 111.506 L 277.531 112.900 277.516 111.416 C 277.504 110.276,277.431 109.913,277.200 109.851 C 276.989 109.794,276.971 109.820,277.140 109.940 M85.200 110.667 C 85.200 110.719,85.490 110.862,85.845 110.986 C 86.200 111.110,86.403 111.129,86.295 111.028 C 86.068 110.815,85.200 110.529,85.200 110.667 M107.594 112.150 L 106.300 113.500 107.650 112.206 C 108.392 111.494,109.000 110.886,109.000 110.856 C 109.000 110.709,108.796 110.896,107.594 112.150 M113.434 111.790 C 113.317 112.125,113.263 112.400,113.315 112.400 C 113.450 112.400,113.828 111.361,113.729 111.262 C 113.683 111.217,113.551 111.454,113.434 111.790 M90.152 112.141 C 90.401 112.189,90.761 112.187,90.952 112.137 C 91.144 112.087,90.940 112.048,90.500 112.050 C 90.060 112.053,89.904 112.094,90.152 112.141 M93.550 112.141 C 93.798 112.189,94.203 112.189,94.450 112.141 C 94.698 112.093,94.495 112.054,94.000 112.054 C 93.505 112.054,93.303 112.093,93.550 112.141 M327.974 112.650 C 328.205 112.944,328.542 112.993,330.074 112.959 L 331.900 112.918 330.110 112.851 C 329.121 112.813,328.182 112.675,328.010 112.542 C 327.738 112.329,327.733 112.342,327.974 112.650 M258.172 112.852 C 258.256 112.936,262.594 112.981,267.812 112.952 L 277.300 112.900 267.660 112.800 C 262.358 112.745,258.088 112.768,258.172 112.852 M143.000 113.000 C 143.684 113.219,144.210 113.219,143.700 113.000 C 143.480 112.905,143.120 112.831,142.900 112.834 C 142.578 112.839,142.598 112.871,143.000 113.000 M311.250 112.946 C 311.663 112.989,312.338 112.989,312.750 112.946 C 313.163 112.903,312.825 112.867,312.000 112.867 C 311.175 112.867,310.838 112.903,311.250 112.946 M145.500 113.403 C 146.108 113.555,148.737 113.661,148.583 113.528 C 148.537 113.488,147.690 113.410,146.700 113.355 C 145.710 113.299,145.170 113.321,145.500 113.403 M179.700 113.412 C 179.920 113.500,180.685 113.571,181.400 113.570 C 183.040 113.568,182.754 113.459,180.800 113.342 C 179.949 113.291,179.473 113.322,179.700 113.412 M210.056 113.547 C 210.582 113.589,211.392 113.588,211.856 113.546 C 212.320 113.504,211.890 113.470,210.900 113.471 C 209.910 113.472,209.530 113.506,210.056 113.547 M86.157 114.636 C 86.346 114.711,87.490 114.772,88.700 114.772 C 89.910 114.772,91.054 114.711,91.243 114.636 C 91.431 114.561,90.287 114.500,88.700 114.500 C 87.113 114.500,85.969 114.561,86.157 114.636 M87.450 115.538 C 87.642 115.588,87.958 115.588,88.150 115.538 C 88.343 115.488,88.185 115.446,87.800 115.446 C 87.415 115.446,87.258 115.488,87.450 115.538 M111.038 116.192 C 110.797 116.517,110.600 116.850,110.600 116.931 C 110.600 117.012,110.825 116.773,111.100 116.400 C 111.375 116.027,111.600 115.695,111.600 115.661 C 111.600 115.498,111.437 115.651,111.038 116.192 M84.621 116.907 C 84.279 117.296,84.000 117.674,84.000 117.747 C 84.000 117.820,84.068 117.794,84.152 117.690 C 84.235 117.586,84.567 117.208,84.889 116.850 C 85.211 116.493,85.422 116.200,85.358 116.200 C 85.294 116.200,84.962 116.518,84.621 116.907 M100.028 116.429 C 99.659 116.536,99.394 116.660,99.439 116.706 C 99.540 116.807,101.000 116.418,101.000 116.291 C 101.000 116.173,100.841 116.195,100.028 116.429 M91.217 116.472 C 91.263 116.511,91.570 116.604,91.900 116.678 C 92.338 116.776,92.419 116.757,92.200 116.609 C 91.930 116.426,91.016 116.299,91.217 116.472 M95.155 117.147 C 95.626 117.189,96.346 117.188,96.755 117.145 C 97.165 117.102,96.780 117.068,95.900 117.069 C 95.020 117.069,94.685 117.104,95.155 117.147 M293.400 117.333 C 293.400 117.480,293.480 117.600,293.579 117.600 C 293.677 117.600,293.803 117.480,293.860 117.333 C 293.916 117.187,293.835 117.067,293.681 117.067 C 293.526 117.067,293.400 117.187,293.400 117.333 M161.197 119.159 L 161.294 120.300 161.359 119.322 C 161.395 118.784,161.351 118.271,161.262 118.181 C 161.173 118.092,161.144 118.532,161.197 119.159 M175.223 119.250 C 175.248 120.601,175.344 120.470,175.442 118.950 C 175.475 118.428,175.435 118.000,175.351 118.000 C 175.268 118.000,175.210 118.563,175.223 119.250 M83.725 118.508 C 83.656 118.686,83.613 119.253,83.629 119.766 C 83.658 120.680,83.662 120.674,83.795 119.500 C 83.940 118.218,83.924 117.989,83.725 118.508 M132.060 119.200 C 132.060 119.805,132.097 120.053,132.143 119.750 C 132.189 119.447,132.189 118.953,132.143 118.650 C 132.097 118.347,132.060 118.595,132.060 119.200 M106.100 121.106 C 105.318 121.747,105.528 121.743,106.400 121.100 C 106.773 120.825,106.993 120.603,106.889 120.607 C 106.785 120.611,106.430 120.836,106.100 121.106 M84.158 121.700 C 84.272 121.920,84.666 122.370,85.033 122.700 L 85.700 123.299 85.001 122.500 C 84.616 122.060,84.222 121.610,84.126 121.500 C 84.030 121.390,84.044 121.480,84.158 121.700 M101.700 123.507 C 101.198 123.749,101.181 123.776,101.600 123.676 C 101.875 123.609,102.186 123.475,102.290 123.378 C 102.549 123.135,102.407 123.167,101.700 123.507 M90.000 124.597 C 90.165 124.705,90.517 124.795,90.783 124.797 C 91.425 124.801,91.263 124.687,90.400 124.529 C 89.908 124.439,89.789 124.459,90.000 124.597 M293.006 126.310 C 292.999 126.555,293.408 127.000,293.640 127.000 C 293.728 127.000,293.800 126.905,293.800 126.788 C 293.800 126.672,293.716 126.629,293.612 126.692 C 293.509 126.756,293.332 126.649,293.218 126.454 C 293.105 126.259,293.009 126.195,293.006 126.310 " stroke="none" fill="#465e95" fill-rule="evenodd"></path></g></svg>